G04 #@! TF.GenerationSoftware,KiCad,Pcbnew,5.1.0*
G04 #@! TF.CreationDate,2019-04-02T20:23:27-06:00*
G04 #@! TF.ProjectId,minisumo-FreeRTOS,6d696e69-7375-46d6-9f2d-467265655254,rev?*
G04 #@! TF.SameCoordinates,Original*
G04 #@! TF.FileFunction,Legend,Top*
G04 #@! TF.FilePolarity,Positive*
%FSLAX46Y46*%
G04 Gerber Fmt 4.6, Leading zero omitted, Abs format (unit mm)*
G04 Created by KiCad (PCBNEW 5.1.0) date 2019-04-02 20:23:27*
%MOMM*%
%LPD*%
G04 APERTURE LIST*
%ADD10C,0.120000*%
%ADD11C,0.150000*%
G04 APERTURE END LIST*
D10*
X121325000Y-94700000D02*
X122425000Y-94700000D01*
X121325000Y-93750000D02*
X121325000Y-94700000D01*
X119825000Y-93750000D02*
X121325000Y-93750000D01*
X121325000Y-103200000D02*
X126450000Y-103200000D01*
X121325000Y-104150000D02*
X121325000Y-103200000D01*
X119825000Y-104150000D02*
X121325000Y-104150000D01*
X118200000Y-84700000D02*
X118200000Y-87000000D01*
X110800000Y-84700000D02*
X118200000Y-84700000D01*
X110800000Y-87000000D02*
X110800000Y-84700000D01*
X110800000Y-92100000D02*
X110800000Y-89800000D01*
X118200000Y-92100000D02*
X110800000Y-92100000D01*
X118200000Y-89800000D02*
X118200000Y-92100000D01*
X137950000Y-96400000D02*
X137950000Y-107600000D01*
X139700000Y-107600000D02*
X139700000Y-109600000D01*
X137950000Y-107600000D02*
X139700000Y-107600000D01*
X154050000Y-107600000D02*
X152300000Y-107600000D01*
X154050000Y-96400000D02*
X154050000Y-107600000D01*
X154050000Y-96400000D02*
X152300000Y-96400000D01*
X137950000Y-96400000D02*
X139700000Y-96400000D01*
X134760000Y-97760000D02*
X134760000Y-96560000D01*
X134760000Y-93240000D02*
X134760000Y-94440000D01*
X131304437Y-93240000D02*
X134760000Y-93240000D01*
X131304437Y-97760000D02*
X134760000Y-97760000D01*
X130240000Y-96695563D02*
X130240000Y-96560000D01*
X130240000Y-94304437D02*
X130240000Y-94440000D01*
X130240000Y-94304437D02*
X131304437Y-93240000D01*
X130240000Y-96695563D02*
X131304437Y-97760000D01*
X129500000Y-93940000D02*
X130000000Y-93940000D01*
X129750000Y-93690000D02*
X129750000Y-94190000D01*
X156437221Y-95610000D02*
X156762779Y-95610000D01*
X156437221Y-94590000D02*
X156762779Y-94590000D01*
X156437221Y-96290000D02*
X156762779Y-96290000D01*
X156437221Y-97310000D02*
X156762779Y-97310000D01*
X157837221Y-92890000D02*
X158162779Y-92890000D01*
X157837221Y-93910000D02*
X158162779Y-93910000D01*
X137310000Y-108362779D02*
X137310000Y-108037221D01*
X136290000Y-108362779D02*
X136290000Y-108037221D01*
X159360000Y-104640000D02*
X158160000Y-104640000D01*
X154840000Y-104640000D02*
X156040000Y-104640000D01*
X154840000Y-108095563D02*
X154840000Y-104640000D01*
X159360000Y-108095563D02*
X159360000Y-104640000D01*
X158295563Y-109160000D02*
X158160000Y-109160000D01*
X155904437Y-109160000D02*
X156040000Y-109160000D01*
X155904437Y-109160000D02*
X154840000Y-108095563D01*
X158295563Y-109160000D02*
X159360000Y-108095563D01*
X155540000Y-109900000D02*
X155540000Y-109400000D01*
X155290000Y-109650000D02*
X155790000Y-109650000D01*
X130250000Y-110720000D02*
X130250000Y-105280000D01*
X130250000Y-105280000D02*
X120510000Y-105280000D01*
X120510000Y-105280000D02*
X120510000Y-110720000D01*
X120510000Y-110720000D02*
X130250000Y-110720000D01*
X131160000Y-108000000D02*
X130250000Y-108000000D01*
X119600000Y-108000000D02*
X120510000Y-108000000D01*
X128705000Y-110720000D02*
X128705000Y-105280000D01*
X128585000Y-110720000D02*
X128585000Y-105280000D01*
X128825000Y-110720000D02*
X128825000Y-105280000D01*
X130550000Y-102800000D02*
X132250000Y-102800000D01*
X132250000Y-102800000D02*
X132250000Y-100250000D01*
X130550000Y-102800000D02*
X130550000Y-100250000D01*
X134250000Y-99800000D02*
X134250000Y-102350000D01*
X132550000Y-99800000D02*
X132550000Y-102350000D01*
X134250000Y-99800000D02*
X132550000Y-99800000D01*
X168150000Y-84950000D02*
X168150000Y-92250000D01*
X162650000Y-84950000D02*
X162650000Y-92250000D01*
X162650000Y-92250000D02*
X163800000Y-92250000D01*
X149600000Y-87170000D02*
X149600000Y-89830000D01*
X149600000Y-89830000D02*
X149540000Y-89830000D01*
X144460000Y-89830000D02*
X144400000Y-89830000D01*
X144400000Y-87170000D02*
X144400000Y-89830000D01*
X149600000Y-87170000D02*
X149540000Y-87170000D01*
X144460000Y-87170000D02*
X144400000Y-87170000D01*
X149540000Y-89830000D02*
X149540000Y-91290000D01*
X164530000Y-101270000D02*
X161870000Y-101270000D01*
X161870000Y-101270000D02*
X161870000Y-101210000D01*
X161870000Y-93590000D02*
X161870000Y-93530000D01*
X164530000Y-93530000D02*
X161870000Y-93530000D01*
X164530000Y-101270000D02*
X164530000Y-101210000D01*
X164530000Y-93590000D02*
X164530000Y-93530000D01*
X161870000Y-101210000D02*
X160410000Y-101210000D01*
X142140000Y-87170000D02*
X142140000Y-89830000D01*
X142140000Y-89830000D02*
X142080000Y-89830000D01*
X131920000Y-89830000D02*
X131860000Y-89830000D01*
X131860000Y-87170000D02*
X131860000Y-89830000D01*
X142140000Y-87170000D02*
X142080000Y-87170000D01*
X131920000Y-87170000D02*
X131860000Y-87170000D01*
X142080000Y-89830000D02*
X142080000Y-91290000D01*
X132650279Y-104410000D02*
X132324721Y-104410000D01*
X132650279Y-103390000D02*
X132324721Y-103390000D01*
X156549721Y-100490000D02*
X156875279Y-100490000D01*
X156549721Y-101510000D02*
X156875279Y-101510000D01*
X160500000Y-104550000D02*
X160050000Y-105000000D01*
X160500000Y-107950000D02*
X160050000Y-107500000D01*
X165100000Y-107950000D02*
X165550000Y-107500000D01*
X165100000Y-104550000D02*
X165550000Y-105000000D01*
X163800000Y-109000000D02*
X161800000Y-109000000D01*
X160050000Y-105000000D02*
X160050000Y-107500000D01*
X163800000Y-103500000D02*
X161800000Y-103500000D01*
X165550000Y-105000000D02*
X165550000Y-107500000D01*
X168600000Y-103500000D02*
X168400000Y-103500000D01*
X168600000Y-108700000D02*
X168400000Y-108700000D01*
X166040000Y-103300000D02*
X166040000Y-106060000D01*
X168600000Y-108700000D02*
G75*
G03X168600000Y-103500000I0J2600000D01*
G01*
X151860000Y-89830000D02*
X151860000Y-87170000D01*
X151860000Y-87170000D02*
X151920000Y-87170000D01*
X162080000Y-87170000D02*
X162140000Y-87170000D01*
X162140000Y-89830000D02*
X162140000Y-87170000D01*
X151860000Y-89830000D02*
X151920000Y-89830000D01*
X162080000Y-89830000D02*
X162140000Y-89830000D01*
X151920000Y-87170000D02*
X151920000Y-85710000D01*
X113330000Y-105630000D02*
X110670000Y-105630000D01*
X113330000Y-108230000D02*
X113330000Y-105630000D01*
X110670000Y-108230000D02*
X110670000Y-105630000D01*
X113330000Y-108230000D02*
X110670000Y-108230000D01*
X113330000Y-109500000D02*
X113330000Y-110830000D01*
X113330000Y-110830000D02*
X112000000Y-110830000D01*
X125760000Y-86240000D02*
X124560000Y-86240000D01*
X121240000Y-86240000D02*
X122440000Y-86240000D01*
X121240000Y-89695563D02*
X121240000Y-86240000D01*
X125760000Y-89695563D02*
X125760000Y-86240000D01*
X124695563Y-90760000D02*
X124560000Y-90760000D01*
X122304437Y-90760000D02*
X122440000Y-90760000D01*
X122304437Y-90760000D02*
X121240000Y-89695563D01*
X124695563Y-90760000D02*
X125760000Y-89695563D01*
X121940000Y-91500000D02*
X121940000Y-91000000D01*
X121690000Y-91250000D02*
X122190000Y-91250000D01*
X130760000Y-86240000D02*
X129560000Y-86240000D01*
X126240000Y-86240000D02*
X127440000Y-86240000D01*
X126240000Y-89695563D02*
X126240000Y-86240000D01*
X130760000Y-89695563D02*
X130760000Y-86240000D01*
X129695563Y-90760000D02*
X129560000Y-90760000D01*
X127304437Y-90760000D02*
X127440000Y-90760000D01*
X127304437Y-90760000D02*
X126240000Y-89695563D01*
X129695563Y-90760000D02*
X130760000Y-89695563D01*
X126940000Y-91500000D02*
X126940000Y-91000000D01*
X126690000Y-91250000D02*
X127190000Y-91250000D01*
D11*
X117613095Y-105052380D02*
X117613095Y-105861904D01*
X117660714Y-105957142D01*
X117708333Y-106004761D01*
X117803571Y-106052380D01*
X117994047Y-106052380D01*
X118089285Y-106004761D01*
X118136904Y-105957142D01*
X118184523Y-105861904D01*
X118184523Y-105052380D01*
X118613095Y-105147619D02*
X118660714Y-105100000D01*
X118755952Y-105052380D01*
X118994047Y-105052380D01*
X119089285Y-105100000D01*
X119136904Y-105147619D01*
X119184523Y-105242857D01*
X119184523Y-105338095D01*
X119136904Y-105480952D01*
X118565476Y-106052380D01*
X119184523Y-106052380D01*
X118983333Y-92077380D02*
X118507142Y-92077380D01*
X118507142Y-91077380D01*
X119840476Y-92077380D02*
X119269047Y-92077380D01*
X119554761Y-92077380D02*
X119554761Y-91077380D01*
X119459523Y-91220238D01*
X119364285Y-91315476D01*
X119269047Y-91363095D01*
X137298809Y-95777380D02*
X137298809Y-94777380D01*
X138346428Y-95682142D02*
X138298809Y-95729761D01*
X138155952Y-95777380D01*
X138060714Y-95777380D01*
X137917857Y-95729761D01*
X137822619Y-95634523D01*
X137775000Y-95539285D01*
X137727380Y-95348809D01*
X137727380Y-95205952D01*
X137775000Y-95015476D01*
X137822619Y-94920238D01*
X137917857Y-94825000D01*
X138060714Y-94777380D01*
X138155952Y-94777380D01*
X138298809Y-94825000D01*
X138346428Y-94872619D01*
X139298809Y-95777380D02*
X138727380Y-95777380D01*
X139013095Y-95777380D02*
X139013095Y-94777380D01*
X138917857Y-94920238D01*
X138822619Y-95015476D01*
X138727380Y-95063095D01*
X132333333Y-92657142D02*
X132285714Y-92704761D01*
X132142857Y-92752380D01*
X132047619Y-92752380D01*
X131904761Y-92704761D01*
X131809523Y-92609523D01*
X131761904Y-92514285D01*
X131714285Y-92323809D01*
X131714285Y-92180952D01*
X131761904Y-91990476D01*
X131809523Y-91895238D01*
X131904761Y-91800000D01*
X132047619Y-91752380D01*
X132142857Y-91752380D01*
X132285714Y-91800000D01*
X132333333Y-91847619D01*
X132714285Y-91847619D02*
X132761904Y-91800000D01*
X132857142Y-91752380D01*
X133095238Y-91752380D01*
X133190476Y-91800000D01*
X133238095Y-91847619D01*
X133285714Y-91942857D01*
X133285714Y-92038095D01*
X133238095Y-92180952D01*
X132666666Y-92752380D01*
X133285714Y-92752380D01*
X158908333Y-95457142D02*
X158860714Y-95504761D01*
X158717857Y-95552380D01*
X158622619Y-95552380D01*
X158479761Y-95504761D01*
X158384523Y-95409523D01*
X158336904Y-95314285D01*
X158289285Y-95123809D01*
X158289285Y-94980952D01*
X158336904Y-94790476D01*
X158384523Y-94695238D01*
X158479761Y-94600000D01*
X158622619Y-94552380D01*
X158717857Y-94552380D01*
X158860714Y-94600000D01*
X158908333Y-94647619D01*
X159241666Y-94552380D02*
X159908333Y-94552380D01*
X159479761Y-95552380D01*
X158858333Y-97307142D02*
X158810714Y-97354761D01*
X158667857Y-97402380D01*
X158572619Y-97402380D01*
X158429761Y-97354761D01*
X158334523Y-97259523D01*
X158286904Y-97164285D01*
X158239285Y-96973809D01*
X158239285Y-96830952D01*
X158286904Y-96640476D01*
X158334523Y-96545238D01*
X158429761Y-96450000D01*
X158572619Y-96402380D01*
X158667857Y-96402380D01*
X158810714Y-96450000D01*
X158858333Y-96497619D01*
X159429761Y-96830952D02*
X159334523Y-96783333D01*
X159286904Y-96735714D01*
X159239285Y-96640476D01*
X159239285Y-96592857D01*
X159286904Y-96497619D01*
X159334523Y-96450000D01*
X159429761Y-96402380D01*
X159620238Y-96402380D01*
X159715476Y-96450000D01*
X159763095Y-96497619D01*
X159810714Y-96592857D01*
X159810714Y-96640476D01*
X159763095Y-96735714D01*
X159715476Y-96783333D01*
X159620238Y-96830952D01*
X159429761Y-96830952D01*
X159334523Y-96878571D01*
X159286904Y-96926190D01*
X159239285Y-97021428D01*
X159239285Y-97211904D01*
X159286904Y-97307142D01*
X159334523Y-97354761D01*
X159429761Y-97402380D01*
X159620238Y-97402380D01*
X159715476Y-97354761D01*
X159763095Y-97307142D01*
X159810714Y-97211904D01*
X159810714Y-97021428D01*
X159763095Y-96926190D01*
X159715476Y-96878571D01*
X159620238Y-96830952D01*
X154557142Y-93757142D02*
X154509523Y-93804761D01*
X154366666Y-93852380D01*
X154271428Y-93852380D01*
X154128571Y-93804761D01*
X154033333Y-93709523D01*
X153985714Y-93614285D01*
X153938095Y-93423809D01*
X153938095Y-93280952D01*
X153985714Y-93090476D01*
X154033333Y-92995238D01*
X154128571Y-92900000D01*
X154271428Y-92852380D01*
X154366666Y-92852380D01*
X154509523Y-92900000D01*
X154557142Y-92947619D01*
X155509523Y-93852380D02*
X154938095Y-93852380D01*
X155223809Y-93852380D02*
X155223809Y-92852380D01*
X155128571Y-92995238D01*
X155033333Y-93090476D01*
X154938095Y-93138095D01*
X156461904Y-93852380D02*
X155890476Y-93852380D01*
X156176190Y-93852380D02*
X156176190Y-92852380D01*
X156080952Y-92995238D01*
X155985714Y-93090476D01*
X155890476Y-93138095D01*
X137157142Y-105842857D02*
X137204761Y-105890476D01*
X137252380Y-106033333D01*
X137252380Y-106128571D01*
X137204761Y-106271428D01*
X137109523Y-106366666D01*
X137014285Y-106414285D01*
X136823809Y-106461904D01*
X136680952Y-106461904D01*
X136490476Y-106414285D01*
X136395238Y-106366666D01*
X136300000Y-106271428D01*
X136252380Y-106128571D01*
X136252380Y-106033333D01*
X136300000Y-105890476D01*
X136347619Y-105842857D01*
X137252380Y-104890476D02*
X137252380Y-105461904D01*
X137252380Y-105176190D02*
X136252380Y-105176190D01*
X136395238Y-105271428D01*
X136490476Y-105366666D01*
X136538095Y-105461904D01*
X136585714Y-104033333D02*
X137252380Y-104033333D01*
X136204761Y-104271428D02*
X136919047Y-104509523D01*
X136919047Y-103890476D01*
X154457142Y-109842857D02*
X154504761Y-109890476D01*
X154552380Y-110033333D01*
X154552380Y-110128571D01*
X154504761Y-110271428D01*
X154409523Y-110366666D01*
X154314285Y-110414285D01*
X154123809Y-110461904D01*
X153980952Y-110461904D01*
X153790476Y-110414285D01*
X153695238Y-110366666D01*
X153600000Y-110271428D01*
X153552380Y-110128571D01*
X153552380Y-110033333D01*
X153600000Y-109890476D01*
X153647619Y-109842857D01*
X154552380Y-108890476D02*
X154552380Y-109461904D01*
X154552380Y-109176190D02*
X153552380Y-109176190D01*
X153695238Y-109271428D01*
X153790476Y-109366666D01*
X153838095Y-109461904D01*
X153552380Y-107985714D02*
X153552380Y-108461904D01*
X154028571Y-108509523D01*
X153980952Y-108461904D01*
X153933333Y-108366666D01*
X153933333Y-108128571D01*
X153980952Y-108033333D01*
X154028571Y-107985714D01*
X154123809Y-107938095D01*
X154361904Y-107938095D01*
X154457142Y-107985714D01*
X154504761Y-108033333D01*
X154552380Y-108128571D01*
X154552380Y-108366666D01*
X154504761Y-108461904D01*
X154457142Y-108509523D01*
X123661904Y-104752380D02*
X123661904Y-103752380D01*
X123900000Y-103752380D01*
X124042857Y-103800000D01*
X124138095Y-103895238D01*
X124185714Y-103990476D01*
X124233333Y-104180952D01*
X124233333Y-104323809D01*
X124185714Y-104514285D01*
X124138095Y-104609523D01*
X124042857Y-104704761D01*
X123900000Y-104752380D01*
X123661904Y-104752380D01*
X125185714Y-104752380D02*
X124614285Y-104752380D01*
X124900000Y-104752380D02*
X124900000Y-103752380D01*
X124804761Y-103895238D01*
X124709523Y-103990476D01*
X124614285Y-104038095D01*
X135138095Y-110452380D02*
X135138095Y-109452380D01*
X135709523Y-110452380D02*
X135280952Y-109880952D01*
X135709523Y-109452380D02*
X135138095Y-110023809D01*
X130002380Y-102038095D02*
X129002380Y-102038095D01*
X129002380Y-101800000D01*
X129050000Y-101657142D01*
X129145238Y-101561904D01*
X129240476Y-101514285D01*
X129430952Y-101466666D01*
X129573809Y-101466666D01*
X129764285Y-101514285D01*
X129859523Y-101561904D01*
X129954761Y-101657142D01*
X130002380Y-101800000D01*
X130002380Y-102038095D01*
X129097619Y-101085714D02*
X129050000Y-101038095D01*
X129002380Y-100942857D01*
X129002380Y-100704761D01*
X129050000Y-100609523D01*
X129097619Y-100561904D01*
X129192857Y-100514285D01*
X129288095Y-100514285D01*
X129430952Y-100561904D01*
X130002380Y-101133333D01*
X130002380Y-100514285D01*
X135702380Y-102038095D02*
X134702380Y-102038095D01*
X134702380Y-101800000D01*
X134750000Y-101657142D01*
X134845238Y-101561904D01*
X134940476Y-101514285D01*
X135130952Y-101466666D01*
X135273809Y-101466666D01*
X135464285Y-101514285D01*
X135559523Y-101561904D01*
X135654761Y-101657142D01*
X135702380Y-101800000D01*
X135702380Y-102038095D01*
X134702380Y-101133333D02*
X134702380Y-100514285D01*
X135083333Y-100847619D01*
X135083333Y-100704761D01*
X135130952Y-100609523D01*
X135178571Y-100561904D01*
X135273809Y-100514285D01*
X135511904Y-100514285D01*
X135607142Y-100561904D01*
X135654761Y-100609523D01*
X135702380Y-100704761D01*
X135702380Y-100990476D01*
X135654761Y-101085714D01*
X135607142Y-101133333D01*
X166761904Y-93352380D02*
X166761904Y-92352380D01*
X167000000Y-92352380D01*
X167142857Y-92400000D01*
X167238095Y-92495238D01*
X167285714Y-92590476D01*
X167333333Y-92780952D01*
X167333333Y-92923809D01*
X167285714Y-93114285D01*
X167238095Y-93209523D01*
X167142857Y-93304761D01*
X167000000Y-93352380D01*
X166761904Y-93352380D01*
X168190476Y-92685714D02*
X168190476Y-93352380D01*
X167952380Y-92304761D02*
X167714285Y-93019047D01*
X168333333Y-93019047D01*
X167452380Y-84164285D02*
X167452380Y-84735714D01*
X167452380Y-84450000D02*
X166452380Y-84450000D01*
X166595238Y-84545238D01*
X166690476Y-84640476D01*
X166738095Y-84735714D01*
X148641666Y-92002380D02*
X148641666Y-92716666D01*
X148594047Y-92859523D01*
X148498809Y-92954761D01*
X148355952Y-93002380D01*
X148260714Y-93002380D01*
X149070238Y-92097619D02*
X149117857Y-92050000D01*
X149213095Y-92002380D01*
X149451190Y-92002380D01*
X149546428Y-92050000D01*
X149594047Y-92097619D01*
X149641666Y-92192857D01*
X149641666Y-92288095D01*
X149594047Y-92430952D01*
X149022619Y-93002380D01*
X149641666Y-93002380D01*
X166752380Y-95733333D02*
X167466666Y-95733333D01*
X167609523Y-95780952D01*
X167704761Y-95876190D01*
X167752380Y-96019047D01*
X167752380Y-96114285D01*
X166752380Y-95352380D02*
X166752380Y-94685714D01*
X167752380Y-95114285D01*
X141041666Y-92252380D02*
X141041666Y-92966666D01*
X140994047Y-93109523D01*
X140898809Y-93204761D01*
X140755952Y-93252380D01*
X140660714Y-93252380D01*
X141660714Y-92680952D02*
X141565476Y-92633333D01*
X141517857Y-92585714D01*
X141470238Y-92490476D01*
X141470238Y-92442857D01*
X141517857Y-92347619D01*
X141565476Y-92300000D01*
X141660714Y-92252380D01*
X141851190Y-92252380D01*
X141946428Y-92300000D01*
X141994047Y-92347619D01*
X142041666Y-92442857D01*
X142041666Y-92490476D01*
X141994047Y-92585714D01*
X141946428Y-92633333D01*
X141851190Y-92680952D01*
X141660714Y-92680952D01*
X141565476Y-92728571D01*
X141517857Y-92776190D01*
X141470238Y-92871428D01*
X141470238Y-93061904D01*
X141517857Y-93157142D01*
X141565476Y-93204761D01*
X141660714Y-93252380D01*
X141851190Y-93252380D01*
X141946428Y-93204761D01*
X141994047Y-93157142D01*
X142041666Y-93061904D01*
X142041666Y-92871428D01*
X141994047Y-92776190D01*
X141946428Y-92728571D01*
X141851190Y-92680952D01*
X132320833Y-105782380D02*
X131987500Y-105306190D01*
X131749404Y-105782380D02*
X131749404Y-104782380D01*
X132130357Y-104782380D01*
X132225595Y-104830000D01*
X132273214Y-104877619D01*
X132320833Y-104972857D01*
X132320833Y-105115714D01*
X132273214Y-105210952D01*
X132225595Y-105258571D01*
X132130357Y-105306190D01*
X131749404Y-105306190D01*
X133273214Y-105782380D02*
X132701785Y-105782380D01*
X132987500Y-105782380D02*
X132987500Y-104782380D01*
X132892261Y-104925238D01*
X132797023Y-105020476D01*
X132701785Y-105068095D01*
X156558333Y-99952380D02*
X156225000Y-99476190D01*
X155986904Y-99952380D02*
X155986904Y-98952380D01*
X156367857Y-98952380D01*
X156463095Y-99000000D01*
X156510714Y-99047619D01*
X156558333Y-99142857D01*
X156558333Y-99285714D01*
X156510714Y-99380952D01*
X156463095Y-99428571D01*
X156367857Y-99476190D01*
X155986904Y-99476190D01*
X157463095Y-98952380D02*
X156986904Y-98952380D01*
X156939285Y-99428571D01*
X156986904Y-99380952D01*
X157082142Y-99333333D01*
X157320238Y-99333333D01*
X157415476Y-99380952D01*
X157463095Y-99428571D01*
X157510714Y-99523809D01*
X157510714Y-99761904D01*
X157463095Y-99857142D01*
X157415476Y-99904761D01*
X157320238Y-99952380D01*
X157082142Y-99952380D01*
X156986904Y-99904761D01*
X156939285Y-99857142D01*
X156916666Y-103079761D02*
X157059523Y-103127380D01*
X157297619Y-103127380D01*
X157392857Y-103079761D01*
X157440476Y-103032142D01*
X157488095Y-102936904D01*
X157488095Y-102841666D01*
X157440476Y-102746428D01*
X157392857Y-102698809D01*
X157297619Y-102651190D01*
X157107142Y-102603571D01*
X157011904Y-102555952D01*
X156964285Y-102508333D01*
X156916666Y-102413095D01*
X156916666Y-102317857D01*
X156964285Y-102222619D01*
X157011904Y-102175000D01*
X157107142Y-102127380D01*
X157345238Y-102127380D01*
X157488095Y-102175000D01*
X157821428Y-102127380D02*
X158059523Y-103127380D01*
X158250000Y-102413095D01*
X158440476Y-103127380D01*
X158678571Y-102127380D01*
X159583333Y-103127380D02*
X159011904Y-103127380D01*
X159297619Y-103127380D02*
X159297619Y-102127380D01*
X159202380Y-102270238D01*
X159107142Y-102365476D01*
X159011904Y-102413095D01*
X166538095Y-101052380D02*
X166538095Y-101861904D01*
X166585714Y-101957142D01*
X166633333Y-102004761D01*
X166728571Y-102052380D01*
X166919047Y-102052380D01*
X167014285Y-102004761D01*
X167061904Y-101957142D01*
X167109523Y-101861904D01*
X167109523Y-101052380D01*
X168014285Y-101385714D02*
X168014285Y-102052380D01*
X167776190Y-101004761D02*
X167538095Y-101719047D01*
X168157142Y-101719047D01*
X161391666Y-91977380D02*
X161391666Y-92691666D01*
X161344047Y-92834523D01*
X161248809Y-92929761D01*
X161105952Y-92977380D01*
X161010714Y-92977380D01*
X162391666Y-92977380D02*
X161820238Y-92977380D01*
X162105952Y-92977380D02*
X162105952Y-91977380D01*
X162010714Y-92120238D01*
X161915476Y-92215476D01*
X161820238Y-92263095D01*
X114366666Y-109852380D02*
X114366666Y-110566666D01*
X114319047Y-110709523D01*
X114223809Y-110804761D01*
X114080952Y-110852380D01*
X113985714Y-110852380D01*
X114747619Y-109852380D02*
X115366666Y-109852380D01*
X115033333Y-110233333D01*
X115176190Y-110233333D01*
X115271428Y-110280952D01*
X115319047Y-110328571D01*
X115366666Y-110423809D01*
X115366666Y-110661904D01*
X115319047Y-110757142D01*
X115271428Y-110804761D01*
X115176190Y-110852380D01*
X114890476Y-110852380D01*
X114795238Y-110804761D01*
X114747619Y-110757142D01*
X122857142Y-93157142D02*
X122809523Y-93204761D01*
X122666666Y-93252380D01*
X122571428Y-93252380D01*
X122428571Y-93204761D01*
X122333333Y-93109523D01*
X122285714Y-93014285D01*
X122238095Y-92823809D01*
X122238095Y-92680952D01*
X122285714Y-92490476D01*
X122333333Y-92395238D01*
X122428571Y-92300000D01*
X122571428Y-92252380D01*
X122666666Y-92252380D01*
X122809523Y-92300000D01*
X122857142Y-92347619D01*
X123809523Y-93252380D02*
X123238095Y-93252380D01*
X123523809Y-93252380D02*
X123523809Y-92252380D01*
X123428571Y-92395238D01*
X123333333Y-92490476D01*
X123238095Y-92538095D01*
X124380952Y-92680952D02*
X124285714Y-92633333D01*
X124238095Y-92585714D01*
X124190476Y-92490476D01*
X124190476Y-92442857D01*
X124238095Y-92347619D01*
X124285714Y-92300000D01*
X124380952Y-92252380D01*
X124571428Y-92252380D01*
X124666666Y-92300000D01*
X124714285Y-92347619D01*
X124761904Y-92442857D01*
X124761904Y-92490476D01*
X124714285Y-92585714D01*
X124666666Y-92633333D01*
X124571428Y-92680952D01*
X124380952Y-92680952D01*
X124285714Y-92728571D01*
X124238095Y-92776190D01*
X124190476Y-92871428D01*
X124190476Y-93061904D01*
X124238095Y-93157142D01*
X124285714Y-93204761D01*
X124380952Y-93252380D01*
X124571428Y-93252380D01*
X124666666Y-93204761D01*
X124714285Y-93157142D01*
X124761904Y-93061904D01*
X124761904Y-92871428D01*
X124714285Y-92776190D01*
X124666666Y-92728571D01*
X124571428Y-92680952D01*
X127857142Y-93057142D02*
X127809523Y-93104761D01*
X127666666Y-93152380D01*
X127571428Y-93152380D01*
X127428571Y-93104761D01*
X127333333Y-93009523D01*
X127285714Y-92914285D01*
X127238095Y-92723809D01*
X127238095Y-92580952D01*
X127285714Y-92390476D01*
X127333333Y-92295238D01*
X127428571Y-92200000D01*
X127571428Y-92152380D01*
X127666666Y-92152380D01*
X127809523Y-92200000D01*
X127857142Y-92247619D01*
X128809523Y-93152380D02*
X128238095Y-93152380D01*
X128523809Y-93152380D02*
X128523809Y-92152380D01*
X128428571Y-92295238D01*
X128333333Y-92390476D01*
X128238095Y-92438095D01*
X129285714Y-93152380D02*
X129476190Y-93152380D01*
X129571428Y-93104761D01*
X129619047Y-93057142D01*
X129714285Y-92914285D01*
X129761904Y-92723809D01*
X129761904Y-92342857D01*
X129714285Y-92247619D01*
X129666666Y-92200000D01*
X129571428Y-92152380D01*
X129380952Y-92152380D01*
X129285714Y-92200000D01*
X129238095Y-92247619D01*
X129190476Y-92342857D01*
X129190476Y-92580952D01*
X129238095Y-92676190D01*
X129285714Y-92723809D01*
X129380952Y-92771428D01*
X129571428Y-92771428D01*
X129666666Y-92723809D01*
X129714285Y-92676190D01*
X129761904Y-92580952D01*
M02*
