G04 #@! TF.GenerationSoftware,KiCad,Pcbnew,5.1.0*
G04 #@! TF.CreationDate,2019-04-02T20:23:26-06:00*
G04 #@! TF.ProjectId,minisumo-FreeRTOS,6d696e69-7375-46d6-9f2d-467265655254,rev?*
G04 #@! TF.SameCoordinates,Original*
G04 #@! TF.FileFunction,Copper,L1,Top*
G04 #@! TF.FilePolarity,Positive*
%FSLAX46Y46*%
G04 Gerber Fmt 4.6, Leading zero omitted, Abs format (unit mm)*
G04 Created by KiCad (PCBNEW 5.1.0) date 2019-04-02 20:23:26*
%MOMM*%
%LPD*%
G04 APERTURE LIST*
%ADD10R,9.400000X10.800000*%
%ADD11R,4.600000X1.100000*%
%ADD12R,1.500000X2.200000*%
%ADD13R,0.700000X1.700000*%
%ADD14R,2.600000X1.600000*%
%ADD15C,0.100000*%
%ADD16C,0.875000*%
%ADD17R,1.600000X2.600000*%
%ADD18R,3.200000X3.200000*%
%ADD19O,3.200000X3.200000*%
%ADD20R,0.500000X0.500000*%
%ADD21R,1.000000X1.500000*%
%ADD22R,0.750000X2.100000*%
%ADD23R,2.100000X0.750000*%
%ADD24R,1.000000X1.700000*%
%ADD25C,1.800000*%
%ADD26R,1.700000X1.700000*%
%ADD27O,1.700000X1.700000*%
%ADD28C,0.800000*%
%ADD29C,0.450000*%
%ADD30C,0.400000*%
G04 APERTURE END LIST*
D10*
X115000000Y-98950000D03*
D11*
X124150000Y-95550000D03*
X124150000Y-97250000D03*
X124150000Y-98950000D03*
X124150000Y-100650000D03*
X124150000Y-102350000D03*
D12*
X117700000Y-88400000D03*
X111300000Y-88400000D03*
D13*
X140285000Y-95150000D03*
X141555000Y-95150000D03*
X142825000Y-95150000D03*
X144095000Y-95150000D03*
X145365000Y-95150000D03*
X146635000Y-95150000D03*
X147905000Y-95150000D03*
X149175000Y-95150000D03*
X150445000Y-95150000D03*
X151715000Y-95150000D03*
X151715000Y-108850000D03*
X150445000Y-108850000D03*
X149175000Y-108850000D03*
X147905000Y-108850000D03*
X146635000Y-108850000D03*
X145365000Y-108850000D03*
X144095000Y-108850000D03*
X142825000Y-108850000D03*
X141555000Y-108850000D03*
X140285000Y-108850000D03*
D14*
X130700000Y-95500000D03*
X134300000Y-95500000D03*
D15*
G36*
X157627691Y-94626053D02*
G01*
X157648926Y-94629203D01*
X157669750Y-94634419D01*
X157689962Y-94641651D01*
X157709368Y-94650830D01*
X157727781Y-94661866D01*
X157745024Y-94674654D01*
X157760930Y-94689070D01*
X157775346Y-94704976D01*
X157788134Y-94722219D01*
X157799170Y-94740632D01*
X157808349Y-94760038D01*
X157815581Y-94780250D01*
X157820797Y-94801074D01*
X157823947Y-94822309D01*
X157825000Y-94843750D01*
X157825000Y-95356250D01*
X157823947Y-95377691D01*
X157820797Y-95398926D01*
X157815581Y-95419750D01*
X157808349Y-95439962D01*
X157799170Y-95459368D01*
X157788134Y-95477781D01*
X157775346Y-95495024D01*
X157760930Y-95510930D01*
X157745024Y-95525346D01*
X157727781Y-95538134D01*
X157709368Y-95549170D01*
X157689962Y-95558349D01*
X157669750Y-95565581D01*
X157648926Y-95570797D01*
X157627691Y-95573947D01*
X157606250Y-95575000D01*
X157168750Y-95575000D01*
X157147309Y-95573947D01*
X157126074Y-95570797D01*
X157105250Y-95565581D01*
X157085038Y-95558349D01*
X157065632Y-95549170D01*
X157047219Y-95538134D01*
X157029976Y-95525346D01*
X157014070Y-95510930D01*
X156999654Y-95495024D01*
X156986866Y-95477781D01*
X156975830Y-95459368D01*
X156966651Y-95439962D01*
X156959419Y-95419750D01*
X156954203Y-95398926D01*
X156951053Y-95377691D01*
X156950000Y-95356250D01*
X156950000Y-94843750D01*
X156951053Y-94822309D01*
X156954203Y-94801074D01*
X156959419Y-94780250D01*
X156966651Y-94760038D01*
X156975830Y-94740632D01*
X156986866Y-94722219D01*
X156999654Y-94704976D01*
X157014070Y-94689070D01*
X157029976Y-94674654D01*
X157047219Y-94661866D01*
X157065632Y-94650830D01*
X157085038Y-94641651D01*
X157105250Y-94634419D01*
X157126074Y-94629203D01*
X157147309Y-94626053D01*
X157168750Y-94625000D01*
X157606250Y-94625000D01*
X157627691Y-94626053D01*
X157627691Y-94626053D01*
G37*
D16*
X157387500Y-95100000D03*
D15*
G36*
X156052691Y-94626053D02*
G01*
X156073926Y-94629203D01*
X156094750Y-94634419D01*
X156114962Y-94641651D01*
X156134368Y-94650830D01*
X156152781Y-94661866D01*
X156170024Y-94674654D01*
X156185930Y-94689070D01*
X156200346Y-94704976D01*
X156213134Y-94722219D01*
X156224170Y-94740632D01*
X156233349Y-94760038D01*
X156240581Y-94780250D01*
X156245797Y-94801074D01*
X156248947Y-94822309D01*
X156250000Y-94843750D01*
X156250000Y-95356250D01*
X156248947Y-95377691D01*
X156245797Y-95398926D01*
X156240581Y-95419750D01*
X156233349Y-95439962D01*
X156224170Y-95459368D01*
X156213134Y-95477781D01*
X156200346Y-95495024D01*
X156185930Y-95510930D01*
X156170024Y-95525346D01*
X156152781Y-95538134D01*
X156134368Y-95549170D01*
X156114962Y-95558349D01*
X156094750Y-95565581D01*
X156073926Y-95570797D01*
X156052691Y-95573947D01*
X156031250Y-95575000D01*
X155593750Y-95575000D01*
X155572309Y-95573947D01*
X155551074Y-95570797D01*
X155530250Y-95565581D01*
X155510038Y-95558349D01*
X155490632Y-95549170D01*
X155472219Y-95538134D01*
X155454976Y-95525346D01*
X155439070Y-95510930D01*
X155424654Y-95495024D01*
X155411866Y-95477781D01*
X155400830Y-95459368D01*
X155391651Y-95439962D01*
X155384419Y-95419750D01*
X155379203Y-95398926D01*
X155376053Y-95377691D01*
X155375000Y-95356250D01*
X155375000Y-94843750D01*
X155376053Y-94822309D01*
X155379203Y-94801074D01*
X155384419Y-94780250D01*
X155391651Y-94760038D01*
X155400830Y-94740632D01*
X155411866Y-94722219D01*
X155424654Y-94704976D01*
X155439070Y-94689070D01*
X155454976Y-94674654D01*
X155472219Y-94661866D01*
X155490632Y-94650830D01*
X155510038Y-94641651D01*
X155530250Y-94634419D01*
X155551074Y-94629203D01*
X155572309Y-94626053D01*
X155593750Y-94625000D01*
X156031250Y-94625000D01*
X156052691Y-94626053D01*
X156052691Y-94626053D01*
G37*
D16*
X155812500Y-95100000D03*
D15*
G36*
X156052691Y-96326053D02*
G01*
X156073926Y-96329203D01*
X156094750Y-96334419D01*
X156114962Y-96341651D01*
X156134368Y-96350830D01*
X156152781Y-96361866D01*
X156170024Y-96374654D01*
X156185930Y-96389070D01*
X156200346Y-96404976D01*
X156213134Y-96422219D01*
X156224170Y-96440632D01*
X156233349Y-96460038D01*
X156240581Y-96480250D01*
X156245797Y-96501074D01*
X156248947Y-96522309D01*
X156250000Y-96543750D01*
X156250000Y-97056250D01*
X156248947Y-97077691D01*
X156245797Y-97098926D01*
X156240581Y-97119750D01*
X156233349Y-97139962D01*
X156224170Y-97159368D01*
X156213134Y-97177781D01*
X156200346Y-97195024D01*
X156185930Y-97210930D01*
X156170024Y-97225346D01*
X156152781Y-97238134D01*
X156134368Y-97249170D01*
X156114962Y-97258349D01*
X156094750Y-97265581D01*
X156073926Y-97270797D01*
X156052691Y-97273947D01*
X156031250Y-97275000D01*
X155593750Y-97275000D01*
X155572309Y-97273947D01*
X155551074Y-97270797D01*
X155530250Y-97265581D01*
X155510038Y-97258349D01*
X155490632Y-97249170D01*
X155472219Y-97238134D01*
X155454976Y-97225346D01*
X155439070Y-97210930D01*
X155424654Y-97195024D01*
X155411866Y-97177781D01*
X155400830Y-97159368D01*
X155391651Y-97139962D01*
X155384419Y-97119750D01*
X155379203Y-97098926D01*
X155376053Y-97077691D01*
X155375000Y-97056250D01*
X155375000Y-96543750D01*
X155376053Y-96522309D01*
X155379203Y-96501074D01*
X155384419Y-96480250D01*
X155391651Y-96460038D01*
X155400830Y-96440632D01*
X155411866Y-96422219D01*
X155424654Y-96404976D01*
X155439070Y-96389070D01*
X155454976Y-96374654D01*
X155472219Y-96361866D01*
X155490632Y-96350830D01*
X155510038Y-96341651D01*
X155530250Y-96334419D01*
X155551074Y-96329203D01*
X155572309Y-96326053D01*
X155593750Y-96325000D01*
X156031250Y-96325000D01*
X156052691Y-96326053D01*
X156052691Y-96326053D01*
G37*
D16*
X155812500Y-96800000D03*
D15*
G36*
X157627691Y-96326053D02*
G01*
X157648926Y-96329203D01*
X157669750Y-96334419D01*
X157689962Y-96341651D01*
X157709368Y-96350830D01*
X157727781Y-96361866D01*
X157745024Y-96374654D01*
X157760930Y-96389070D01*
X157775346Y-96404976D01*
X157788134Y-96422219D01*
X157799170Y-96440632D01*
X157808349Y-96460038D01*
X157815581Y-96480250D01*
X157820797Y-96501074D01*
X157823947Y-96522309D01*
X157825000Y-96543750D01*
X157825000Y-97056250D01*
X157823947Y-97077691D01*
X157820797Y-97098926D01*
X157815581Y-97119750D01*
X157808349Y-97139962D01*
X157799170Y-97159368D01*
X157788134Y-97177781D01*
X157775346Y-97195024D01*
X157760930Y-97210930D01*
X157745024Y-97225346D01*
X157727781Y-97238134D01*
X157709368Y-97249170D01*
X157689962Y-97258349D01*
X157669750Y-97265581D01*
X157648926Y-97270797D01*
X157627691Y-97273947D01*
X157606250Y-97275000D01*
X157168750Y-97275000D01*
X157147309Y-97273947D01*
X157126074Y-97270797D01*
X157105250Y-97265581D01*
X157085038Y-97258349D01*
X157065632Y-97249170D01*
X157047219Y-97238134D01*
X157029976Y-97225346D01*
X157014070Y-97210930D01*
X156999654Y-97195024D01*
X156986866Y-97177781D01*
X156975830Y-97159368D01*
X156966651Y-97139962D01*
X156959419Y-97119750D01*
X156954203Y-97098926D01*
X156951053Y-97077691D01*
X156950000Y-97056250D01*
X156950000Y-96543750D01*
X156951053Y-96522309D01*
X156954203Y-96501074D01*
X156959419Y-96480250D01*
X156966651Y-96460038D01*
X156975830Y-96440632D01*
X156986866Y-96422219D01*
X156999654Y-96404976D01*
X157014070Y-96389070D01*
X157029976Y-96374654D01*
X157047219Y-96361866D01*
X157065632Y-96350830D01*
X157085038Y-96341651D01*
X157105250Y-96334419D01*
X157126074Y-96329203D01*
X157147309Y-96326053D01*
X157168750Y-96325000D01*
X157606250Y-96325000D01*
X157627691Y-96326053D01*
X157627691Y-96326053D01*
G37*
D16*
X157387500Y-96800000D03*
D15*
G36*
X157452691Y-92926053D02*
G01*
X157473926Y-92929203D01*
X157494750Y-92934419D01*
X157514962Y-92941651D01*
X157534368Y-92950830D01*
X157552781Y-92961866D01*
X157570024Y-92974654D01*
X157585930Y-92989070D01*
X157600346Y-93004976D01*
X157613134Y-93022219D01*
X157624170Y-93040632D01*
X157633349Y-93060038D01*
X157640581Y-93080250D01*
X157645797Y-93101074D01*
X157648947Y-93122309D01*
X157650000Y-93143750D01*
X157650000Y-93656250D01*
X157648947Y-93677691D01*
X157645797Y-93698926D01*
X157640581Y-93719750D01*
X157633349Y-93739962D01*
X157624170Y-93759368D01*
X157613134Y-93777781D01*
X157600346Y-93795024D01*
X157585930Y-93810930D01*
X157570024Y-93825346D01*
X157552781Y-93838134D01*
X157534368Y-93849170D01*
X157514962Y-93858349D01*
X157494750Y-93865581D01*
X157473926Y-93870797D01*
X157452691Y-93873947D01*
X157431250Y-93875000D01*
X156993750Y-93875000D01*
X156972309Y-93873947D01*
X156951074Y-93870797D01*
X156930250Y-93865581D01*
X156910038Y-93858349D01*
X156890632Y-93849170D01*
X156872219Y-93838134D01*
X156854976Y-93825346D01*
X156839070Y-93810930D01*
X156824654Y-93795024D01*
X156811866Y-93777781D01*
X156800830Y-93759368D01*
X156791651Y-93739962D01*
X156784419Y-93719750D01*
X156779203Y-93698926D01*
X156776053Y-93677691D01*
X156775000Y-93656250D01*
X156775000Y-93143750D01*
X156776053Y-93122309D01*
X156779203Y-93101074D01*
X156784419Y-93080250D01*
X156791651Y-93060038D01*
X156800830Y-93040632D01*
X156811866Y-93022219D01*
X156824654Y-93004976D01*
X156839070Y-92989070D01*
X156854976Y-92974654D01*
X156872219Y-92961866D01*
X156890632Y-92950830D01*
X156910038Y-92941651D01*
X156930250Y-92934419D01*
X156951074Y-92929203D01*
X156972309Y-92926053D01*
X156993750Y-92925000D01*
X157431250Y-92925000D01*
X157452691Y-92926053D01*
X157452691Y-92926053D01*
G37*
D16*
X157212500Y-93400000D03*
D15*
G36*
X159027691Y-92926053D02*
G01*
X159048926Y-92929203D01*
X159069750Y-92934419D01*
X159089962Y-92941651D01*
X159109368Y-92950830D01*
X159127781Y-92961866D01*
X159145024Y-92974654D01*
X159160930Y-92989070D01*
X159175346Y-93004976D01*
X159188134Y-93022219D01*
X159199170Y-93040632D01*
X159208349Y-93060038D01*
X159215581Y-93080250D01*
X159220797Y-93101074D01*
X159223947Y-93122309D01*
X159225000Y-93143750D01*
X159225000Y-93656250D01*
X159223947Y-93677691D01*
X159220797Y-93698926D01*
X159215581Y-93719750D01*
X159208349Y-93739962D01*
X159199170Y-93759368D01*
X159188134Y-93777781D01*
X159175346Y-93795024D01*
X159160930Y-93810930D01*
X159145024Y-93825346D01*
X159127781Y-93838134D01*
X159109368Y-93849170D01*
X159089962Y-93858349D01*
X159069750Y-93865581D01*
X159048926Y-93870797D01*
X159027691Y-93873947D01*
X159006250Y-93875000D01*
X158568750Y-93875000D01*
X158547309Y-93873947D01*
X158526074Y-93870797D01*
X158505250Y-93865581D01*
X158485038Y-93858349D01*
X158465632Y-93849170D01*
X158447219Y-93838134D01*
X158429976Y-93825346D01*
X158414070Y-93810930D01*
X158399654Y-93795024D01*
X158386866Y-93777781D01*
X158375830Y-93759368D01*
X158366651Y-93739962D01*
X158359419Y-93719750D01*
X158354203Y-93698926D01*
X158351053Y-93677691D01*
X158350000Y-93656250D01*
X158350000Y-93143750D01*
X158351053Y-93122309D01*
X158354203Y-93101074D01*
X158359419Y-93080250D01*
X158366651Y-93060038D01*
X158375830Y-93040632D01*
X158386866Y-93022219D01*
X158399654Y-93004976D01*
X158414070Y-92989070D01*
X158429976Y-92974654D01*
X158447219Y-92961866D01*
X158465632Y-92950830D01*
X158485038Y-92941651D01*
X158505250Y-92934419D01*
X158526074Y-92929203D01*
X158547309Y-92926053D01*
X158568750Y-92925000D01*
X159006250Y-92925000D01*
X159027691Y-92926053D01*
X159027691Y-92926053D01*
G37*
D16*
X158787500Y-93400000D03*
D15*
G36*
X137077691Y-106976053D02*
G01*
X137098926Y-106979203D01*
X137119750Y-106984419D01*
X137139962Y-106991651D01*
X137159368Y-107000830D01*
X137177781Y-107011866D01*
X137195024Y-107024654D01*
X137210930Y-107039070D01*
X137225346Y-107054976D01*
X137238134Y-107072219D01*
X137249170Y-107090632D01*
X137258349Y-107110038D01*
X137265581Y-107130250D01*
X137270797Y-107151074D01*
X137273947Y-107172309D01*
X137275000Y-107193750D01*
X137275000Y-107631250D01*
X137273947Y-107652691D01*
X137270797Y-107673926D01*
X137265581Y-107694750D01*
X137258349Y-107714962D01*
X137249170Y-107734368D01*
X137238134Y-107752781D01*
X137225346Y-107770024D01*
X137210930Y-107785930D01*
X137195024Y-107800346D01*
X137177781Y-107813134D01*
X137159368Y-107824170D01*
X137139962Y-107833349D01*
X137119750Y-107840581D01*
X137098926Y-107845797D01*
X137077691Y-107848947D01*
X137056250Y-107850000D01*
X136543750Y-107850000D01*
X136522309Y-107848947D01*
X136501074Y-107845797D01*
X136480250Y-107840581D01*
X136460038Y-107833349D01*
X136440632Y-107824170D01*
X136422219Y-107813134D01*
X136404976Y-107800346D01*
X136389070Y-107785930D01*
X136374654Y-107770024D01*
X136361866Y-107752781D01*
X136350830Y-107734368D01*
X136341651Y-107714962D01*
X136334419Y-107694750D01*
X136329203Y-107673926D01*
X136326053Y-107652691D01*
X136325000Y-107631250D01*
X136325000Y-107193750D01*
X136326053Y-107172309D01*
X136329203Y-107151074D01*
X136334419Y-107130250D01*
X136341651Y-107110038D01*
X136350830Y-107090632D01*
X136361866Y-107072219D01*
X136374654Y-107054976D01*
X136389070Y-107039070D01*
X136404976Y-107024654D01*
X136422219Y-107011866D01*
X136440632Y-107000830D01*
X136460038Y-106991651D01*
X136480250Y-106984419D01*
X136501074Y-106979203D01*
X136522309Y-106976053D01*
X136543750Y-106975000D01*
X137056250Y-106975000D01*
X137077691Y-106976053D01*
X137077691Y-106976053D01*
G37*
D16*
X136800000Y-107412500D03*
D15*
G36*
X137077691Y-108551053D02*
G01*
X137098926Y-108554203D01*
X137119750Y-108559419D01*
X137139962Y-108566651D01*
X137159368Y-108575830D01*
X137177781Y-108586866D01*
X137195024Y-108599654D01*
X137210930Y-108614070D01*
X137225346Y-108629976D01*
X137238134Y-108647219D01*
X137249170Y-108665632D01*
X137258349Y-108685038D01*
X137265581Y-108705250D01*
X137270797Y-108726074D01*
X137273947Y-108747309D01*
X137275000Y-108768750D01*
X137275000Y-109206250D01*
X137273947Y-109227691D01*
X137270797Y-109248926D01*
X137265581Y-109269750D01*
X137258349Y-109289962D01*
X137249170Y-109309368D01*
X137238134Y-109327781D01*
X137225346Y-109345024D01*
X137210930Y-109360930D01*
X137195024Y-109375346D01*
X137177781Y-109388134D01*
X137159368Y-109399170D01*
X137139962Y-109408349D01*
X137119750Y-109415581D01*
X137098926Y-109420797D01*
X137077691Y-109423947D01*
X137056250Y-109425000D01*
X136543750Y-109425000D01*
X136522309Y-109423947D01*
X136501074Y-109420797D01*
X136480250Y-109415581D01*
X136460038Y-109408349D01*
X136440632Y-109399170D01*
X136422219Y-109388134D01*
X136404976Y-109375346D01*
X136389070Y-109360930D01*
X136374654Y-109345024D01*
X136361866Y-109327781D01*
X136350830Y-109309368D01*
X136341651Y-109289962D01*
X136334419Y-109269750D01*
X136329203Y-109248926D01*
X136326053Y-109227691D01*
X136325000Y-109206250D01*
X136325000Y-108768750D01*
X136326053Y-108747309D01*
X136329203Y-108726074D01*
X136334419Y-108705250D01*
X136341651Y-108685038D01*
X136350830Y-108665632D01*
X136361866Y-108647219D01*
X136374654Y-108629976D01*
X136389070Y-108614070D01*
X136404976Y-108599654D01*
X136422219Y-108586866D01*
X136440632Y-108575830D01*
X136460038Y-108566651D01*
X136480250Y-108559419D01*
X136501074Y-108554203D01*
X136522309Y-108551053D01*
X136543750Y-108550000D01*
X137056250Y-108550000D01*
X137077691Y-108551053D01*
X137077691Y-108551053D01*
G37*
D16*
X136800000Y-108987500D03*
D17*
X157100000Y-108700000D03*
X157100000Y-105100000D03*
D18*
X133000000Y-108000000D03*
D19*
X117760000Y-108000000D03*
D20*
X131400000Y-102400000D03*
X131400000Y-100200000D03*
X133400000Y-102400000D03*
X133400000Y-100200000D03*
D21*
X163800000Y-91050000D03*
X167000000Y-91050000D03*
X163800000Y-86150000D03*
X167000000Y-86150000D03*
D22*
X148905000Y-90300000D03*
X148905000Y-86700000D03*
X147635000Y-90300000D03*
X147635000Y-86700000D03*
X146365000Y-90300000D03*
X146365000Y-86700000D03*
X145095000Y-90300000D03*
X145095000Y-86700000D03*
D23*
X161400000Y-100575000D03*
X165000000Y-100575000D03*
X161400000Y-99305000D03*
X165000000Y-99305000D03*
X161400000Y-98035000D03*
X165000000Y-98035000D03*
X161400000Y-96765000D03*
X165000000Y-96765000D03*
X161400000Y-95495000D03*
X165000000Y-95495000D03*
X161400000Y-94225000D03*
X165000000Y-94225000D03*
D22*
X141445000Y-90300000D03*
X141445000Y-86700000D03*
X140175000Y-90300000D03*
X140175000Y-86700000D03*
X138905000Y-90300000D03*
X138905000Y-86700000D03*
X137635000Y-90300000D03*
X137635000Y-86700000D03*
X136365000Y-90300000D03*
X136365000Y-86700000D03*
X135095000Y-90300000D03*
X135095000Y-86700000D03*
X133825000Y-90300000D03*
X133825000Y-86700000D03*
X132555000Y-90300000D03*
X132555000Y-86700000D03*
D15*
G36*
X133515191Y-103426053D02*
G01*
X133536426Y-103429203D01*
X133557250Y-103434419D01*
X133577462Y-103441651D01*
X133596868Y-103450830D01*
X133615281Y-103461866D01*
X133632524Y-103474654D01*
X133648430Y-103489070D01*
X133662846Y-103504976D01*
X133675634Y-103522219D01*
X133686670Y-103540632D01*
X133695849Y-103560038D01*
X133703081Y-103580250D01*
X133708297Y-103601074D01*
X133711447Y-103622309D01*
X133712500Y-103643750D01*
X133712500Y-104156250D01*
X133711447Y-104177691D01*
X133708297Y-104198926D01*
X133703081Y-104219750D01*
X133695849Y-104239962D01*
X133686670Y-104259368D01*
X133675634Y-104277781D01*
X133662846Y-104295024D01*
X133648430Y-104310930D01*
X133632524Y-104325346D01*
X133615281Y-104338134D01*
X133596868Y-104349170D01*
X133577462Y-104358349D01*
X133557250Y-104365581D01*
X133536426Y-104370797D01*
X133515191Y-104373947D01*
X133493750Y-104375000D01*
X133056250Y-104375000D01*
X133034809Y-104373947D01*
X133013574Y-104370797D01*
X132992750Y-104365581D01*
X132972538Y-104358349D01*
X132953132Y-104349170D01*
X132934719Y-104338134D01*
X132917476Y-104325346D01*
X132901570Y-104310930D01*
X132887154Y-104295024D01*
X132874366Y-104277781D01*
X132863330Y-104259368D01*
X132854151Y-104239962D01*
X132846919Y-104219750D01*
X132841703Y-104198926D01*
X132838553Y-104177691D01*
X132837500Y-104156250D01*
X132837500Y-103643750D01*
X132838553Y-103622309D01*
X132841703Y-103601074D01*
X132846919Y-103580250D01*
X132854151Y-103560038D01*
X132863330Y-103540632D01*
X132874366Y-103522219D01*
X132887154Y-103504976D01*
X132901570Y-103489070D01*
X132917476Y-103474654D01*
X132934719Y-103461866D01*
X132953132Y-103450830D01*
X132972538Y-103441651D01*
X132992750Y-103434419D01*
X133013574Y-103429203D01*
X133034809Y-103426053D01*
X133056250Y-103425000D01*
X133493750Y-103425000D01*
X133515191Y-103426053D01*
X133515191Y-103426053D01*
G37*
D16*
X133275000Y-103900000D03*
D15*
G36*
X131940191Y-103426053D02*
G01*
X131961426Y-103429203D01*
X131982250Y-103434419D01*
X132002462Y-103441651D01*
X132021868Y-103450830D01*
X132040281Y-103461866D01*
X132057524Y-103474654D01*
X132073430Y-103489070D01*
X132087846Y-103504976D01*
X132100634Y-103522219D01*
X132111670Y-103540632D01*
X132120849Y-103560038D01*
X132128081Y-103580250D01*
X132133297Y-103601074D01*
X132136447Y-103622309D01*
X132137500Y-103643750D01*
X132137500Y-104156250D01*
X132136447Y-104177691D01*
X132133297Y-104198926D01*
X132128081Y-104219750D01*
X132120849Y-104239962D01*
X132111670Y-104259368D01*
X132100634Y-104277781D01*
X132087846Y-104295024D01*
X132073430Y-104310930D01*
X132057524Y-104325346D01*
X132040281Y-104338134D01*
X132021868Y-104349170D01*
X132002462Y-104358349D01*
X131982250Y-104365581D01*
X131961426Y-104370797D01*
X131940191Y-104373947D01*
X131918750Y-104375000D01*
X131481250Y-104375000D01*
X131459809Y-104373947D01*
X131438574Y-104370797D01*
X131417750Y-104365581D01*
X131397538Y-104358349D01*
X131378132Y-104349170D01*
X131359719Y-104338134D01*
X131342476Y-104325346D01*
X131326570Y-104310930D01*
X131312154Y-104295024D01*
X131299366Y-104277781D01*
X131288330Y-104259368D01*
X131279151Y-104239962D01*
X131271919Y-104219750D01*
X131266703Y-104198926D01*
X131263553Y-104177691D01*
X131262500Y-104156250D01*
X131262500Y-103643750D01*
X131263553Y-103622309D01*
X131266703Y-103601074D01*
X131271919Y-103580250D01*
X131279151Y-103560038D01*
X131288330Y-103540632D01*
X131299366Y-103522219D01*
X131312154Y-103504976D01*
X131326570Y-103489070D01*
X131342476Y-103474654D01*
X131359719Y-103461866D01*
X131378132Y-103450830D01*
X131397538Y-103441651D01*
X131417750Y-103434419D01*
X131438574Y-103429203D01*
X131459809Y-103426053D01*
X131481250Y-103425000D01*
X131918750Y-103425000D01*
X131940191Y-103426053D01*
X131940191Y-103426053D01*
G37*
D16*
X131700000Y-103900000D03*
D15*
G36*
X156165191Y-100526053D02*
G01*
X156186426Y-100529203D01*
X156207250Y-100534419D01*
X156227462Y-100541651D01*
X156246868Y-100550830D01*
X156265281Y-100561866D01*
X156282524Y-100574654D01*
X156298430Y-100589070D01*
X156312846Y-100604976D01*
X156325634Y-100622219D01*
X156336670Y-100640632D01*
X156345849Y-100660038D01*
X156353081Y-100680250D01*
X156358297Y-100701074D01*
X156361447Y-100722309D01*
X156362500Y-100743750D01*
X156362500Y-101256250D01*
X156361447Y-101277691D01*
X156358297Y-101298926D01*
X156353081Y-101319750D01*
X156345849Y-101339962D01*
X156336670Y-101359368D01*
X156325634Y-101377781D01*
X156312846Y-101395024D01*
X156298430Y-101410930D01*
X156282524Y-101425346D01*
X156265281Y-101438134D01*
X156246868Y-101449170D01*
X156227462Y-101458349D01*
X156207250Y-101465581D01*
X156186426Y-101470797D01*
X156165191Y-101473947D01*
X156143750Y-101475000D01*
X155706250Y-101475000D01*
X155684809Y-101473947D01*
X155663574Y-101470797D01*
X155642750Y-101465581D01*
X155622538Y-101458349D01*
X155603132Y-101449170D01*
X155584719Y-101438134D01*
X155567476Y-101425346D01*
X155551570Y-101410930D01*
X155537154Y-101395024D01*
X155524366Y-101377781D01*
X155513330Y-101359368D01*
X155504151Y-101339962D01*
X155496919Y-101319750D01*
X155491703Y-101298926D01*
X155488553Y-101277691D01*
X155487500Y-101256250D01*
X155487500Y-100743750D01*
X155488553Y-100722309D01*
X155491703Y-100701074D01*
X155496919Y-100680250D01*
X155504151Y-100660038D01*
X155513330Y-100640632D01*
X155524366Y-100622219D01*
X155537154Y-100604976D01*
X155551570Y-100589070D01*
X155567476Y-100574654D01*
X155584719Y-100561866D01*
X155603132Y-100550830D01*
X155622538Y-100541651D01*
X155642750Y-100534419D01*
X155663574Y-100529203D01*
X155684809Y-100526053D01*
X155706250Y-100525000D01*
X156143750Y-100525000D01*
X156165191Y-100526053D01*
X156165191Y-100526053D01*
G37*
D16*
X155925000Y-101000000D03*
D15*
G36*
X157740191Y-100526053D02*
G01*
X157761426Y-100529203D01*
X157782250Y-100534419D01*
X157802462Y-100541651D01*
X157821868Y-100550830D01*
X157840281Y-100561866D01*
X157857524Y-100574654D01*
X157873430Y-100589070D01*
X157887846Y-100604976D01*
X157900634Y-100622219D01*
X157911670Y-100640632D01*
X157920849Y-100660038D01*
X157928081Y-100680250D01*
X157933297Y-100701074D01*
X157936447Y-100722309D01*
X157937500Y-100743750D01*
X157937500Y-101256250D01*
X157936447Y-101277691D01*
X157933297Y-101298926D01*
X157928081Y-101319750D01*
X157920849Y-101339962D01*
X157911670Y-101359368D01*
X157900634Y-101377781D01*
X157887846Y-101395024D01*
X157873430Y-101410930D01*
X157857524Y-101425346D01*
X157840281Y-101438134D01*
X157821868Y-101449170D01*
X157802462Y-101458349D01*
X157782250Y-101465581D01*
X157761426Y-101470797D01*
X157740191Y-101473947D01*
X157718750Y-101475000D01*
X157281250Y-101475000D01*
X157259809Y-101473947D01*
X157238574Y-101470797D01*
X157217750Y-101465581D01*
X157197538Y-101458349D01*
X157178132Y-101449170D01*
X157159719Y-101438134D01*
X157142476Y-101425346D01*
X157126570Y-101410930D01*
X157112154Y-101395024D01*
X157099366Y-101377781D01*
X157088330Y-101359368D01*
X157079151Y-101339962D01*
X157071919Y-101319750D01*
X157066703Y-101298926D01*
X157063553Y-101277691D01*
X157062500Y-101256250D01*
X157062500Y-100743750D01*
X157063553Y-100722309D01*
X157066703Y-100701074D01*
X157071919Y-100680250D01*
X157079151Y-100660038D01*
X157088330Y-100640632D01*
X157099366Y-100622219D01*
X157112154Y-100604976D01*
X157126570Y-100589070D01*
X157142476Y-100574654D01*
X157159719Y-100561866D01*
X157178132Y-100550830D01*
X157197538Y-100541651D01*
X157217750Y-100534419D01*
X157238574Y-100529203D01*
X157259809Y-100526053D01*
X157281250Y-100525000D01*
X157718750Y-100525000D01*
X157740191Y-100526053D01*
X157740191Y-100526053D01*
G37*
D16*
X157500000Y-101000000D03*
D24*
X164700000Y-103100000D03*
X164700000Y-109400000D03*
X160900000Y-103100000D03*
X160900000Y-109400000D03*
D15*
G36*
X167874324Y-107701205D02*
G01*
X167898612Y-107704808D01*
X167922429Y-107710774D01*
X167945547Y-107719045D01*
X167967743Y-107729543D01*
X167988804Y-107742166D01*
X168008525Y-107756793D01*
X168026718Y-107773282D01*
X168043207Y-107791475D01*
X168057834Y-107811196D01*
X168070457Y-107832257D01*
X168080955Y-107854453D01*
X168089226Y-107877571D01*
X168095192Y-107901388D01*
X168098795Y-107925676D01*
X168100000Y-107950200D01*
X168100000Y-109249800D01*
X168098795Y-109274324D01*
X168095192Y-109298612D01*
X168089226Y-109322429D01*
X168080955Y-109345547D01*
X168070457Y-109367743D01*
X168057834Y-109388804D01*
X168043207Y-109408525D01*
X168026718Y-109426718D01*
X168008525Y-109443207D01*
X167988804Y-109457834D01*
X167967743Y-109470457D01*
X167945547Y-109480955D01*
X167922429Y-109489226D01*
X167898612Y-109495192D01*
X167874324Y-109498795D01*
X167849800Y-109500000D01*
X166550200Y-109500000D01*
X166525676Y-109498795D01*
X166501388Y-109495192D01*
X166477571Y-109489226D01*
X166454453Y-109480955D01*
X166432257Y-109470457D01*
X166411196Y-109457834D01*
X166391475Y-109443207D01*
X166373282Y-109426718D01*
X166356793Y-109408525D01*
X166342166Y-109388804D01*
X166329543Y-109367743D01*
X166319045Y-109345547D01*
X166310774Y-109322429D01*
X166304808Y-109298612D01*
X166301205Y-109274324D01*
X166300000Y-109249800D01*
X166300000Y-107950200D01*
X166301205Y-107925676D01*
X166304808Y-107901388D01*
X166310774Y-107877571D01*
X166319045Y-107854453D01*
X166329543Y-107832257D01*
X166342166Y-107811196D01*
X166356793Y-107791475D01*
X166373282Y-107773282D01*
X166391475Y-107756793D01*
X166411196Y-107742166D01*
X166432257Y-107729543D01*
X166454453Y-107719045D01*
X166477571Y-107710774D01*
X166501388Y-107704808D01*
X166525676Y-107701205D01*
X166550200Y-107700000D01*
X167849800Y-107700000D01*
X167874324Y-107701205D01*
X167874324Y-107701205D01*
G37*
D25*
X167200000Y-108600000D03*
X167200000Y-106060000D03*
X167200000Y-103520000D03*
D22*
X152555000Y-86700000D03*
X152555000Y-90300000D03*
X153825000Y-86700000D03*
X153825000Y-90300000D03*
X155095000Y-86700000D03*
X155095000Y-90300000D03*
X156365000Y-86700000D03*
X156365000Y-90300000D03*
X157635000Y-86700000D03*
X157635000Y-90300000D03*
X158905000Y-86700000D03*
X158905000Y-90300000D03*
X160175000Y-86700000D03*
X160175000Y-90300000D03*
X161445000Y-86700000D03*
X161445000Y-90300000D03*
D26*
X112000000Y-109500000D03*
D27*
X112000000Y-106960000D03*
D17*
X123500000Y-90300000D03*
X123500000Y-86700000D03*
X128500000Y-90300000D03*
X128500000Y-86700000D03*
D28*
X141555000Y-108850000D03*
X137900000Y-109400000D03*
X130200000Y-106500000D03*
X141275144Y-102350021D03*
X157100000Y-108700000D03*
D29*
X111700000Y-96400000D03*
X122800000Y-106600000D03*
X115000000Y-109000000D03*
X132500000Y-86700000D03*
X135100000Y-85200000D03*
X119400000Y-94300000D03*
X118400000Y-94300000D03*
X117500000Y-94300000D03*
X116600000Y-94300000D03*
X125400000Y-99000000D03*
X124150000Y-99000000D03*
X122900000Y-99000000D03*
X118400000Y-95300000D03*
X117500000Y-95300000D03*
X119400000Y-95300000D03*
X116600000Y-95300000D03*
X117500000Y-97300000D03*
X119400000Y-97300000D03*
X118400000Y-96300000D03*
X117500000Y-96300000D03*
X119400000Y-96300000D03*
X116600000Y-97300000D03*
X116600000Y-96300000D03*
X118400000Y-97300000D03*
X114635000Y-85800000D03*
X128120000Y-88400000D03*
X128120000Y-93400000D03*
X119400000Y-97300000D03*
X119500000Y-98700000D03*
X126800000Y-96300000D03*
X139400000Y-108100000D03*
X139400000Y-109200000D03*
X145095000Y-86700000D03*
X140600000Y-96000000D03*
X139900000Y-96000000D03*
X144200000Y-92100000D03*
X149175000Y-108850000D03*
X151715000Y-108850000D03*
X151715000Y-95150000D03*
X151300000Y-93000000D03*
X150787500Y-106800000D03*
X134287500Y-103100000D03*
X152555000Y-90300000D03*
X149223368Y-95733270D03*
X147400000Y-101500000D03*
X163800000Y-91050000D03*
X140775021Y-99122975D03*
X165000000Y-100575000D03*
X147975000Y-102900000D03*
X157100000Y-105100000D03*
X157387500Y-96800000D03*
X157400000Y-95100000D03*
X158787500Y-93400000D03*
X134287500Y-104900000D03*
X157000000Y-104200000D03*
X156100000Y-106000000D03*
X134874990Y-95497468D03*
X113900000Y-92675000D03*
X166825000Y-99887500D03*
X150125000Y-86100000D03*
X156925000Y-91850000D03*
X165675000Y-90325000D03*
X165275000Y-85200000D03*
X158900000Y-88475000D03*
X162450000Y-108325000D03*
X158925000Y-100975000D03*
X160250000Y-88450000D03*
X127150000Y-95275000D03*
D28*
X130600000Y-95800000D03*
X143400000Y-85900000D03*
X132600000Y-89800000D03*
D29*
X142873135Y-106498454D03*
X135700000Y-107300000D03*
D28*
X142600000Y-102000000D03*
D29*
X136999837Y-100995883D03*
X127600000Y-96200000D03*
X128400000Y-96200000D03*
X129100000Y-102700000D03*
X128000000Y-102700000D03*
X127000000Y-102700000D03*
X135100000Y-90300000D03*
X112095000Y-91200000D03*
X121905000Y-85800000D03*
X127000000Y-85100000D03*
X126900000Y-90600000D03*
X134120000Y-92000000D03*
X133800000Y-88524989D03*
X129100000Y-103600000D03*
X127000000Y-103600000D03*
X128000000Y-103600000D03*
X148905000Y-90300000D03*
X144000000Y-90900000D03*
X150700000Y-93774998D03*
X146700000Y-101800000D03*
X132519166Y-102844398D03*
X161445000Y-90300000D03*
X142330201Y-97475010D03*
X144535730Y-100333924D03*
X167000000Y-86150000D03*
X161400000Y-100575000D03*
X146400000Y-102900000D03*
X155812500Y-96800000D03*
X155825000Y-95100000D03*
X157212500Y-93400000D03*
X132712500Y-104900000D03*
X152500000Y-103900000D03*
X153300000Y-106000000D03*
X147700000Y-85625000D03*
X166900000Y-95900000D03*
X162775000Y-85250000D03*
X160475000Y-104650000D03*
X147300000Y-107000000D03*
X150500000Y-89000000D03*
X164000000Y-92400000D03*
D28*
X135600000Y-102300000D03*
X138200000Y-86800010D03*
D29*
X138949978Y-99349284D03*
X138500000Y-98700000D03*
X147905000Y-95150000D03*
X147334827Y-93865173D03*
X151200000Y-90900000D03*
X150490904Y-91478751D03*
X144000000Y-89800000D03*
X153093387Y-92593409D03*
X151900000Y-97500000D03*
X144800000Y-88724979D03*
X154270243Y-94760102D03*
X158025000Y-88525000D03*
X149400000Y-102900000D03*
X163000000Y-102000000D03*
X161225000Y-88425000D03*
X149200000Y-101600000D03*
X161900000Y-101500000D03*
X160975000Y-84575000D03*
X142500000Y-93774998D03*
X147800000Y-88075002D03*
X142376234Y-90310768D03*
X143950011Y-93513112D03*
X145200000Y-93100000D03*
X146484827Y-93815173D03*
X144824990Y-98200000D03*
X143640856Y-88628799D03*
X144948960Y-92308078D03*
X154600000Y-100200000D03*
X164900000Y-99300000D03*
X153600000Y-99800000D03*
X164900000Y-98000000D03*
X154800000Y-99200000D03*
X163675010Y-96330265D03*
X154300000Y-98700000D03*
X164900000Y-95500000D03*
X154600000Y-98100000D03*
X163192478Y-93179274D03*
X130900000Y-90600000D03*
X130900000Y-85600000D03*
X138075010Y-93057781D03*
X133900000Y-85100000D03*
D28*
X122500000Y-104000000D03*
D29*
X159583660Y-103580860D03*
X156100000Y-101800000D03*
X139300000Y-98200000D03*
X151822678Y-101375010D03*
X152900000Y-94700000D03*
X154600000Y-106100000D03*
X148600000Y-100700000D03*
X140900000Y-92000000D03*
X154600000Y-103300000D03*
X122600000Y-95600000D03*
X123686389Y-89473186D03*
X121300000Y-87700000D03*
X119300000Y-89300000D03*
X133000000Y-93800000D03*
X137095778Y-98098424D03*
X132500000Y-97300000D03*
X137051654Y-99097129D03*
D30*
X136800000Y-108987500D02*
X137487500Y-108987500D01*
X137487500Y-108987500D02*
X137900000Y-109400000D01*
X130750000Y-100200000D02*
X130300000Y-100650000D01*
X131400000Y-100200000D02*
X130750000Y-100200000D01*
X130300000Y-106400000D02*
X130200000Y-106500000D01*
X130300000Y-100650000D02*
X130300000Y-106400000D01*
X141275144Y-99666489D02*
X141275144Y-101784336D01*
X141555000Y-98320133D02*
X141740249Y-98505382D01*
X141740249Y-98505382D02*
X141740249Y-99201384D01*
X141555000Y-95150000D02*
X141555000Y-98320133D01*
X141275144Y-101784336D02*
X141275144Y-102350021D01*
X141740249Y-99201384D02*
X141275144Y-99666489D01*
D15*
X135100000Y-86695000D02*
X135095000Y-86700000D01*
X135100000Y-85200000D02*
X135100000Y-86695000D01*
X128120000Y-89920000D02*
X128500000Y-90300000D01*
X128120000Y-88400000D02*
X128120000Y-89920000D01*
X139400000Y-108415000D02*
X139400000Y-108100000D01*
X139835000Y-108850000D02*
X139400000Y-108415000D01*
X140285000Y-108850000D02*
X139835000Y-108850000D01*
X139799999Y-108800001D02*
X140235001Y-108800001D01*
X140235001Y-108800001D02*
X140285000Y-108850000D01*
X139400000Y-109200000D02*
X139799999Y-108800001D01*
X138712500Y-107412500D02*
X139400000Y-108100000D01*
X136800000Y-107412500D02*
X138712500Y-107412500D01*
X149223368Y-95198368D02*
X149223368Y-95415072D01*
X149175000Y-95150000D02*
X149223368Y-95198368D01*
X149223368Y-95415072D02*
X149223368Y-95733270D01*
X156765000Y-91850000D02*
X156925000Y-91850000D01*
X156365000Y-91450000D02*
X156765000Y-91850000D01*
X156365000Y-90300000D02*
X156365000Y-91450000D01*
X157635000Y-90975000D02*
X157625000Y-90985000D01*
X157635000Y-90300000D02*
X157635000Y-90975000D01*
X157625000Y-91150000D02*
X156925000Y-91850000D01*
X157625000Y-90985000D02*
X157625000Y-91150000D01*
X161445000Y-86025000D02*
X162595000Y-84875000D01*
X161445000Y-86700000D02*
X161445000Y-86025000D01*
X164950000Y-84875000D02*
X165275000Y-85200000D01*
X162595000Y-84875000D02*
X164950000Y-84875000D01*
X157500000Y-101000000D02*
X158900000Y-101000000D01*
X158900000Y-101000000D02*
X158925000Y-100975000D01*
D30*
X130700000Y-96700000D02*
X130700000Y-95500000D01*
X130100000Y-97300000D02*
X130700000Y-96700000D01*
X124150000Y-97300000D02*
X130100000Y-97300000D01*
X130700000Y-95500000D02*
X130700000Y-94300000D01*
X132555000Y-92445000D02*
X132555000Y-90300000D01*
X130700000Y-94300000D02*
X132555000Y-92445000D01*
X143799999Y-85500001D02*
X143400000Y-85900000D01*
X158905000Y-86700000D02*
X158905000Y-85250000D01*
X144450011Y-84849989D02*
X143799999Y-85500001D01*
X151372178Y-84849989D02*
X144450011Y-84849989D01*
X158905000Y-85250000D02*
X158304989Y-84649989D01*
X151572178Y-84649989D02*
X151372178Y-84849989D01*
X158304989Y-84649989D02*
X151572178Y-84649989D01*
X129000000Y-95500000D02*
X130700000Y-95500000D01*
X123050000Y-94100000D02*
X127600000Y-94100000D01*
X117700000Y-88750000D02*
X123050000Y-94100000D01*
X127600000Y-94100000D02*
X129000000Y-95500000D01*
X117700000Y-88400000D02*
X117700000Y-88750000D01*
D15*
X144095000Y-108850000D02*
X144095000Y-107720319D01*
X144095000Y-107720319D02*
X143098134Y-106723453D01*
X143098134Y-106723453D02*
X142873135Y-106498454D01*
D30*
X133275000Y-103900000D02*
X134560502Y-103900000D01*
X134560502Y-103900000D02*
X135700000Y-105039498D01*
X135700000Y-106981802D02*
X135700000Y-107300000D01*
X135700000Y-105039498D02*
X135700000Y-106981802D01*
X136774838Y-100770884D02*
X136999837Y-100995883D01*
X136203954Y-100200000D02*
X136774838Y-100770884D01*
X133400000Y-100200000D02*
X136203954Y-100200000D01*
X144095000Y-99701652D02*
X144095000Y-96400000D01*
X142600000Y-101196652D02*
X144095000Y-99701652D01*
X142600000Y-102000000D02*
X142600000Y-101196652D01*
X144095000Y-96400000D02*
X144095000Y-95150000D01*
D15*
X147635000Y-86700000D02*
X147635000Y-85690000D01*
X147635000Y-85690000D02*
X147700000Y-85625000D01*
X151355000Y-86700000D02*
X152080000Y-86700000D01*
X152080000Y-86700000D02*
X152555000Y-86700000D01*
X148905000Y-89150000D02*
X151355000Y-86700000D01*
X148905000Y-90300000D02*
X148905000Y-89150000D01*
X165120000Y-103520000D02*
X164700000Y-103100000D01*
X167200000Y-103520000D02*
X165120000Y-103520000D01*
X164700000Y-109400000D02*
X164700000Y-103100000D01*
X146715000Y-107000000D02*
X147300000Y-107000000D01*
X145365000Y-108850000D02*
X145365000Y-108350000D01*
X145365000Y-108350000D02*
X146715000Y-107000000D01*
X150500000Y-89000000D02*
X150115903Y-89384097D01*
X148214653Y-93300000D02*
X146265000Y-93300000D01*
X146265000Y-93300000D02*
X145365000Y-94200000D01*
X145365000Y-94200000D02*
X145365000Y-95150000D01*
X149800000Y-89700000D02*
X150115903Y-89384097D01*
X149800000Y-91714653D02*
X149800000Y-89700000D01*
X149800000Y-91714653D02*
X148214653Y-93300000D01*
D30*
X121450000Y-100700000D02*
X124150000Y-100700000D01*
X120800000Y-100050000D02*
X121450000Y-100700000D01*
X121900000Y-105500000D02*
X120800000Y-104400000D01*
X120800000Y-104400000D02*
X120800000Y-100050000D01*
X127867996Y-105500000D02*
X121900000Y-105500000D01*
X130367996Y-108000000D02*
X127867996Y-105500000D01*
X133000000Y-108000000D02*
X130367996Y-108000000D01*
X119500000Y-92100000D02*
X120800000Y-93400000D01*
X120800000Y-93400000D02*
X120800000Y-100050000D01*
X116150000Y-92100000D02*
X119500000Y-92100000D01*
X112450000Y-88400000D02*
X116150000Y-92100000D01*
X111300000Y-88400000D02*
X112450000Y-88400000D01*
X131400000Y-103600000D02*
X131700000Y-103900000D01*
X131400000Y-102400000D02*
X131400000Y-103600000D01*
X133119397Y-102119397D02*
X131680603Y-102119397D01*
X133400000Y-102400000D02*
X133119397Y-102119397D01*
X131680603Y-102119397D02*
X131400000Y-102400000D01*
D15*
X165050000Y-92400000D02*
X164000000Y-92400000D01*
X167000000Y-91050000D02*
X166400000Y-91050000D01*
X166400000Y-91050000D02*
X165050000Y-92400000D01*
D30*
X137635000Y-86700000D02*
X138905000Y-86700000D01*
X142825000Y-107600000D02*
X141925000Y-106700000D01*
X142825000Y-108850000D02*
X142825000Y-107600000D01*
X141925000Y-106700000D02*
X138900000Y-106700000D01*
X138900000Y-106700000D02*
X135600000Y-103400000D01*
X135600000Y-103400000D02*
X135600000Y-102300000D01*
D15*
X147585000Y-110300000D02*
X152017860Y-110300000D01*
X152017860Y-110300000D02*
X152600000Y-109717860D01*
X138949978Y-102632836D02*
X138949978Y-99667482D01*
X146635000Y-108850000D02*
X146635000Y-109350000D01*
X138949978Y-99667482D02*
X138949978Y-99349284D01*
X140517142Y-104200000D02*
X138949978Y-102632836D01*
X151600000Y-104200000D02*
X140517142Y-104200000D01*
X152600000Y-105200000D02*
X151600000Y-104200000D01*
X152600000Y-109717860D02*
X152600000Y-105200000D01*
X146635000Y-109350000D02*
X147585000Y-110300000D01*
X148605001Y-110050001D02*
X151985001Y-110050001D01*
X152300000Y-105400000D02*
X151300011Y-104400011D01*
X147905000Y-108850000D02*
X147905000Y-109350000D01*
X138569988Y-102752846D02*
X138569988Y-99214837D01*
X140217152Y-104400010D02*
X138569988Y-102752846D01*
X152300000Y-109735002D02*
X152300000Y-105400000D01*
X151300011Y-104400011D02*
X140217152Y-104400010D01*
X147905000Y-109350000D02*
X148605001Y-110050001D01*
X138569988Y-99214837D02*
X138569988Y-98896639D01*
X151985001Y-110050001D02*
X152300000Y-109735002D01*
X138569988Y-98769988D02*
X138500000Y-98700000D01*
X138569988Y-98896639D02*
X138569988Y-98769988D01*
D30*
X137635000Y-90300000D02*
X138905000Y-90300000D01*
X138905000Y-90300000D02*
X138905000Y-93300795D01*
X148245000Y-105400000D02*
X150445000Y-107600000D01*
X137774998Y-98351998D02*
X137774998Y-99048002D01*
X138905000Y-93300795D02*
X137844986Y-94360809D01*
X150445000Y-107600000D02*
X150445000Y-108850000D01*
X139700000Y-105400000D02*
X148245000Y-105400000D01*
X137844986Y-103544986D02*
X139700000Y-105400000D01*
X137844986Y-94360809D02*
X137844986Y-98282010D01*
X137774998Y-99048002D02*
X137844986Y-99117990D01*
X137844986Y-98282010D02*
X137774998Y-98351998D01*
X137844986Y-99117990D02*
X137844986Y-103544986D01*
X140175000Y-90300000D02*
X141445000Y-90300000D01*
X140175000Y-93314965D02*
X140175000Y-90300000D01*
X138800000Y-94689965D02*
X140175000Y-93314965D01*
X138800000Y-96626996D02*
X138800000Y-94689965D01*
X150445000Y-96400000D02*
X143594978Y-103250022D01*
X150445000Y-95150000D02*
X150445000Y-96400000D01*
X143594978Y-103250022D02*
X140843143Y-103250022D01*
X140050011Y-102456890D02*
X140050011Y-97877007D01*
X140843143Y-103250022D02*
X140050011Y-102456890D01*
X140050011Y-97877007D02*
X138800000Y-96626996D01*
D15*
X147334827Y-93950173D02*
X147334827Y-93865173D01*
X146635000Y-94650000D02*
X147334827Y-93950173D01*
X146635000Y-95150000D02*
X146635000Y-94650000D01*
D30*
X140175000Y-86700000D02*
X141445000Y-86700000D01*
X141445000Y-88150000D02*
X141445000Y-86700000D01*
X142774998Y-89479998D02*
X141445000Y-88150000D01*
X142825000Y-95150000D02*
X143225001Y-94749999D01*
X142774998Y-89648002D02*
X142774998Y-89479998D01*
X143225001Y-94749999D02*
X143225001Y-90098005D01*
X143225001Y-90098005D02*
X142774998Y-89648002D01*
D15*
X151200000Y-90000000D02*
X151200000Y-90900000D01*
X153825000Y-86700000D02*
X153825000Y-87375000D01*
X153825000Y-87375000D02*
X151200000Y-90000000D01*
X153825000Y-90300000D02*
X153825000Y-90975000D01*
X153825000Y-90975000D02*
X153096250Y-91703750D01*
X153096250Y-91703750D02*
X150715903Y-91703750D01*
X150715903Y-91703750D02*
X150490904Y-91478751D01*
X155095000Y-86025000D02*
X154570011Y-85500011D01*
X145590001Y-89099999D02*
X144381803Y-89099999D01*
X144381803Y-89099999D02*
X144000000Y-89481802D01*
X155095000Y-86700000D02*
X155095000Y-86025000D01*
X154570011Y-85500011D02*
X154217153Y-85500011D01*
X154217141Y-85499999D02*
X151794999Y-85499999D01*
X144000000Y-89481802D02*
X144000000Y-89800000D01*
X145690000Y-89000000D02*
X145590001Y-89099999D01*
X148600000Y-89000000D02*
X145690000Y-89000000D01*
X154217153Y-85500011D02*
X154217141Y-85499999D01*
X151609999Y-85684999D02*
X151115001Y-85684999D01*
X151794999Y-85499999D02*
X151609999Y-85684999D01*
X151115001Y-85684999D02*
X150750000Y-86050000D01*
X150750000Y-86850000D02*
X148600000Y-89000000D01*
X150750000Y-86050000D02*
X150750000Y-86850000D01*
X153411585Y-92593409D02*
X153093387Y-92593409D01*
X153476591Y-92593409D02*
X153411585Y-92593409D01*
X155095000Y-90975000D02*
X153476591Y-92593409D01*
X155095000Y-90300000D02*
X155095000Y-90975000D01*
X155620001Y-88594999D02*
X156365000Y-87850000D01*
X151900000Y-97500000D02*
X151900000Y-96414652D01*
X156365000Y-87850000D02*
X156365000Y-86700000D01*
X153400000Y-93800000D02*
X155620001Y-91579999D01*
X151900000Y-96414652D02*
X152500000Y-95814652D01*
X155620001Y-91579999D02*
X155620001Y-88594999D01*
X153400000Y-93800000D02*
X152800000Y-93800000D01*
X152800000Y-93800000D02*
X152500000Y-94100000D01*
X152500000Y-95814652D02*
X152500000Y-94100000D01*
X144800000Y-88724979D02*
X148575023Y-88724979D01*
X148575023Y-88724979D02*
X150549989Y-86750013D01*
X157635000Y-86025000D02*
X157635000Y-86700000D01*
X151812140Y-85200000D02*
X156810000Y-85200000D01*
X151556070Y-85456070D02*
X151812140Y-85200000D01*
X156810000Y-85200000D02*
X157635000Y-86025000D01*
X150986072Y-85456070D02*
X151556070Y-85456070D01*
X150549989Y-85892153D02*
X150986072Y-85456070D01*
X150549989Y-86750013D02*
X150549989Y-85892153D01*
X158905000Y-90975000D02*
X158905000Y-90300000D01*
X157549655Y-92330345D02*
X158905000Y-90975000D01*
X156700000Y-92330345D02*
X157549655Y-92330345D01*
X154270243Y-94760102D02*
X156700000Y-92330345D01*
X158905000Y-89405000D02*
X158905000Y-90300000D01*
X158025000Y-88525000D02*
X158905000Y-89405000D01*
X157300000Y-102900000D02*
X149400000Y-102900000D01*
X158199989Y-102000011D02*
X157300000Y-102900000D01*
X162399989Y-102000011D02*
X158199989Y-102000011D01*
X163000000Y-102000000D02*
X163000000Y-101300011D01*
X163000000Y-101300011D02*
X163000011Y-101300000D01*
X163000011Y-101300000D02*
X163000011Y-101399989D01*
X162400000Y-102000000D02*
X163000000Y-102000000D01*
X162399989Y-102000011D02*
X162400000Y-102000000D01*
X163000011Y-93517153D02*
X163000011Y-101300000D01*
X161225000Y-88425000D02*
X161543198Y-88425000D01*
X161543198Y-88425000D02*
X162400000Y-89281802D01*
X162400000Y-91040002D02*
X162700000Y-91340002D01*
X162400000Y-89281802D02*
X162400000Y-91040002D01*
X162700000Y-91340002D02*
X162700000Y-93217142D01*
X162700000Y-93217142D02*
X163000011Y-93517153D01*
X160175000Y-87375000D02*
X160175000Y-86700000D01*
X161225000Y-88425000D02*
X160175000Y-87375000D01*
X160175000Y-90975000D02*
X160175000Y-90300000D01*
X162800000Y-93600000D02*
X160175000Y-90975000D01*
X161600000Y-101800000D02*
X161900000Y-101500000D01*
X158000000Y-101800000D02*
X161600000Y-101800000D01*
X157300000Y-102500000D02*
X158000000Y-101800000D01*
X150100000Y-102500000D02*
X157300000Y-102500000D01*
X149200000Y-101600000D02*
X150100000Y-102500000D01*
X162500000Y-101500000D02*
X162800000Y-101200000D01*
X161900000Y-101500000D02*
X162500000Y-101500000D01*
X162800000Y-101200000D02*
X162800000Y-93600000D01*
X160175000Y-90300000D02*
X160175000Y-89625000D01*
X159649999Y-89099999D02*
X159649999Y-85325001D01*
X160175000Y-89625000D02*
X159649999Y-89099999D01*
X159649999Y-85325001D02*
X159900000Y-85075000D01*
X160793198Y-85075000D02*
X160750000Y-85075000D01*
X160975000Y-84893198D02*
X160793198Y-85075000D01*
X160975000Y-84575000D02*
X160975000Y-84893198D01*
X159900000Y-85075000D02*
X160750000Y-85075000D01*
X160750000Y-85075000D02*
X160775000Y-85075000D01*
X148905000Y-87375000D02*
X148905000Y-86700000D01*
X148204998Y-88075002D02*
X148905000Y-87375000D01*
X147800000Y-88075002D02*
X148204998Y-88075002D01*
X142500000Y-93774998D02*
X142500000Y-90434534D01*
X142500000Y-90434534D02*
X142376234Y-90310768D01*
X147635000Y-91450000D02*
X145571888Y-93513112D01*
X144268209Y-93513112D02*
X143950011Y-93513112D01*
X145571888Y-93513112D02*
X144268209Y-93513112D01*
X147635000Y-90300000D02*
X147635000Y-91450000D01*
X146365000Y-90300000D02*
X146365000Y-91935000D01*
X146365000Y-91935000D02*
X145200000Y-93100000D01*
X146484827Y-93815173D02*
X146000000Y-94300000D01*
X146000000Y-97024990D02*
X145049989Y-97975001D01*
X146000000Y-94300000D02*
X146000000Y-97024990D01*
X145049989Y-97975001D02*
X144824990Y-98200000D01*
X143919689Y-88349966D02*
X143865855Y-88403800D01*
X146365000Y-86700000D02*
X146365000Y-87375000D01*
X143865855Y-88403800D02*
X143640856Y-88628799D01*
X145390034Y-88349966D02*
X143919689Y-88349966D01*
X146365000Y-87375000D02*
X145390034Y-88349966D01*
X145095000Y-90300000D02*
X145095000Y-92162038D01*
X145095000Y-92162038D02*
X144948960Y-92308078D01*
X160250000Y-99305000D02*
X161400000Y-99305000D01*
X160245000Y-99300000D02*
X160250000Y-99305000D01*
X159800000Y-99300000D02*
X160245000Y-99300000D01*
X158900000Y-100200000D02*
X159800000Y-99300000D01*
X154600000Y-100200000D02*
X158900000Y-100200000D01*
X160300000Y-98035000D02*
X161400000Y-98035000D01*
X158535000Y-99800000D02*
X160300000Y-98035000D01*
X153600000Y-99800000D02*
X158535000Y-99800000D01*
X160300000Y-96765000D02*
X161400000Y-96765000D01*
X157865000Y-99200000D02*
X160300000Y-96765000D01*
X154800000Y-99200000D02*
X157865000Y-99200000D01*
X163675010Y-96590010D02*
X163675010Y-96330265D01*
X165000000Y-96765000D02*
X163850000Y-96765000D01*
X163850000Y-96765000D02*
X163675010Y-96590010D01*
X160725000Y-95495000D02*
X161400000Y-95495000D01*
X157520000Y-98700000D02*
X160725000Y-95495000D01*
X154300000Y-98700000D02*
X157520000Y-98700000D01*
X160250000Y-94225000D02*
X161400000Y-94225000D01*
X159875000Y-94600000D02*
X160250000Y-94225000D01*
X159875000Y-95925000D02*
X159875000Y-94600000D01*
X157700000Y-98100000D02*
X159875000Y-95925000D01*
X154600000Y-98100000D02*
X157700000Y-98100000D01*
X164325000Y-94225000D02*
X163279274Y-93179274D01*
X163279274Y-93179274D02*
X163192478Y-93179274D01*
X165000000Y-94225000D02*
X164325000Y-94225000D01*
X135639999Y-88899999D02*
X131500001Y-88899999D01*
X136365000Y-89625000D02*
X135639999Y-88899999D01*
X136365000Y-90300000D02*
X136365000Y-89625000D01*
X131500001Y-88899999D02*
X130900000Y-89500000D01*
X130900000Y-89500000D02*
X130900000Y-90600000D01*
X133980001Y-88149988D02*
X133619999Y-88149988D01*
X133619999Y-88149988D02*
X133569987Y-88200000D01*
X134030013Y-88200000D02*
X133980001Y-88149988D01*
X133569987Y-88200000D02*
X131500000Y-88200000D01*
X130900000Y-87600000D02*
X130900000Y-85918198D01*
X131500000Y-88200000D02*
X130900000Y-87600000D01*
X135540000Y-88200000D02*
X134030013Y-88200000D01*
X136365000Y-87375000D02*
X135540000Y-88200000D01*
X136365000Y-86700000D02*
X136365000Y-87375000D01*
X130900000Y-85918198D02*
X130900000Y-85600000D01*
X133825000Y-90975000D02*
X135907781Y-93057781D01*
X137756812Y-93057781D02*
X138075010Y-93057781D01*
X135907781Y-93057781D02*
X137756812Y-93057781D01*
X133825000Y-90300000D02*
X133825000Y-90975000D01*
X133825000Y-86700000D02*
X133825000Y-85175000D01*
X133825000Y-85175000D02*
X133900000Y-85100000D01*
D30*
X124150000Y-102400000D02*
X124100000Y-102400000D01*
X124100000Y-102400000D02*
X122500000Y-104000000D01*
D15*
X159814520Y-103350000D02*
X159583660Y-103580860D01*
X156100000Y-101175000D02*
X155925000Y-101000000D01*
X156100000Y-101800000D02*
X156100000Y-101175000D01*
X139324988Y-100175012D02*
X139500000Y-100000000D01*
X139324988Y-102724988D02*
X139324988Y-100175012D01*
X139500000Y-100000000D02*
X139500000Y-98400000D01*
X140500000Y-103900000D02*
X139324988Y-102724988D01*
X154825000Y-102100000D02*
X151400000Y-102100000D01*
X147400000Y-100300000D02*
X143800000Y-103900000D01*
X143800000Y-103900000D02*
X140500000Y-103900000D01*
X155925000Y-101000000D02*
X154825000Y-102100000D01*
X151400000Y-102100000D02*
X149600000Y-100300000D01*
X139500000Y-98400000D02*
X139300000Y-98200000D01*
X149600000Y-100300000D02*
X147400000Y-100300000D01*
X159964520Y-103200000D02*
X159583660Y-103580860D01*
X160064520Y-103100000D02*
X159964520Y-103200000D01*
X160900000Y-103100000D02*
X160064520Y-103100000D01*
X160900000Y-109400000D02*
X160900000Y-103100000D01*
X151822678Y-101375010D02*
X152800000Y-100397688D01*
X152900000Y-94700000D02*
X152900000Y-100297688D01*
X152900000Y-100297688D02*
X152800000Y-100397688D01*
X154600000Y-105781802D02*
X153818198Y-105000000D01*
X154600000Y-106100000D02*
X154600000Y-105781802D01*
X153818198Y-105000000D02*
X152900000Y-105000000D01*
X152900000Y-105000000D02*
X151500000Y-103600000D01*
X151500000Y-103600000D02*
X149100000Y-103600000D01*
X149100000Y-103600000D02*
X148500000Y-103000000D01*
X148500000Y-103000000D02*
X148500000Y-100800000D01*
X148500000Y-100800000D02*
X148600000Y-100700000D01*
X122500000Y-87700000D02*
X123500000Y-86700000D01*
X121300000Y-87700000D02*
X122500000Y-87700000D01*
X127600000Y-86700000D02*
X128500000Y-86700000D01*
X125800000Y-84900000D02*
X127600000Y-86700000D01*
X119300000Y-86500000D02*
X120900000Y-84900000D01*
X120900000Y-84900000D02*
X125800000Y-84900000D01*
X119300000Y-89300000D02*
X119300000Y-86500000D01*
X137095778Y-97780226D02*
X137095778Y-98098424D01*
X134970002Y-93800000D02*
X137095778Y-95925776D01*
X137095778Y-95925776D02*
X137095778Y-97780226D01*
X133000000Y-93800000D02*
X134970002Y-93800000D01*
X135254525Y-97300000D02*
X136826655Y-98872130D01*
X136826655Y-98872130D02*
X137051654Y-99097129D01*
X132500000Y-97300000D02*
X135254525Y-97300000D01*
M02*
