G04 #@! TF.GenerationSoftware,KiCad,Pcbnew,5.1.0*
G04 #@! TF.CreationDate,2019-04-01T22:05:57-06:00*
G04 #@! TF.ProjectId,minisumo-FreeRTOS,6d696e69-7375-46d6-9f2d-467265655254,rev?*
G04 #@! TF.SameCoordinates,Original*
G04 #@! TF.FileFunction,Paste,Bot*
G04 #@! TF.FilePolarity,Positive*
%FSLAX46Y46*%
G04 Gerber Fmt 4.6, Leading zero omitted, Abs format (unit mm)*
G04 Created by KiCad (PCBNEW 5.1.0) date 2019-04-01 22:05:57*
%MOMM*%
%LPD*%
G04 APERTURE LIST*
%ADD10C,0.100000*%
%ADD11C,0.875000*%
%ADD12C,1.350000*%
%ADD13R,0.850000X0.350000*%
%ADD14R,0.350000X0.800000*%
%ADD15R,2.200000X1.200000*%
%ADD16R,3.050000X2.750000*%
%ADD17R,0.700000X1.500000*%
%ADD18R,1.000000X0.800000*%
%ADD19R,3.800000X2.000000*%
%ADD20R,1.500000X2.000000*%
%ADD21C,0.250000*%
%ADD22R,1.550000X0.600000*%
%ADD23R,1.200000X1.200000*%
%ADD24R,1.500000X1.600000*%
%ADD25R,0.600000X1.550000*%
G04 APERTURE END LIST*
D10*
G36*
X167102691Y-101026053D02*
G01*
X167123926Y-101029203D01*
X167144750Y-101034419D01*
X167164962Y-101041651D01*
X167184368Y-101050830D01*
X167202781Y-101061866D01*
X167220024Y-101074654D01*
X167235930Y-101089070D01*
X167250346Y-101104976D01*
X167263134Y-101122219D01*
X167274170Y-101140632D01*
X167283349Y-101160038D01*
X167290581Y-101180250D01*
X167295797Y-101201074D01*
X167298947Y-101222309D01*
X167300000Y-101243750D01*
X167300000Y-101681250D01*
X167298947Y-101702691D01*
X167295797Y-101723926D01*
X167290581Y-101744750D01*
X167283349Y-101764962D01*
X167274170Y-101784368D01*
X167263134Y-101802781D01*
X167250346Y-101820024D01*
X167235930Y-101835930D01*
X167220024Y-101850346D01*
X167202781Y-101863134D01*
X167184368Y-101874170D01*
X167164962Y-101883349D01*
X167144750Y-101890581D01*
X167123926Y-101895797D01*
X167102691Y-101898947D01*
X167081250Y-101900000D01*
X166568750Y-101900000D01*
X166547309Y-101898947D01*
X166526074Y-101895797D01*
X166505250Y-101890581D01*
X166485038Y-101883349D01*
X166465632Y-101874170D01*
X166447219Y-101863134D01*
X166429976Y-101850346D01*
X166414070Y-101835930D01*
X166399654Y-101820024D01*
X166386866Y-101802781D01*
X166375830Y-101784368D01*
X166366651Y-101764962D01*
X166359419Y-101744750D01*
X166354203Y-101723926D01*
X166351053Y-101702691D01*
X166350000Y-101681250D01*
X166350000Y-101243750D01*
X166351053Y-101222309D01*
X166354203Y-101201074D01*
X166359419Y-101180250D01*
X166366651Y-101160038D01*
X166375830Y-101140632D01*
X166386866Y-101122219D01*
X166399654Y-101104976D01*
X166414070Y-101089070D01*
X166429976Y-101074654D01*
X166447219Y-101061866D01*
X166465632Y-101050830D01*
X166485038Y-101041651D01*
X166505250Y-101034419D01*
X166526074Y-101029203D01*
X166547309Y-101026053D01*
X166568750Y-101025000D01*
X167081250Y-101025000D01*
X167102691Y-101026053D01*
X167102691Y-101026053D01*
G37*
D11*
X166825000Y-101462500D03*
D10*
G36*
X167102691Y-99451053D02*
G01*
X167123926Y-99454203D01*
X167144750Y-99459419D01*
X167164962Y-99466651D01*
X167184368Y-99475830D01*
X167202781Y-99486866D01*
X167220024Y-99499654D01*
X167235930Y-99514070D01*
X167250346Y-99529976D01*
X167263134Y-99547219D01*
X167274170Y-99565632D01*
X167283349Y-99585038D01*
X167290581Y-99605250D01*
X167295797Y-99626074D01*
X167298947Y-99647309D01*
X167300000Y-99668750D01*
X167300000Y-100106250D01*
X167298947Y-100127691D01*
X167295797Y-100148926D01*
X167290581Y-100169750D01*
X167283349Y-100189962D01*
X167274170Y-100209368D01*
X167263134Y-100227781D01*
X167250346Y-100245024D01*
X167235930Y-100260930D01*
X167220024Y-100275346D01*
X167202781Y-100288134D01*
X167184368Y-100299170D01*
X167164962Y-100308349D01*
X167144750Y-100315581D01*
X167123926Y-100320797D01*
X167102691Y-100323947D01*
X167081250Y-100325000D01*
X166568750Y-100325000D01*
X166547309Y-100323947D01*
X166526074Y-100320797D01*
X166505250Y-100315581D01*
X166485038Y-100308349D01*
X166465632Y-100299170D01*
X166447219Y-100288134D01*
X166429976Y-100275346D01*
X166414070Y-100260930D01*
X166399654Y-100245024D01*
X166386866Y-100227781D01*
X166375830Y-100209368D01*
X166366651Y-100189962D01*
X166359419Y-100169750D01*
X166354203Y-100148926D01*
X166351053Y-100127691D01*
X166350000Y-100106250D01*
X166350000Y-99668750D01*
X166351053Y-99647309D01*
X166354203Y-99626074D01*
X166359419Y-99605250D01*
X166366651Y-99585038D01*
X166375830Y-99565632D01*
X166386866Y-99547219D01*
X166399654Y-99529976D01*
X166414070Y-99514070D01*
X166429976Y-99499654D01*
X166447219Y-99486866D01*
X166465632Y-99475830D01*
X166485038Y-99466651D01*
X166505250Y-99459419D01*
X166526074Y-99454203D01*
X166547309Y-99451053D01*
X166568750Y-99450000D01*
X167081250Y-99450000D01*
X167102691Y-99451053D01*
X167102691Y-99451053D01*
G37*
D11*
X166825000Y-99887500D03*
D10*
G36*
X161977691Y-86276053D02*
G01*
X161998926Y-86279203D01*
X162019750Y-86284419D01*
X162039962Y-86291651D01*
X162059368Y-86300830D01*
X162077781Y-86311866D01*
X162095024Y-86324654D01*
X162110930Y-86339070D01*
X162125346Y-86354976D01*
X162138134Y-86372219D01*
X162149170Y-86390632D01*
X162158349Y-86410038D01*
X162165581Y-86430250D01*
X162170797Y-86451074D01*
X162173947Y-86472309D01*
X162175000Y-86493750D01*
X162175000Y-87006250D01*
X162173947Y-87027691D01*
X162170797Y-87048926D01*
X162165581Y-87069750D01*
X162158349Y-87089962D01*
X162149170Y-87109368D01*
X162138134Y-87127781D01*
X162125346Y-87145024D01*
X162110930Y-87160930D01*
X162095024Y-87175346D01*
X162077781Y-87188134D01*
X162059368Y-87199170D01*
X162039962Y-87208349D01*
X162019750Y-87215581D01*
X161998926Y-87220797D01*
X161977691Y-87223947D01*
X161956250Y-87225000D01*
X161518750Y-87225000D01*
X161497309Y-87223947D01*
X161476074Y-87220797D01*
X161455250Y-87215581D01*
X161435038Y-87208349D01*
X161415632Y-87199170D01*
X161397219Y-87188134D01*
X161379976Y-87175346D01*
X161364070Y-87160930D01*
X161349654Y-87145024D01*
X161336866Y-87127781D01*
X161325830Y-87109368D01*
X161316651Y-87089962D01*
X161309419Y-87069750D01*
X161304203Y-87048926D01*
X161301053Y-87027691D01*
X161300000Y-87006250D01*
X161300000Y-86493750D01*
X161301053Y-86472309D01*
X161304203Y-86451074D01*
X161309419Y-86430250D01*
X161316651Y-86410038D01*
X161325830Y-86390632D01*
X161336866Y-86372219D01*
X161349654Y-86354976D01*
X161364070Y-86339070D01*
X161379976Y-86324654D01*
X161397219Y-86311866D01*
X161415632Y-86300830D01*
X161435038Y-86291651D01*
X161455250Y-86284419D01*
X161476074Y-86279203D01*
X161497309Y-86276053D01*
X161518750Y-86275000D01*
X161956250Y-86275000D01*
X161977691Y-86276053D01*
X161977691Y-86276053D01*
G37*
D11*
X161737500Y-86750000D03*
D10*
G36*
X160402691Y-86276053D02*
G01*
X160423926Y-86279203D01*
X160444750Y-86284419D01*
X160464962Y-86291651D01*
X160484368Y-86300830D01*
X160502781Y-86311866D01*
X160520024Y-86324654D01*
X160535930Y-86339070D01*
X160550346Y-86354976D01*
X160563134Y-86372219D01*
X160574170Y-86390632D01*
X160583349Y-86410038D01*
X160590581Y-86430250D01*
X160595797Y-86451074D01*
X160598947Y-86472309D01*
X160600000Y-86493750D01*
X160600000Y-87006250D01*
X160598947Y-87027691D01*
X160595797Y-87048926D01*
X160590581Y-87069750D01*
X160583349Y-87089962D01*
X160574170Y-87109368D01*
X160563134Y-87127781D01*
X160550346Y-87145024D01*
X160535930Y-87160930D01*
X160520024Y-87175346D01*
X160502781Y-87188134D01*
X160484368Y-87199170D01*
X160464962Y-87208349D01*
X160444750Y-87215581D01*
X160423926Y-87220797D01*
X160402691Y-87223947D01*
X160381250Y-87225000D01*
X159943750Y-87225000D01*
X159922309Y-87223947D01*
X159901074Y-87220797D01*
X159880250Y-87215581D01*
X159860038Y-87208349D01*
X159840632Y-87199170D01*
X159822219Y-87188134D01*
X159804976Y-87175346D01*
X159789070Y-87160930D01*
X159774654Y-87145024D01*
X159761866Y-87127781D01*
X159750830Y-87109368D01*
X159741651Y-87089962D01*
X159734419Y-87069750D01*
X159729203Y-87048926D01*
X159726053Y-87027691D01*
X159725000Y-87006250D01*
X159725000Y-86493750D01*
X159726053Y-86472309D01*
X159729203Y-86451074D01*
X159734419Y-86430250D01*
X159741651Y-86410038D01*
X159750830Y-86390632D01*
X159761866Y-86372219D01*
X159774654Y-86354976D01*
X159789070Y-86339070D01*
X159804976Y-86324654D01*
X159822219Y-86311866D01*
X159840632Y-86300830D01*
X159860038Y-86291651D01*
X159880250Y-86284419D01*
X159901074Y-86279203D01*
X159922309Y-86276053D01*
X159943750Y-86275000D01*
X160381250Y-86275000D01*
X160402691Y-86276053D01*
X160402691Y-86276053D01*
G37*
D11*
X160162500Y-86750000D03*
D10*
G36*
X161990191Y-84776053D02*
G01*
X162011426Y-84779203D01*
X162032250Y-84784419D01*
X162052462Y-84791651D01*
X162071868Y-84800830D01*
X162090281Y-84811866D01*
X162107524Y-84824654D01*
X162123430Y-84839070D01*
X162137846Y-84854976D01*
X162150634Y-84872219D01*
X162161670Y-84890632D01*
X162170849Y-84910038D01*
X162178081Y-84930250D01*
X162183297Y-84951074D01*
X162186447Y-84972309D01*
X162187500Y-84993750D01*
X162187500Y-85506250D01*
X162186447Y-85527691D01*
X162183297Y-85548926D01*
X162178081Y-85569750D01*
X162170849Y-85589962D01*
X162161670Y-85609368D01*
X162150634Y-85627781D01*
X162137846Y-85645024D01*
X162123430Y-85660930D01*
X162107524Y-85675346D01*
X162090281Y-85688134D01*
X162071868Y-85699170D01*
X162052462Y-85708349D01*
X162032250Y-85715581D01*
X162011426Y-85720797D01*
X161990191Y-85723947D01*
X161968750Y-85725000D01*
X161531250Y-85725000D01*
X161509809Y-85723947D01*
X161488574Y-85720797D01*
X161467750Y-85715581D01*
X161447538Y-85708349D01*
X161428132Y-85699170D01*
X161409719Y-85688134D01*
X161392476Y-85675346D01*
X161376570Y-85660930D01*
X161362154Y-85645024D01*
X161349366Y-85627781D01*
X161338330Y-85609368D01*
X161329151Y-85589962D01*
X161321919Y-85569750D01*
X161316703Y-85548926D01*
X161313553Y-85527691D01*
X161312500Y-85506250D01*
X161312500Y-84993750D01*
X161313553Y-84972309D01*
X161316703Y-84951074D01*
X161321919Y-84930250D01*
X161329151Y-84910038D01*
X161338330Y-84890632D01*
X161349366Y-84872219D01*
X161362154Y-84854976D01*
X161376570Y-84839070D01*
X161392476Y-84824654D01*
X161409719Y-84811866D01*
X161428132Y-84800830D01*
X161447538Y-84791651D01*
X161467750Y-84784419D01*
X161488574Y-84779203D01*
X161509809Y-84776053D01*
X161531250Y-84775000D01*
X161968750Y-84775000D01*
X161990191Y-84776053D01*
X161990191Y-84776053D01*
G37*
D11*
X161750000Y-85250000D03*
D10*
G36*
X160415191Y-84776053D02*
G01*
X160436426Y-84779203D01*
X160457250Y-84784419D01*
X160477462Y-84791651D01*
X160496868Y-84800830D01*
X160515281Y-84811866D01*
X160532524Y-84824654D01*
X160548430Y-84839070D01*
X160562846Y-84854976D01*
X160575634Y-84872219D01*
X160586670Y-84890632D01*
X160595849Y-84910038D01*
X160603081Y-84930250D01*
X160608297Y-84951074D01*
X160611447Y-84972309D01*
X160612500Y-84993750D01*
X160612500Y-85506250D01*
X160611447Y-85527691D01*
X160608297Y-85548926D01*
X160603081Y-85569750D01*
X160595849Y-85589962D01*
X160586670Y-85609368D01*
X160575634Y-85627781D01*
X160562846Y-85645024D01*
X160548430Y-85660930D01*
X160532524Y-85675346D01*
X160515281Y-85688134D01*
X160496868Y-85699170D01*
X160477462Y-85708349D01*
X160457250Y-85715581D01*
X160436426Y-85720797D01*
X160415191Y-85723947D01*
X160393750Y-85725000D01*
X159956250Y-85725000D01*
X159934809Y-85723947D01*
X159913574Y-85720797D01*
X159892750Y-85715581D01*
X159872538Y-85708349D01*
X159853132Y-85699170D01*
X159834719Y-85688134D01*
X159817476Y-85675346D01*
X159801570Y-85660930D01*
X159787154Y-85645024D01*
X159774366Y-85627781D01*
X159763330Y-85609368D01*
X159754151Y-85589962D01*
X159746919Y-85569750D01*
X159741703Y-85548926D01*
X159738553Y-85527691D01*
X159737500Y-85506250D01*
X159737500Y-84993750D01*
X159738553Y-84972309D01*
X159741703Y-84951074D01*
X159746919Y-84930250D01*
X159754151Y-84910038D01*
X159763330Y-84890632D01*
X159774366Y-84872219D01*
X159787154Y-84854976D01*
X159801570Y-84839070D01*
X159817476Y-84824654D01*
X159834719Y-84811866D01*
X159853132Y-84800830D01*
X159872538Y-84791651D01*
X159892750Y-84784419D01*
X159913574Y-84779203D01*
X159934809Y-84776053D01*
X159956250Y-84775000D01*
X160393750Y-84775000D01*
X160415191Y-84776053D01*
X160415191Y-84776053D01*
G37*
D11*
X160175000Y-85250000D03*
D10*
G36*
X154377691Y-90451053D02*
G01*
X154398926Y-90454203D01*
X154419750Y-90459419D01*
X154439962Y-90466651D01*
X154459368Y-90475830D01*
X154477781Y-90486866D01*
X154495024Y-90499654D01*
X154510930Y-90514070D01*
X154525346Y-90529976D01*
X154538134Y-90547219D01*
X154549170Y-90565632D01*
X154558349Y-90585038D01*
X154565581Y-90605250D01*
X154570797Y-90626074D01*
X154573947Y-90647309D01*
X154575000Y-90668750D01*
X154575000Y-91181250D01*
X154573947Y-91202691D01*
X154570797Y-91223926D01*
X154565581Y-91244750D01*
X154558349Y-91264962D01*
X154549170Y-91284368D01*
X154538134Y-91302781D01*
X154525346Y-91320024D01*
X154510930Y-91335930D01*
X154495024Y-91350346D01*
X154477781Y-91363134D01*
X154459368Y-91374170D01*
X154439962Y-91383349D01*
X154419750Y-91390581D01*
X154398926Y-91395797D01*
X154377691Y-91398947D01*
X154356250Y-91400000D01*
X153918750Y-91400000D01*
X153897309Y-91398947D01*
X153876074Y-91395797D01*
X153855250Y-91390581D01*
X153835038Y-91383349D01*
X153815632Y-91374170D01*
X153797219Y-91363134D01*
X153779976Y-91350346D01*
X153764070Y-91335930D01*
X153749654Y-91320024D01*
X153736866Y-91302781D01*
X153725830Y-91284368D01*
X153716651Y-91264962D01*
X153709419Y-91244750D01*
X153704203Y-91223926D01*
X153701053Y-91202691D01*
X153700000Y-91181250D01*
X153700000Y-90668750D01*
X153701053Y-90647309D01*
X153704203Y-90626074D01*
X153709419Y-90605250D01*
X153716651Y-90585038D01*
X153725830Y-90565632D01*
X153736866Y-90547219D01*
X153749654Y-90529976D01*
X153764070Y-90514070D01*
X153779976Y-90499654D01*
X153797219Y-90486866D01*
X153815632Y-90475830D01*
X153835038Y-90466651D01*
X153855250Y-90459419D01*
X153876074Y-90454203D01*
X153897309Y-90451053D01*
X153918750Y-90450000D01*
X154356250Y-90450000D01*
X154377691Y-90451053D01*
X154377691Y-90451053D01*
G37*
D11*
X154137500Y-90925000D03*
D10*
G36*
X155952691Y-90451053D02*
G01*
X155973926Y-90454203D01*
X155994750Y-90459419D01*
X156014962Y-90466651D01*
X156034368Y-90475830D01*
X156052781Y-90486866D01*
X156070024Y-90499654D01*
X156085930Y-90514070D01*
X156100346Y-90529976D01*
X156113134Y-90547219D01*
X156124170Y-90565632D01*
X156133349Y-90585038D01*
X156140581Y-90605250D01*
X156145797Y-90626074D01*
X156148947Y-90647309D01*
X156150000Y-90668750D01*
X156150000Y-91181250D01*
X156148947Y-91202691D01*
X156145797Y-91223926D01*
X156140581Y-91244750D01*
X156133349Y-91264962D01*
X156124170Y-91284368D01*
X156113134Y-91302781D01*
X156100346Y-91320024D01*
X156085930Y-91335930D01*
X156070024Y-91350346D01*
X156052781Y-91363134D01*
X156034368Y-91374170D01*
X156014962Y-91383349D01*
X155994750Y-91390581D01*
X155973926Y-91395797D01*
X155952691Y-91398947D01*
X155931250Y-91400000D01*
X155493750Y-91400000D01*
X155472309Y-91398947D01*
X155451074Y-91395797D01*
X155430250Y-91390581D01*
X155410038Y-91383349D01*
X155390632Y-91374170D01*
X155372219Y-91363134D01*
X155354976Y-91350346D01*
X155339070Y-91335930D01*
X155324654Y-91320024D01*
X155311866Y-91302781D01*
X155300830Y-91284368D01*
X155291651Y-91264962D01*
X155284419Y-91244750D01*
X155279203Y-91223926D01*
X155276053Y-91202691D01*
X155275000Y-91181250D01*
X155275000Y-90668750D01*
X155276053Y-90647309D01*
X155279203Y-90626074D01*
X155284419Y-90605250D01*
X155291651Y-90585038D01*
X155300830Y-90565632D01*
X155311866Y-90547219D01*
X155324654Y-90529976D01*
X155339070Y-90514070D01*
X155354976Y-90499654D01*
X155372219Y-90486866D01*
X155390632Y-90475830D01*
X155410038Y-90466651D01*
X155430250Y-90459419D01*
X155451074Y-90454203D01*
X155472309Y-90451053D01*
X155493750Y-90450000D01*
X155931250Y-90450000D01*
X155952691Y-90451053D01*
X155952691Y-90451053D01*
G37*
D11*
X155712500Y-90925000D03*
D10*
G36*
X167249505Y-88351204D02*
G01*
X167273773Y-88354804D01*
X167297572Y-88360765D01*
X167320671Y-88369030D01*
X167342850Y-88379520D01*
X167363893Y-88392132D01*
X167383599Y-88406747D01*
X167401777Y-88423223D01*
X167418253Y-88441401D01*
X167432868Y-88461107D01*
X167445480Y-88482150D01*
X167455970Y-88504329D01*
X167464235Y-88527428D01*
X167470196Y-88551227D01*
X167473796Y-88575495D01*
X167475000Y-88599999D01*
X167475000Y-89500001D01*
X167473796Y-89524505D01*
X167470196Y-89548773D01*
X167464235Y-89572572D01*
X167455970Y-89595671D01*
X167445480Y-89617850D01*
X167432868Y-89638893D01*
X167418253Y-89658599D01*
X167401777Y-89676777D01*
X167383599Y-89693253D01*
X167363893Y-89707868D01*
X167342850Y-89720480D01*
X167320671Y-89730970D01*
X167297572Y-89739235D01*
X167273773Y-89745196D01*
X167249505Y-89748796D01*
X167225001Y-89750000D01*
X166374999Y-89750000D01*
X166350495Y-89748796D01*
X166326227Y-89745196D01*
X166302428Y-89739235D01*
X166279329Y-89730970D01*
X166257150Y-89720480D01*
X166236107Y-89707868D01*
X166216401Y-89693253D01*
X166198223Y-89676777D01*
X166181747Y-89658599D01*
X166167132Y-89638893D01*
X166154520Y-89617850D01*
X166144030Y-89595671D01*
X166135765Y-89572572D01*
X166129804Y-89548773D01*
X166126204Y-89524505D01*
X166125000Y-89500001D01*
X166125000Y-88599999D01*
X166126204Y-88575495D01*
X166129804Y-88551227D01*
X166135765Y-88527428D01*
X166144030Y-88504329D01*
X166154520Y-88482150D01*
X166167132Y-88461107D01*
X166181747Y-88441401D01*
X166198223Y-88423223D01*
X166216401Y-88406747D01*
X166236107Y-88392132D01*
X166257150Y-88379520D01*
X166279329Y-88369030D01*
X166302428Y-88360765D01*
X166326227Y-88354804D01*
X166350495Y-88351204D01*
X166374999Y-88350000D01*
X167225001Y-88350000D01*
X167249505Y-88351204D01*
X167249505Y-88351204D01*
G37*
D12*
X166800000Y-89050000D03*
D10*
G36*
X167249505Y-85651204D02*
G01*
X167273773Y-85654804D01*
X167297572Y-85660765D01*
X167320671Y-85669030D01*
X167342850Y-85679520D01*
X167363893Y-85692132D01*
X167383599Y-85706747D01*
X167401777Y-85723223D01*
X167418253Y-85741401D01*
X167432868Y-85761107D01*
X167445480Y-85782150D01*
X167455970Y-85804329D01*
X167464235Y-85827428D01*
X167470196Y-85851227D01*
X167473796Y-85875495D01*
X167475000Y-85899999D01*
X167475000Y-86800001D01*
X167473796Y-86824505D01*
X167470196Y-86848773D01*
X167464235Y-86872572D01*
X167455970Y-86895671D01*
X167445480Y-86917850D01*
X167432868Y-86938893D01*
X167418253Y-86958599D01*
X167401777Y-86976777D01*
X167383599Y-86993253D01*
X167363893Y-87007868D01*
X167342850Y-87020480D01*
X167320671Y-87030970D01*
X167297572Y-87039235D01*
X167273773Y-87045196D01*
X167249505Y-87048796D01*
X167225001Y-87050000D01*
X166374999Y-87050000D01*
X166350495Y-87048796D01*
X166326227Y-87045196D01*
X166302428Y-87039235D01*
X166279329Y-87030970D01*
X166257150Y-87020480D01*
X166236107Y-87007868D01*
X166216401Y-86993253D01*
X166198223Y-86976777D01*
X166181747Y-86958599D01*
X166167132Y-86938893D01*
X166154520Y-86917850D01*
X166144030Y-86895671D01*
X166135765Y-86872572D01*
X166129804Y-86848773D01*
X166126204Y-86824505D01*
X166125000Y-86800001D01*
X166125000Y-85899999D01*
X166126204Y-85875495D01*
X166129804Y-85851227D01*
X166135765Y-85827428D01*
X166144030Y-85804329D01*
X166154520Y-85782150D01*
X166167132Y-85761107D01*
X166181747Y-85741401D01*
X166198223Y-85723223D01*
X166216401Y-85706747D01*
X166236107Y-85692132D01*
X166257150Y-85679520D01*
X166279329Y-85669030D01*
X166302428Y-85660765D01*
X166326227Y-85654804D01*
X166350495Y-85651204D01*
X166374999Y-85650000D01*
X167225001Y-85650000D01*
X167249505Y-85651204D01*
X167249505Y-85651204D01*
G37*
D12*
X166800000Y-86350000D03*
D10*
G36*
X149677691Y-84751053D02*
G01*
X149698926Y-84754203D01*
X149719750Y-84759419D01*
X149739962Y-84766651D01*
X149759368Y-84775830D01*
X149777781Y-84786866D01*
X149795024Y-84799654D01*
X149810930Y-84814070D01*
X149825346Y-84829976D01*
X149838134Y-84847219D01*
X149849170Y-84865632D01*
X149858349Y-84885038D01*
X149865581Y-84905250D01*
X149870797Y-84926074D01*
X149873947Y-84947309D01*
X149875000Y-84968750D01*
X149875000Y-85481250D01*
X149873947Y-85502691D01*
X149870797Y-85523926D01*
X149865581Y-85544750D01*
X149858349Y-85564962D01*
X149849170Y-85584368D01*
X149838134Y-85602781D01*
X149825346Y-85620024D01*
X149810930Y-85635930D01*
X149795024Y-85650346D01*
X149777781Y-85663134D01*
X149759368Y-85674170D01*
X149739962Y-85683349D01*
X149719750Y-85690581D01*
X149698926Y-85695797D01*
X149677691Y-85698947D01*
X149656250Y-85700000D01*
X149218750Y-85700000D01*
X149197309Y-85698947D01*
X149176074Y-85695797D01*
X149155250Y-85690581D01*
X149135038Y-85683349D01*
X149115632Y-85674170D01*
X149097219Y-85663134D01*
X149079976Y-85650346D01*
X149064070Y-85635930D01*
X149049654Y-85620024D01*
X149036866Y-85602781D01*
X149025830Y-85584368D01*
X149016651Y-85564962D01*
X149009419Y-85544750D01*
X149004203Y-85523926D01*
X149001053Y-85502691D01*
X149000000Y-85481250D01*
X149000000Y-84968750D01*
X149001053Y-84947309D01*
X149004203Y-84926074D01*
X149009419Y-84905250D01*
X149016651Y-84885038D01*
X149025830Y-84865632D01*
X149036866Y-84847219D01*
X149049654Y-84829976D01*
X149064070Y-84814070D01*
X149079976Y-84799654D01*
X149097219Y-84786866D01*
X149115632Y-84775830D01*
X149135038Y-84766651D01*
X149155250Y-84759419D01*
X149176074Y-84754203D01*
X149197309Y-84751053D01*
X149218750Y-84750000D01*
X149656250Y-84750000D01*
X149677691Y-84751053D01*
X149677691Y-84751053D01*
G37*
D11*
X149437500Y-85225000D03*
D10*
G36*
X151252691Y-84751053D02*
G01*
X151273926Y-84754203D01*
X151294750Y-84759419D01*
X151314962Y-84766651D01*
X151334368Y-84775830D01*
X151352781Y-84786866D01*
X151370024Y-84799654D01*
X151385930Y-84814070D01*
X151400346Y-84829976D01*
X151413134Y-84847219D01*
X151424170Y-84865632D01*
X151433349Y-84885038D01*
X151440581Y-84905250D01*
X151445797Y-84926074D01*
X151448947Y-84947309D01*
X151450000Y-84968750D01*
X151450000Y-85481250D01*
X151448947Y-85502691D01*
X151445797Y-85523926D01*
X151440581Y-85544750D01*
X151433349Y-85564962D01*
X151424170Y-85584368D01*
X151413134Y-85602781D01*
X151400346Y-85620024D01*
X151385930Y-85635930D01*
X151370024Y-85650346D01*
X151352781Y-85663134D01*
X151334368Y-85674170D01*
X151314962Y-85683349D01*
X151294750Y-85690581D01*
X151273926Y-85695797D01*
X151252691Y-85698947D01*
X151231250Y-85700000D01*
X150793750Y-85700000D01*
X150772309Y-85698947D01*
X150751074Y-85695797D01*
X150730250Y-85690581D01*
X150710038Y-85683349D01*
X150690632Y-85674170D01*
X150672219Y-85663134D01*
X150654976Y-85650346D01*
X150639070Y-85635930D01*
X150624654Y-85620024D01*
X150611866Y-85602781D01*
X150600830Y-85584368D01*
X150591651Y-85564962D01*
X150584419Y-85544750D01*
X150579203Y-85523926D01*
X150576053Y-85502691D01*
X150575000Y-85481250D01*
X150575000Y-84968750D01*
X150576053Y-84947309D01*
X150579203Y-84926074D01*
X150584419Y-84905250D01*
X150591651Y-84885038D01*
X150600830Y-84865632D01*
X150611866Y-84847219D01*
X150624654Y-84829976D01*
X150639070Y-84814070D01*
X150654976Y-84799654D01*
X150672219Y-84786866D01*
X150690632Y-84775830D01*
X150710038Y-84766651D01*
X150730250Y-84759419D01*
X150751074Y-84754203D01*
X150772309Y-84751053D01*
X150793750Y-84750000D01*
X151231250Y-84750000D01*
X151252691Y-84751053D01*
X151252691Y-84751053D01*
G37*
D11*
X151012500Y-85225000D03*
D10*
G36*
X164699505Y-85701204D02*
G01*
X164723773Y-85704804D01*
X164747572Y-85710765D01*
X164770671Y-85719030D01*
X164792850Y-85729520D01*
X164813893Y-85742132D01*
X164833599Y-85756747D01*
X164851777Y-85773223D01*
X164868253Y-85791401D01*
X164882868Y-85811107D01*
X164895480Y-85832150D01*
X164905970Y-85854329D01*
X164914235Y-85877428D01*
X164920196Y-85901227D01*
X164923796Y-85925495D01*
X164925000Y-85949999D01*
X164925000Y-86850001D01*
X164923796Y-86874505D01*
X164920196Y-86898773D01*
X164914235Y-86922572D01*
X164905970Y-86945671D01*
X164895480Y-86967850D01*
X164882868Y-86988893D01*
X164868253Y-87008599D01*
X164851777Y-87026777D01*
X164833599Y-87043253D01*
X164813893Y-87057868D01*
X164792850Y-87070480D01*
X164770671Y-87080970D01*
X164747572Y-87089235D01*
X164723773Y-87095196D01*
X164699505Y-87098796D01*
X164675001Y-87100000D01*
X163824999Y-87100000D01*
X163800495Y-87098796D01*
X163776227Y-87095196D01*
X163752428Y-87089235D01*
X163729329Y-87080970D01*
X163707150Y-87070480D01*
X163686107Y-87057868D01*
X163666401Y-87043253D01*
X163648223Y-87026777D01*
X163631747Y-87008599D01*
X163617132Y-86988893D01*
X163604520Y-86967850D01*
X163594030Y-86945671D01*
X163585765Y-86922572D01*
X163579804Y-86898773D01*
X163576204Y-86874505D01*
X163575000Y-86850001D01*
X163575000Y-85949999D01*
X163576204Y-85925495D01*
X163579804Y-85901227D01*
X163585765Y-85877428D01*
X163594030Y-85854329D01*
X163604520Y-85832150D01*
X163617132Y-85811107D01*
X163631747Y-85791401D01*
X163648223Y-85773223D01*
X163666401Y-85756747D01*
X163686107Y-85742132D01*
X163707150Y-85729520D01*
X163729329Y-85719030D01*
X163752428Y-85710765D01*
X163776227Y-85704804D01*
X163800495Y-85701204D01*
X163824999Y-85700000D01*
X164675001Y-85700000D01*
X164699505Y-85701204D01*
X164699505Y-85701204D01*
G37*
D12*
X164250000Y-86400000D03*
D10*
G36*
X164699505Y-88401204D02*
G01*
X164723773Y-88404804D01*
X164747572Y-88410765D01*
X164770671Y-88419030D01*
X164792850Y-88429520D01*
X164813893Y-88442132D01*
X164833599Y-88456747D01*
X164851777Y-88473223D01*
X164868253Y-88491401D01*
X164882868Y-88511107D01*
X164895480Y-88532150D01*
X164905970Y-88554329D01*
X164914235Y-88577428D01*
X164920196Y-88601227D01*
X164923796Y-88625495D01*
X164925000Y-88649999D01*
X164925000Y-89550001D01*
X164923796Y-89574505D01*
X164920196Y-89598773D01*
X164914235Y-89622572D01*
X164905970Y-89645671D01*
X164895480Y-89667850D01*
X164882868Y-89688893D01*
X164868253Y-89708599D01*
X164851777Y-89726777D01*
X164833599Y-89743253D01*
X164813893Y-89757868D01*
X164792850Y-89770480D01*
X164770671Y-89780970D01*
X164747572Y-89789235D01*
X164723773Y-89795196D01*
X164699505Y-89798796D01*
X164675001Y-89800000D01*
X163824999Y-89800000D01*
X163800495Y-89798796D01*
X163776227Y-89795196D01*
X163752428Y-89789235D01*
X163729329Y-89780970D01*
X163707150Y-89770480D01*
X163686107Y-89757868D01*
X163666401Y-89743253D01*
X163648223Y-89726777D01*
X163631747Y-89708599D01*
X163617132Y-89688893D01*
X163604520Y-89667850D01*
X163594030Y-89645671D01*
X163585765Y-89622572D01*
X163579804Y-89598773D01*
X163576204Y-89574505D01*
X163575000Y-89550001D01*
X163575000Y-88649999D01*
X163576204Y-88625495D01*
X163579804Y-88601227D01*
X163585765Y-88577428D01*
X163594030Y-88554329D01*
X163604520Y-88532150D01*
X163617132Y-88511107D01*
X163631747Y-88491401D01*
X163648223Y-88473223D01*
X163666401Y-88456747D01*
X163686107Y-88442132D01*
X163707150Y-88429520D01*
X163729329Y-88419030D01*
X163752428Y-88410765D01*
X163776227Y-88404804D01*
X163800495Y-88401204D01*
X163824999Y-88400000D01*
X164675001Y-88400000D01*
X164699505Y-88401204D01*
X164699505Y-88401204D01*
G37*
D12*
X164250000Y-89100000D03*
D13*
X153100000Y-86025000D03*
X153100000Y-86525000D03*
X153100000Y-88525000D03*
X153100000Y-88025000D03*
X153100000Y-87525000D03*
X153100000Y-87025000D03*
X157100000Y-88525000D03*
X157100000Y-88025000D03*
X157100000Y-87525000D03*
X157100000Y-86025000D03*
X157100000Y-86525000D03*
X157100000Y-87025000D03*
D14*
X156350000Y-89275000D03*
X155850000Y-89275000D03*
X155350000Y-89275000D03*
X153850000Y-89275000D03*
X154350000Y-89275000D03*
X154850000Y-89275000D03*
X153850000Y-85275000D03*
X154350000Y-85275000D03*
X156350000Y-85275000D03*
X155850000Y-85275000D03*
X155350000Y-85275000D03*
X154850000Y-85275000D03*
D10*
G36*
X115277691Y-106988553D02*
G01*
X115298926Y-106991703D01*
X115319750Y-106996919D01*
X115339962Y-107004151D01*
X115359368Y-107013330D01*
X115377781Y-107024366D01*
X115395024Y-107037154D01*
X115410930Y-107051570D01*
X115425346Y-107067476D01*
X115438134Y-107084719D01*
X115449170Y-107103132D01*
X115458349Y-107122538D01*
X115465581Y-107142750D01*
X115470797Y-107163574D01*
X115473947Y-107184809D01*
X115475000Y-107206250D01*
X115475000Y-107643750D01*
X115473947Y-107665191D01*
X115470797Y-107686426D01*
X115465581Y-107707250D01*
X115458349Y-107727462D01*
X115449170Y-107746868D01*
X115438134Y-107765281D01*
X115425346Y-107782524D01*
X115410930Y-107798430D01*
X115395024Y-107812846D01*
X115377781Y-107825634D01*
X115359368Y-107836670D01*
X115339962Y-107845849D01*
X115319750Y-107853081D01*
X115298926Y-107858297D01*
X115277691Y-107861447D01*
X115256250Y-107862500D01*
X114743750Y-107862500D01*
X114722309Y-107861447D01*
X114701074Y-107858297D01*
X114680250Y-107853081D01*
X114660038Y-107845849D01*
X114640632Y-107836670D01*
X114622219Y-107825634D01*
X114604976Y-107812846D01*
X114589070Y-107798430D01*
X114574654Y-107782524D01*
X114561866Y-107765281D01*
X114550830Y-107746868D01*
X114541651Y-107727462D01*
X114534419Y-107707250D01*
X114529203Y-107686426D01*
X114526053Y-107665191D01*
X114525000Y-107643750D01*
X114525000Y-107206250D01*
X114526053Y-107184809D01*
X114529203Y-107163574D01*
X114534419Y-107142750D01*
X114541651Y-107122538D01*
X114550830Y-107103132D01*
X114561866Y-107084719D01*
X114574654Y-107067476D01*
X114589070Y-107051570D01*
X114604976Y-107037154D01*
X114622219Y-107024366D01*
X114640632Y-107013330D01*
X114660038Y-107004151D01*
X114680250Y-106996919D01*
X114701074Y-106991703D01*
X114722309Y-106988553D01*
X114743750Y-106987500D01*
X115256250Y-106987500D01*
X115277691Y-106988553D01*
X115277691Y-106988553D01*
G37*
D11*
X115000000Y-107425000D03*
D10*
G36*
X115277691Y-108563553D02*
G01*
X115298926Y-108566703D01*
X115319750Y-108571919D01*
X115339962Y-108579151D01*
X115359368Y-108588330D01*
X115377781Y-108599366D01*
X115395024Y-108612154D01*
X115410930Y-108626570D01*
X115425346Y-108642476D01*
X115438134Y-108659719D01*
X115449170Y-108678132D01*
X115458349Y-108697538D01*
X115465581Y-108717750D01*
X115470797Y-108738574D01*
X115473947Y-108759809D01*
X115475000Y-108781250D01*
X115475000Y-109218750D01*
X115473947Y-109240191D01*
X115470797Y-109261426D01*
X115465581Y-109282250D01*
X115458349Y-109302462D01*
X115449170Y-109321868D01*
X115438134Y-109340281D01*
X115425346Y-109357524D01*
X115410930Y-109373430D01*
X115395024Y-109387846D01*
X115377781Y-109400634D01*
X115359368Y-109411670D01*
X115339962Y-109420849D01*
X115319750Y-109428081D01*
X115298926Y-109433297D01*
X115277691Y-109436447D01*
X115256250Y-109437500D01*
X114743750Y-109437500D01*
X114722309Y-109436447D01*
X114701074Y-109433297D01*
X114680250Y-109428081D01*
X114660038Y-109420849D01*
X114640632Y-109411670D01*
X114622219Y-109400634D01*
X114604976Y-109387846D01*
X114589070Y-109373430D01*
X114574654Y-109357524D01*
X114561866Y-109340281D01*
X114550830Y-109321868D01*
X114541651Y-109302462D01*
X114534419Y-109282250D01*
X114529203Y-109261426D01*
X114526053Y-109240191D01*
X114525000Y-109218750D01*
X114525000Y-108781250D01*
X114526053Y-108759809D01*
X114529203Y-108738574D01*
X114534419Y-108717750D01*
X114541651Y-108697538D01*
X114550830Y-108678132D01*
X114561866Y-108659719D01*
X114574654Y-108642476D01*
X114589070Y-108626570D01*
X114604976Y-108612154D01*
X114622219Y-108599366D01*
X114640632Y-108588330D01*
X114660038Y-108579151D01*
X114680250Y-108571919D01*
X114701074Y-108566703D01*
X114722309Y-108563553D01*
X114743750Y-108562500D01*
X115256250Y-108562500D01*
X115277691Y-108563553D01*
X115277691Y-108563553D01*
G37*
D11*
X115000000Y-109000000D03*
D10*
G36*
X138440191Y-107526053D02*
G01*
X138461426Y-107529203D01*
X138482250Y-107534419D01*
X138502462Y-107541651D01*
X138521868Y-107550830D01*
X138540281Y-107561866D01*
X138557524Y-107574654D01*
X138573430Y-107589070D01*
X138587846Y-107604976D01*
X138600634Y-107622219D01*
X138611670Y-107640632D01*
X138620849Y-107660038D01*
X138628081Y-107680250D01*
X138633297Y-107701074D01*
X138636447Y-107722309D01*
X138637500Y-107743750D01*
X138637500Y-108256250D01*
X138636447Y-108277691D01*
X138633297Y-108298926D01*
X138628081Y-108319750D01*
X138620849Y-108339962D01*
X138611670Y-108359368D01*
X138600634Y-108377781D01*
X138587846Y-108395024D01*
X138573430Y-108410930D01*
X138557524Y-108425346D01*
X138540281Y-108438134D01*
X138521868Y-108449170D01*
X138502462Y-108458349D01*
X138482250Y-108465581D01*
X138461426Y-108470797D01*
X138440191Y-108473947D01*
X138418750Y-108475000D01*
X137981250Y-108475000D01*
X137959809Y-108473947D01*
X137938574Y-108470797D01*
X137917750Y-108465581D01*
X137897538Y-108458349D01*
X137878132Y-108449170D01*
X137859719Y-108438134D01*
X137842476Y-108425346D01*
X137826570Y-108410930D01*
X137812154Y-108395024D01*
X137799366Y-108377781D01*
X137788330Y-108359368D01*
X137779151Y-108339962D01*
X137771919Y-108319750D01*
X137766703Y-108298926D01*
X137763553Y-108277691D01*
X137762500Y-108256250D01*
X137762500Y-107743750D01*
X137763553Y-107722309D01*
X137766703Y-107701074D01*
X137771919Y-107680250D01*
X137779151Y-107660038D01*
X137788330Y-107640632D01*
X137799366Y-107622219D01*
X137812154Y-107604976D01*
X137826570Y-107589070D01*
X137842476Y-107574654D01*
X137859719Y-107561866D01*
X137878132Y-107550830D01*
X137897538Y-107541651D01*
X137917750Y-107534419D01*
X137938574Y-107529203D01*
X137959809Y-107526053D01*
X137981250Y-107525000D01*
X138418750Y-107525000D01*
X138440191Y-107526053D01*
X138440191Y-107526053D01*
G37*
D11*
X138200000Y-108000000D03*
D10*
G36*
X136865191Y-107526053D02*
G01*
X136886426Y-107529203D01*
X136907250Y-107534419D01*
X136927462Y-107541651D01*
X136946868Y-107550830D01*
X136965281Y-107561866D01*
X136982524Y-107574654D01*
X136998430Y-107589070D01*
X137012846Y-107604976D01*
X137025634Y-107622219D01*
X137036670Y-107640632D01*
X137045849Y-107660038D01*
X137053081Y-107680250D01*
X137058297Y-107701074D01*
X137061447Y-107722309D01*
X137062500Y-107743750D01*
X137062500Y-108256250D01*
X137061447Y-108277691D01*
X137058297Y-108298926D01*
X137053081Y-108319750D01*
X137045849Y-108339962D01*
X137036670Y-108359368D01*
X137025634Y-108377781D01*
X137012846Y-108395024D01*
X136998430Y-108410930D01*
X136982524Y-108425346D01*
X136965281Y-108438134D01*
X136946868Y-108449170D01*
X136927462Y-108458349D01*
X136907250Y-108465581D01*
X136886426Y-108470797D01*
X136865191Y-108473947D01*
X136843750Y-108475000D01*
X136406250Y-108475000D01*
X136384809Y-108473947D01*
X136363574Y-108470797D01*
X136342750Y-108465581D01*
X136322538Y-108458349D01*
X136303132Y-108449170D01*
X136284719Y-108438134D01*
X136267476Y-108425346D01*
X136251570Y-108410930D01*
X136237154Y-108395024D01*
X136224366Y-108377781D01*
X136213330Y-108359368D01*
X136204151Y-108339962D01*
X136196919Y-108319750D01*
X136191703Y-108298926D01*
X136188553Y-108277691D01*
X136187500Y-108256250D01*
X136187500Y-107743750D01*
X136188553Y-107722309D01*
X136191703Y-107701074D01*
X136196919Y-107680250D01*
X136204151Y-107660038D01*
X136213330Y-107640632D01*
X136224366Y-107622219D01*
X136237154Y-107604976D01*
X136251570Y-107589070D01*
X136267476Y-107574654D01*
X136284719Y-107561866D01*
X136303132Y-107550830D01*
X136322538Y-107541651D01*
X136342750Y-107534419D01*
X136363574Y-107529203D01*
X136384809Y-107526053D01*
X136406250Y-107525000D01*
X136843750Y-107525000D01*
X136865191Y-107526053D01*
X136865191Y-107526053D01*
G37*
D11*
X136625000Y-108000000D03*
D10*
G36*
X144777691Y-107651053D02*
G01*
X144798926Y-107654203D01*
X144819750Y-107659419D01*
X144839962Y-107666651D01*
X144859368Y-107675830D01*
X144877781Y-107686866D01*
X144895024Y-107699654D01*
X144910930Y-107714070D01*
X144925346Y-107729976D01*
X144938134Y-107747219D01*
X144949170Y-107765632D01*
X144958349Y-107785038D01*
X144965581Y-107805250D01*
X144970797Y-107826074D01*
X144973947Y-107847309D01*
X144975000Y-107868750D01*
X144975000Y-108306250D01*
X144973947Y-108327691D01*
X144970797Y-108348926D01*
X144965581Y-108369750D01*
X144958349Y-108389962D01*
X144949170Y-108409368D01*
X144938134Y-108427781D01*
X144925346Y-108445024D01*
X144910930Y-108460930D01*
X144895024Y-108475346D01*
X144877781Y-108488134D01*
X144859368Y-108499170D01*
X144839962Y-108508349D01*
X144819750Y-108515581D01*
X144798926Y-108520797D01*
X144777691Y-108523947D01*
X144756250Y-108525000D01*
X144243750Y-108525000D01*
X144222309Y-108523947D01*
X144201074Y-108520797D01*
X144180250Y-108515581D01*
X144160038Y-108508349D01*
X144140632Y-108499170D01*
X144122219Y-108488134D01*
X144104976Y-108475346D01*
X144089070Y-108460930D01*
X144074654Y-108445024D01*
X144061866Y-108427781D01*
X144050830Y-108409368D01*
X144041651Y-108389962D01*
X144034419Y-108369750D01*
X144029203Y-108348926D01*
X144026053Y-108327691D01*
X144025000Y-108306250D01*
X144025000Y-107868750D01*
X144026053Y-107847309D01*
X144029203Y-107826074D01*
X144034419Y-107805250D01*
X144041651Y-107785038D01*
X144050830Y-107765632D01*
X144061866Y-107747219D01*
X144074654Y-107729976D01*
X144089070Y-107714070D01*
X144104976Y-107699654D01*
X144122219Y-107686866D01*
X144140632Y-107675830D01*
X144160038Y-107666651D01*
X144180250Y-107659419D01*
X144201074Y-107654203D01*
X144222309Y-107651053D01*
X144243750Y-107650000D01*
X144756250Y-107650000D01*
X144777691Y-107651053D01*
X144777691Y-107651053D01*
G37*
D11*
X144500000Y-108087500D03*
D10*
G36*
X144777691Y-106076053D02*
G01*
X144798926Y-106079203D01*
X144819750Y-106084419D01*
X144839962Y-106091651D01*
X144859368Y-106100830D01*
X144877781Y-106111866D01*
X144895024Y-106124654D01*
X144910930Y-106139070D01*
X144925346Y-106154976D01*
X144938134Y-106172219D01*
X144949170Y-106190632D01*
X144958349Y-106210038D01*
X144965581Y-106230250D01*
X144970797Y-106251074D01*
X144973947Y-106272309D01*
X144975000Y-106293750D01*
X144975000Y-106731250D01*
X144973947Y-106752691D01*
X144970797Y-106773926D01*
X144965581Y-106794750D01*
X144958349Y-106814962D01*
X144949170Y-106834368D01*
X144938134Y-106852781D01*
X144925346Y-106870024D01*
X144910930Y-106885930D01*
X144895024Y-106900346D01*
X144877781Y-106913134D01*
X144859368Y-106924170D01*
X144839962Y-106933349D01*
X144819750Y-106940581D01*
X144798926Y-106945797D01*
X144777691Y-106948947D01*
X144756250Y-106950000D01*
X144243750Y-106950000D01*
X144222309Y-106948947D01*
X144201074Y-106945797D01*
X144180250Y-106940581D01*
X144160038Y-106933349D01*
X144140632Y-106924170D01*
X144122219Y-106913134D01*
X144104976Y-106900346D01*
X144089070Y-106885930D01*
X144074654Y-106870024D01*
X144061866Y-106852781D01*
X144050830Y-106834368D01*
X144041651Y-106814962D01*
X144034419Y-106794750D01*
X144029203Y-106773926D01*
X144026053Y-106752691D01*
X144025000Y-106731250D01*
X144025000Y-106293750D01*
X144026053Y-106272309D01*
X144029203Y-106251074D01*
X144034419Y-106230250D01*
X144041651Y-106210038D01*
X144050830Y-106190632D01*
X144061866Y-106172219D01*
X144074654Y-106154976D01*
X144089070Y-106139070D01*
X144104976Y-106124654D01*
X144122219Y-106111866D01*
X144140632Y-106100830D01*
X144160038Y-106091651D01*
X144180250Y-106084419D01*
X144201074Y-106079203D01*
X144222309Y-106076053D01*
X144243750Y-106075000D01*
X144756250Y-106075000D01*
X144777691Y-106076053D01*
X144777691Y-106076053D01*
G37*
D11*
X144500000Y-106512500D03*
D10*
G36*
X134527691Y-104426053D02*
G01*
X134548926Y-104429203D01*
X134569750Y-104434419D01*
X134589962Y-104441651D01*
X134609368Y-104450830D01*
X134627781Y-104461866D01*
X134645024Y-104474654D01*
X134660930Y-104489070D01*
X134675346Y-104504976D01*
X134688134Y-104522219D01*
X134699170Y-104540632D01*
X134708349Y-104560038D01*
X134715581Y-104580250D01*
X134720797Y-104601074D01*
X134723947Y-104622309D01*
X134725000Y-104643750D01*
X134725000Y-105156250D01*
X134723947Y-105177691D01*
X134720797Y-105198926D01*
X134715581Y-105219750D01*
X134708349Y-105239962D01*
X134699170Y-105259368D01*
X134688134Y-105277781D01*
X134675346Y-105295024D01*
X134660930Y-105310930D01*
X134645024Y-105325346D01*
X134627781Y-105338134D01*
X134609368Y-105349170D01*
X134589962Y-105358349D01*
X134569750Y-105365581D01*
X134548926Y-105370797D01*
X134527691Y-105373947D01*
X134506250Y-105375000D01*
X134068750Y-105375000D01*
X134047309Y-105373947D01*
X134026074Y-105370797D01*
X134005250Y-105365581D01*
X133985038Y-105358349D01*
X133965632Y-105349170D01*
X133947219Y-105338134D01*
X133929976Y-105325346D01*
X133914070Y-105310930D01*
X133899654Y-105295024D01*
X133886866Y-105277781D01*
X133875830Y-105259368D01*
X133866651Y-105239962D01*
X133859419Y-105219750D01*
X133854203Y-105198926D01*
X133851053Y-105177691D01*
X133850000Y-105156250D01*
X133850000Y-104643750D01*
X133851053Y-104622309D01*
X133854203Y-104601074D01*
X133859419Y-104580250D01*
X133866651Y-104560038D01*
X133875830Y-104540632D01*
X133886866Y-104522219D01*
X133899654Y-104504976D01*
X133914070Y-104489070D01*
X133929976Y-104474654D01*
X133947219Y-104461866D01*
X133965632Y-104450830D01*
X133985038Y-104441651D01*
X134005250Y-104434419D01*
X134026074Y-104429203D01*
X134047309Y-104426053D01*
X134068750Y-104425000D01*
X134506250Y-104425000D01*
X134527691Y-104426053D01*
X134527691Y-104426053D01*
G37*
D11*
X134287500Y-104900000D03*
D10*
G36*
X132952691Y-104426053D02*
G01*
X132973926Y-104429203D01*
X132994750Y-104434419D01*
X133014962Y-104441651D01*
X133034368Y-104450830D01*
X133052781Y-104461866D01*
X133070024Y-104474654D01*
X133085930Y-104489070D01*
X133100346Y-104504976D01*
X133113134Y-104522219D01*
X133124170Y-104540632D01*
X133133349Y-104560038D01*
X133140581Y-104580250D01*
X133145797Y-104601074D01*
X133148947Y-104622309D01*
X133150000Y-104643750D01*
X133150000Y-105156250D01*
X133148947Y-105177691D01*
X133145797Y-105198926D01*
X133140581Y-105219750D01*
X133133349Y-105239962D01*
X133124170Y-105259368D01*
X133113134Y-105277781D01*
X133100346Y-105295024D01*
X133085930Y-105310930D01*
X133070024Y-105325346D01*
X133052781Y-105338134D01*
X133034368Y-105349170D01*
X133014962Y-105358349D01*
X132994750Y-105365581D01*
X132973926Y-105370797D01*
X132952691Y-105373947D01*
X132931250Y-105375000D01*
X132493750Y-105375000D01*
X132472309Y-105373947D01*
X132451074Y-105370797D01*
X132430250Y-105365581D01*
X132410038Y-105358349D01*
X132390632Y-105349170D01*
X132372219Y-105338134D01*
X132354976Y-105325346D01*
X132339070Y-105310930D01*
X132324654Y-105295024D01*
X132311866Y-105277781D01*
X132300830Y-105259368D01*
X132291651Y-105239962D01*
X132284419Y-105219750D01*
X132279203Y-105198926D01*
X132276053Y-105177691D01*
X132275000Y-105156250D01*
X132275000Y-104643750D01*
X132276053Y-104622309D01*
X132279203Y-104601074D01*
X132284419Y-104580250D01*
X132291651Y-104560038D01*
X132300830Y-104540632D01*
X132311866Y-104522219D01*
X132324654Y-104504976D01*
X132339070Y-104489070D01*
X132354976Y-104474654D01*
X132372219Y-104461866D01*
X132390632Y-104450830D01*
X132410038Y-104441651D01*
X132430250Y-104434419D01*
X132451074Y-104429203D01*
X132472309Y-104426053D01*
X132493750Y-104425000D01*
X132931250Y-104425000D01*
X132952691Y-104426053D01*
X132952691Y-104426053D01*
G37*
D11*
X132712500Y-104900000D03*
D10*
G36*
X132952691Y-102626053D02*
G01*
X132973926Y-102629203D01*
X132994750Y-102634419D01*
X133014962Y-102641651D01*
X133034368Y-102650830D01*
X133052781Y-102661866D01*
X133070024Y-102674654D01*
X133085930Y-102689070D01*
X133100346Y-102704976D01*
X133113134Y-102722219D01*
X133124170Y-102740632D01*
X133133349Y-102760038D01*
X133140581Y-102780250D01*
X133145797Y-102801074D01*
X133148947Y-102822309D01*
X133150000Y-102843750D01*
X133150000Y-103356250D01*
X133148947Y-103377691D01*
X133145797Y-103398926D01*
X133140581Y-103419750D01*
X133133349Y-103439962D01*
X133124170Y-103459368D01*
X133113134Y-103477781D01*
X133100346Y-103495024D01*
X133085930Y-103510930D01*
X133070024Y-103525346D01*
X133052781Y-103538134D01*
X133034368Y-103549170D01*
X133014962Y-103558349D01*
X132994750Y-103565581D01*
X132973926Y-103570797D01*
X132952691Y-103573947D01*
X132931250Y-103575000D01*
X132493750Y-103575000D01*
X132472309Y-103573947D01*
X132451074Y-103570797D01*
X132430250Y-103565581D01*
X132410038Y-103558349D01*
X132390632Y-103549170D01*
X132372219Y-103538134D01*
X132354976Y-103525346D01*
X132339070Y-103510930D01*
X132324654Y-103495024D01*
X132311866Y-103477781D01*
X132300830Y-103459368D01*
X132291651Y-103439962D01*
X132284419Y-103419750D01*
X132279203Y-103398926D01*
X132276053Y-103377691D01*
X132275000Y-103356250D01*
X132275000Y-102843750D01*
X132276053Y-102822309D01*
X132279203Y-102801074D01*
X132284419Y-102780250D01*
X132291651Y-102760038D01*
X132300830Y-102740632D01*
X132311866Y-102722219D01*
X132324654Y-102704976D01*
X132339070Y-102689070D01*
X132354976Y-102674654D01*
X132372219Y-102661866D01*
X132390632Y-102650830D01*
X132410038Y-102641651D01*
X132430250Y-102634419D01*
X132451074Y-102629203D01*
X132472309Y-102626053D01*
X132493750Y-102625000D01*
X132931250Y-102625000D01*
X132952691Y-102626053D01*
X132952691Y-102626053D01*
G37*
D11*
X132712500Y-103100000D03*
D10*
G36*
X134527691Y-102626053D02*
G01*
X134548926Y-102629203D01*
X134569750Y-102634419D01*
X134589962Y-102641651D01*
X134609368Y-102650830D01*
X134627781Y-102661866D01*
X134645024Y-102674654D01*
X134660930Y-102689070D01*
X134675346Y-102704976D01*
X134688134Y-102722219D01*
X134699170Y-102740632D01*
X134708349Y-102760038D01*
X134715581Y-102780250D01*
X134720797Y-102801074D01*
X134723947Y-102822309D01*
X134725000Y-102843750D01*
X134725000Y-103356250D01*
X134723947Y-103377691D01*
X134720797Y-103398926D01*
X134715581Y-103419750D01*
X134708349Y-103439962D01*
X134699170Y-103459368D01*
X134688134Y-103477781D01*
X134675346Y-103495024D01*
X134660930Y-103510930D01*
X134645024Y-103525346D01*
X134627781Y-103538134D01*
X134609368Y-103549170D01*
X134589962Y-103558349D01*
X134569750Y-103565581D01*
X134548926Y-103570797D01*
X134527691Y-103573947D01*
X134506250Y-103575000D01*
X134068750Y-103575000D01*
X134047309Y-103573947D01*
X134026074Y-103570797D01*
X134005250Y-103565581D01*
X133985038Y-103558349D01*
X133965632Y-103549170D01*
X133947219Y-103538134D01*
X133929976Y-103525346D01*
X133914070Y-103510930D01*
X133899654Y-103495024D01*
X133886866Y-103477781D01*
X133875830Y-103459368D01*
X133866651Y-103439962D01*
X133859419Y-103419750D01*
X133854203Y-103398926D01*
X133851053Y-103377691D01*
X133850000Y-103356250D01*
X133850000Y-102843750D01*
X133851053Y-102822309D01*
X133854203Y-102801074D01*
X133859419Y-102780250D01*
X133866651Y-102760038D01*
X133875830Y-102740632D01*
X133886866Y-102722219D01*
X133899654Y-102704976D01*
X133914070Y-102689070D01*
X133929976Y-102674654D01*
X133947219Y-102661866D01*
X133965632Y-102650830D01*
X133985038Y-102641651D01*
X134005250Y-102634419D01*
X134026074Y-102629203D01*
X134047309Y-102626053D01*
X134068750Y-102625000D01*
X134506250Y-102625000D01*
X134527691Y-102626053D01*
X134527691Y-102626053D01*
G37*
D11*
X134287500Y-103100000D03*
D10*
G36*
X156052691Y-96326053D02*
G01*
X156073926Y-96329203D01*
X156094750Y-96334419D01*
X156114962Y-96341651D01*
X156134368Y-96350830D01*
X156152781Y-96361866D01*
X156170024Y-96374654D01*
X156185930Y-96389070D01*
X156200346Y-96404976D01*
X156213134Y-96422219D01*
X156224170Y-96440632D01*
X156233349Y-96460038D01*
X156240581Y-96480250D01*
X156245797Y-96501074D01*
X156248947Y-96522309D01*
X156250000Y-96543750D01*
X156250000Y-97056250D01*
X156248947Y-97077691D01*
X156245797Y-97098926D01*
X156240581Y-97119750D01*
X156233349Y-97139962D01*
X156224170Y-97159368D01*
X156213134Y-97177781D01*
X156200346Y-97195024D01*
X156185930Y-97210930D01*
X156170024Y-97225346D01*
X156152781Y-97238134D01*
X156134368Y-97249170D01*
X156114962Y-97258349D01*
X156094750Y-97265581D01*
X156073926Y-97270797D01*
X156052691Y-97273947D01*
X156031250Y-97275000D01*
X155593750Y-97275000D01*
X155572309Y-97273947D01*
X155551074Y-97270797D01*
X155530250Y-97265581D01*
X155510038Y-97258349D01*
X155490632Y-97249170D01*
X155472219Y-97238134D01*
X155454976Y-97225346D01*
X155439070Y-97210930D01*
X155424654Y-97195024D01*
X155411866Y-97177781D01*
X155400830Y-97159368D01*
X155391651Y-97139962D01*
X155384419Y-97119750D01*
X155379203Y-97098926D01*
X155376053Y-97077691D01*
X155375000Y-97056250D01*
X155375000Y-96543750D01*
X155376053Y-96522309D01*
X155379203Y-96501074D01*
X155384419Y-96480250D01*
X155391651Y-96460038D01*
X155400830Y-96440632D01*
X155411866Y-96422219D01*
X155424654Y-96404976D01*
X155439070Y-96389070D01*
X155454976Y-96374654D01*
X155472219Y-96361866D01*
X155490632Y-96350830D01*
X155510038Y-96341651D01*
X155530250Y-96334419D01*
X155551074Y-96329203D01*
X155572309Y-96326053D01*
X155593750Y-96325000D01*
X156031250Y-96325000D01*
X156052691Y-96326053D01*
X156052691Y-96326053D01*
G37*
D11*
X155812500Y-96800000D03*
D10*
G36*
X157627691Y-96326053D02*
G01*
X157648926Y-96329203D01*
X157669750Y-96334419D01*
X157689962Y-96341651D01*
X157709368Y-96350830D01*
X157727781Y-96361866D01*
X157745024Y-96374654D01*
X157760930Y-96389070D01*
X157775346Y-96404976D01*
X157788134Y-96422219D01*
X157799170Y-96440632D01*
X157808349Y-96460038D01*
X157815581Y-96480250D01*
X157820797Y-96501074D01*
X157823947Y-96522309D01*
X157825000Y-96543750D01*
X157825000Y-97056250D01*
X157823947Y-97077691D01*
X157820797Y-97098926D01*
X157815581Y-97119750D01*
X157808349Y-97139962D01*
X157799170Y-97159368D01*
X157788134Y-97177781D01*
X157775346Y-97195024D01*
X157760930Y-97210930D01*
X157745024Y-97225346D01*
X157727781Y-97238134D01*
X157709368Y-97249170D01*
X157689962Y-97258349D01*
X157669750Y-97265581D01*
X157648926Y-97270797D01*
X157627691Y-97273947D01*
X157606250Y-97275000D01*
X157168750Y-97275000D01*
X157147309Y-97273947D01*
X157126074Y-97270797D01*
X157105250Y-97265581D01*
X157085038Y-97258349D01*
X157065632Y-97249170D01*
X157047219Y-97238134D01*
X157029976Y-97225346D01*
X157014070Y-97210930D01*
X156999654Y-97195024D01*
X156986866Y-97177781D01*
X156975830Y-97159368D01*
X156966651Y-97139962D01*
X156959419Y-97119750D01*
X156954203Y-97098926D01*
X156951053Y-97077691D01*
X156950000Y-97056250D01*
X156950000Y-96543750D01*
X156951053Y-96522309D01*
X156954203Y-96501074D01*
X156959419Y-96480250D01*
X156966651Y-96460038D01*
X156975830Y-96440632D01*
X156986866Y-96422219D01*
X156999654Y-96404976D01*
X157014070Y-96389070D01*
X157029976Y-96374654D01*
X157047219Y-96361866D01*
X157065632Y-96350830D01*
X157085038Y-96341651D01*
X157105250Y-96334419D01*
X157126074Y-96329203D01*
X157147309Y-96326053D01*
X157168750Y-96325000D01*
X157606250Y-96325000D01*
X157627691Y-96326053D01*
X157627691Y-96326053D01*
G37*
D11*
X157387500Y-96800000D03*
D10*
G36*
X157640191Y-94626053D02*
G01*
X157661426Y-94629203D01*
X157682250Y-94634419D01*
X157702462Y-94641651D01*
X157721868Y-94650830D01*
X157740281Y-94661866D01*
X157757524Y-94674654D01*
X157773430Y-94689070D01*
X157787846Y-94704976D01*
X157800634Y-94722219D01*
X157811670Y-94740632D01*
X157820849Y-94760038D01*
X157828081Y-94780250D01*
X157833297Y-94801074D01*
X157836447Y-94822309D01*
X157837500Y-94843750D01*
X157837500Y-95356250D01*
X157836447Y-95377691D01*
X157833297Y-95398926D01*
X157828081Y-95419750D01*
X157820849Y-95439962D01*
X157811670Y-95459368D01*
X157800634Y-95477781D01*
X157787846Y-95495024D01*
X157773430Y-95510930D01*
X157757524Y-95525346D01*
X157740281Y-95538134D01*
X157721868Y-95549170D01*
X157702462Y-95558349D01*
X157682250Y-95565581D01*
X157661426Y-95570797D01*
X157640191Y-95573947D01*
X157618750Y-95575000D01*
X157181250Y-95575000D01*
X157159809Y-95573947D01*
X157138574Y-95570797D01*
X157117750Y-95565581D01*
X157097538Y-95558349D01*
X157078132Y-95549170D01*
X157059719Y-95538134D01*
X157042476Y-95525346D01*
X157026570Y-95510930D01*
X157012154Y-95495024D01*
X156999366Y-95477781D01*
X156988330Y-95459368D01*
X156979151Y-95439962D01*
X156971919Y-95419750D01*
X156966703Y-95398926D01*
X156963553Y-95377691D01*
X156962500Y-95356250D01*
X156962500Y-94843750D01*
X156963553Y-94822309D01*
X156966703Y-94801074D01*
X156971919Y-94780250D01*
X156979151Y-94760038D01*
X156988330Y-94740632D01*
X156999366Y-94722219D01*
X157012154Y-94704976D01*
X157026570Y-94689070D01*
X157042476Y-94674654D01*
X157059719Y-94661866D01*
X157078132Y-94650830D01*
X157097538Y-94641651D01*
X157117750Y-94634419D01*
X157138574Y-94629203D01*
X157159809Y-94626053D01*
X157181250Y-94625000D01*
X157618750Y-94625000D01*
X157640191Y-94626053D01*
X157640191Y-94626053D01*
G37*
D11*
X157400000Y-95100000D03*
D10*
G36*
X156065191Y-94626053D02*
G01*
X156086426Y-94629203D01*
X156107250Y-94634419D01*
X156127462Y-94641651D01*
X156146868Y-94650830D01*
X156165281Y-94661866D01*
X156182524Y-94674654D01*
X156198430Y-94689070D01*
X156212846Y-94704976D01*
X156225634Y-94722219D01*
X156236670Y-94740632D01*
X156245849Y-94760038D01*
X156253081Y-94780250D01*
X156258297Y-94801074D01*
X156261447Y-94822309D01*
X156262500Y-94843750D01*
X156262500Y-95356250D01*
X156261447Y-95377691D01*
X156258297Y-95398926D01*
X156253081Y-95419750D01*
X156245849Y-95439962D01*
X156236670Y-95459368D01*
X156225634Y-95477781D01*
X156212846Y-95495024D01*
X156198430Y-95510930D01*
X156182524Y-95525346D01*
X156165281Y-95538134D01*
X156146868Y-95549170D01*
X156127462Y-95558349D01*
X156107250Y-95565581D01*
X156086426Y-95570797D01*
X156065191Y-95573947D01*
X156043750Y-95575000D01*
X155606250Y-95575000D01*
X155584809Y-95573947D01*
X155563574Y-95570797D01*
X155542750Y-95565581D01*
X155522538Y-95558349D01*
X155503132Y-95549170D01*
X155484719Y-95538134D01*
X155467476Y-95525346D01*
X155451570Y-95510930D01*
X155437154Y-95495024D01*
X155424366Y-95477781D01*
X155413330Y-95459368D01*
X155404151Y-95439962D01*
X155396919Y-95419750D01*
X155391703Y-95398926D01*
X155388553Y-95377691D01*
X155387500Y-95356250D01*
X155387500Y-94843750D01*
X155388553Y-94822309D01*
X155391703Y-94801074D01*
X155396919Y-94780250D01*
X155404151Y-94760038D01*
X155413330Y-94740632D01*
X155424366Y-94722219D01*
X155437154Y-94704976D01*
X155451570Y-94689070D01*
X155467476Y-94674654D01*
X155484719Y-94661866D01*
X155503132Y-94650830D01*
X155522538Y-94641651D01*
X155542750Y-94634419D01*
X155563574Y-94629203D01*
X155584809Y-94626053D01*
X155606250Y-94625000D01*
X156043750Y-94625000D01*
X156065191Y-94626053D01*
X156065191Y-94626053D01*
G37*
D11*
X155825000Y-95100000D03*
D10*
G36*
X148215191Y-102426053D02*
G01*
X148236426Y-102429203D01*
X148257250Y-102434419D01*
X148277462Y-102441651D01*
X148296868Y-102450830D01*
X148315281Y-102461866D01*
X148332524Y-102474654D01*
X148348430Y-102489070D01*
X148362846Y-102504976D01*
X148375634Y-102522219D01*
X148386670Y-102540632D01*
X148395849Y-102560038D01*
X148403081Y-102580250D01*
X148408297Y-102601074D01*
X148411447Y-102622309D01*
X148412500Y-102643750D01*
X148412500Y-103156250D01*
X148411447Y-103177691D01*
X148408297Y-103198926D01*
X148403081Y-103219750D01*
X148395849Y-103239962D01*
X148386670Y-103259368D01*
X148375634Y-103277781D01*
X148362846Y-103295024D01*
X148348430Y-103310930D01*
X148332524Y-103325346D01*
X148315281Y-103338134D01*
X148296868Y-103349170D01*
X148277462Y-103358349D01*
X148257250Y-103365581D01*
X148236426Y-103370797D01*
X148215191Y-103373947D01*
X148193750Y-103375000D01*
X147756250Y-103375000D01*
X147734809Y-103373947D01*
X147713574Y-103370797D01*
X147692750Y-103365581D01*
X147672538Y-103358349D01*
X147653132Y-103349170D01*
X147634719Y-103338134D01*
X147617476Y-103325346D01*
X147601570Y-103310930D01*
X147587154Y-103295024D01*
X147574366Y-103277781D01*
X147563330Y-103259368D01*
X147554151Y-103239962D01*
X147546919Y-103219750D01*
X147541703Y-103198926D01*
X147538553Y-103177691D01*
X147537500Y-103156250D01*
X147537500Y-102643750D01*
X147538553Y-102622309D01*
X147541703Y-102601074D01*
X147546919Y-102580250D01*
X147554151Y-102560038D01*
X147563330Y-102540632D01*
X147574366Y-102522219D01*
X147587154Y-102504976D01*
X147601570Y-102489070D01*
X147617476Y-102474654D01*
X147634719Y-102461866D01*
X147653132Y-102450830D01*
X147672538Y-102441651D01*
X147692750Y-102434419D01*
X147713574Y-102429203D01*
X147734809Y-102426053D01*
X147756250Y-102425000D01*
X148193750Y-102425000D01*
X148215191Y-102426053D01*
X148215191Y-102426053D01*
G37*
D11*
X147975000Y-102900000D03*
D10*
G36*
X146640191Y-102426053D02*
G01*
X146661426Y-102429203D01*
X146682250Y-102434419D01*
X146702462Y-102441651D01*
X146721868Y-102450830D01*
X146740281Y-102461866D01*
X146757524Y-102474654D01*
X146773430Y-102489070D01*
X146787846Y-102504976D01*
X146800634Y-102522219D01*
X146811670Y-102540632D01*
X146820849Y-102560038D01*
X146828081Y-102580250D01*
X146833297Y-102601074D01*
X146836447Y-102622309D01*
X146837500Y-102643750D01*
X146837500Y-103156250D01*
X146836447Y-103177691D01*
X146833297Y-103198926D01*
X146828081Y-103219750D01*
X146820849Y-103239962D01*
X146811670Y-103259368D01*
X146800634Y-103277781D01*
X146787846Y-103295024D01*
X146773430Y-103310930D01*
X146757524Y-103325346D01*
X146740281Y-103338134D01*
X146721868Y-103349170D01*
X146702462Y-103358349D01*
X146682250Y-103365581D01*
X146661426Y-103370797D01*
X146640191Y-103373947D01*
X146618750Y-103375000D01*
X146181250Y-103375000D01*
X146159809Y-103373947D01*
X146138574Y-103370797D01*
X146117750Y-103365581D01*
X146097538Y-103358349D01*
X146078132Y-103349170D01*
X146059719Y-103338134D01*
X146042476Y-103325346D01*
X146026570Y-103310930D01*
X146012154Y-103295024D01*
X145999366Y-103277781D01*
X145988330Y-103259368D01*
X145979151Y-103239962D01*
X145971919Y-103219750D01*
X145966703Y-103198926D01*
X145963553Y-103177691D01*
X145962500Y-103156250D01*
X145962500Y-102643750D01*
X145963553Y-102622309D01*
X145966703Y-102601074D01*
X145971919Y-102580250D01*
X145979151Y-102560038D01*
X145988330Y-102540632D01*
X145999366Y-102522219D01*
X146012154Y-102504976D01*
X146026570Y-102489070D01*
X146042476Y-102474654D01*
X146059719Y-102461866D01*
X146078132Y-102450830D01*
X146097538Y-102441651D01*
X146117750Y-102434419D01*
X146138574Y-102429203D01*
X146159809Y-102426053D01*
X146181250Y-102425000D01*
X146618750Y-102425000D01*
X146640191Y-102426053D01*
X146640191Y-102426053D01*
G37*
D11*
X146400000Y-102900000D03*
D10*
G36*
X149452691Y-106326053D02*
G01*
X149473926Y-106329203D01*
X149494750Y-106334419D01*
X149514962Y-106341651D01*
X149534368Y-106350830D01*
X149552781Y-106361866D01*
X149570024Y-106374654D01*
X149585930Y-106389070D01*
X149600346Y-106404976D01*
X149613134Y-106422219D01*
X149624170Y-106440632D01*
X149633349Y-106460038D01*
X149640581Y-106480250D01*
X149645797Y-106501074D01*
X149648947Y-106522309D01*
X149650000Y-106543750D01*
X149650000Y-107056250D01*
X149648947Y-107077691D01*
X149645797Y-107098926D01*
X149640581Y-107119750D01*
X149633349Y-107139962D01*
X149624170Y-107159368D01*
X149613134Y-107177781D01*
X149600346Y-107195024D01*
X149585930Y-107210930D01*
X149570024Y-107225346D01*
X149552781Y-107238134D01*
X149534368Y-107249170D01*
X149514962Y-107258349D01*
X149494750Y-107265581D01*
X149473926Y-107270797D01*
X149452691Y-107273947D01*
X149431250Y-107275000D01*
X148993750Y-107275000D01*
X148972309Y-107273947D01*
X148951074Y-107270797D01*
X148930250Y-107265581D01*
X148910038Y-107258349D01*
X148890632Y-107249170D01*
X148872219Y-107238134D01*
X148854976Y-107225346D01*
X148839070Y-107210930D01*
X148824654Y-107195024D01*
X148811866Y-107177781D01*
X148800830Y-107159368D01*
X148791651Y-107139962D01*
X148784419Y-107119750D01*
X148779203Y-107098926D01*
X148776053Y-107077691D01*
X148775000Y-107056250D01*
X148775000Y-106543750D01*
X148776053Y-106522309D01*
X148779203Y-106501074D01*
X148784419Y-106480250D01*
X148791651Y-106460038D01*
X148800830Y-106440632D01*
X148811866Y-106422219D01*
X148824654Y-106404976D01*
X148839070Y-106389070D01*
X148854976Y-106374654D01*
X148872219Y-106361866D01*
X148890632Y-106350830D01*
X148910038Y-106341651D01*
X148930250Y-106334419D01*
X148951074Y-106329203D01*
X148972309Y-106326053D01*
X148993750Y-106325000D01*
X149431250Y-106325000D01*
X149452691Y-106326053D01*
X149452691Y-106326053D01*
G37*
D11*
X149212500Y-106800000D03*
D10*
G36*
X151027691Y-106326053D02*
G01*
X151048926Y-106329203D01*
X151069750Y-106334419D01*
X151089962Y-106341651D01*
X151109368Y-106350830D01*
X151127781Y-106361866D01*
X151145024Y-106374654D01*
X151160930Y-106389070D01*
X151175346Y-106404976D01*
X151188134Y-106422219D01*
X151199170Y-106440632D01*
X151208349Y-106460038D01*
X151215581Y-106480250D01*
X151220797Y-106501074D01*
X151223947Y-106522309D01*
X151225000Y-106543750D01*
X151225000Y-107056250D01*
X151223947Y-107077691D01*
X151220797Y-107098926D01*
X151215581Y-107119750D01*
X151208349Y-107139962D01*
X151199170Y-107159368D01*
X151188134Y-107177781D01*
X151175346Y-107195024D01*
X151160930Y-107210930D01*
X151145024Y-107225346D01*
X151127781Y-107238134D01*
X151109368Y-107249170D01*
X151089962Y-107258349D01*
X151069750Y-107265581D01*
X151048926Y-107270797D01*
X151027691Y-107273947D01*
X151006250Y-107275000D01*
X150568750Y-107275000D01*
X150547309Y-107273947D01*
X150526074Y-107270797D01*
X150505250Y-107265581D01*
X150485038Y-107258349D01*
X150465632Y-107249170D01*
X150447219Y-107238134D01*
X150429976Y-107225346D01*
X150414070Y-107210930D01*
X150399654Y-107195024D01*
X150386866Y-107177781D01*
X150375830Y-107159368D01*
X150366651Y-107139962D01*
X150359419Y-107119750D01*
X150354203Y-107098926D01*
X150351053Y-107077691D01*
X150350000Y-107056250D01*
X150350000Y-106543750D01*
X150351053Y-106522309D01*
X150354203Y-106501074D01*
X150359419Y-106480250D01*
X150366651Y-106460038D01*
X150375830Y-106440632D01*
X150386866Y-106422219D01*
X150399654Y-106404976D01*
X150414070Y-106389070D01*
X150429976Y-106374654D01*
X150447219Y-106361866D01*
X150465632Y-106350830D01*
X150485038Y-106341651D01*
X150505250Y-106334419D01*
X150526074Y-106329203D01*
X150547309Y-106326053D01*
X150568750Y-106325000D01*
X151006250Y-106325000D01*
X151027691Y-106326053D01*
X151027691Y-106326053D01*
G37*
D11*
X150787500Y-106800000D03*
D10*
G36*
X148015191Y-86401053D02*
G01*
X148036426Y-86404203D01*
X148057250Y-86409419D01*
X148077462Y-86416651D01*
X148096868Y-86425830D01*
X148115281Y-86436866D01*
X148132524Y-86449654D01*
X148148430Y-86464070D01*
X148162846Y-86479976D01*
X148175634Y-86497219D01*
X148186670Y-86515632D01*
X148195849Y-86535038D01*
X148203081Y-86555250D01*
X148208297Y-86576074D01*
X148211447Y-86597309D01*
X148212500Y-86618750D01*
X148212500Y-87131250D01*
X148211447Y-87152691D01*
X148208297Y-87173926D01*
X148203081Y-87194750D01*
X148195849Y-87214962D01*
X148186670Y-87234368D01*
X148175634Y-87252781D01*
X148162846Y-87270024D01*
X148148430Y-87285930D01*
X148132524Y-87300346D01*
X148115281Y-87313134D01*
X148096868Y-87324170D01*
X148077462Y-87333349D01*
X148057250Y-87340581D01*
X148036426Y-87345797D01*
X148015191Y-87348947D01*
X147993750Y-87350000D01*
X147556250Y-87350000D01*
X147534809Y-87348947D01*
X147513574Y-87345797D01*
X147492750Y-87340581D01*
X147472538Y-87333349D01*
X147453132Y-87324170D01*
X147434719Y-87313134D01*
X147417476Y-87300346D01*
X147401570Y-87285930D01*
X147387154Y-87270024D01*
X147374366Y-87252781D01*
X147363330Y-87234368D01*
X147354151Y-87214962D01*
X147346919Y-87194750D01*
X147341703Y-87173926D01*
X147338553Y-87152691D01*
X147337500Y-87131250D01*
X147337500Y-86618750D01*
X147338553Y-86597309D01*
X147341703Y-86576074D01*
X147346919Y-86555250D01*
X147354151Y-86535038D01*
X147363330Y-86515632D01*
X147374366Y-86497219D01*
X147387154Y-86479976D01*
X147401570Y-86464070D01*
X147417476Y-86449654D01*
X147434719Y-86436866D01*
X147453132Y-86425830D01*
X147472538Y-86416651D01*
X147492750Y-86409419D01*
X147513574Y-86404203D01*
X147534809Y-86401053D01*
X147556250Y-86400000D01*
X147993750Y-86400000D01*
X148015191Y-86401053D01*
X148015191Y-86401053D01*
G37*
D11*
X147775000Y-86875000D03*
D10*
G36*
X149590191Y-86401053D02*
G01*
X149611426Y-86404203D01*
X149632250Y-86409419D01*
X149652462Y-86416651D01*
X149671868Y-86425830D01*
X149690281Y-86436866D01*
X149707524Y-86449654D01*
X149723430Y-86464070D01*
X149737846Y-86479976D01*
X149750634Y-86497219D01*
X149761670Y-86515632D01*
X149770849Y-86535038D01*
X149778081Y-86555250D01*
X149783297Y-86576074D01*
X149786447Y-86597309D01*
X149787500Y-86618750D01*
X149787500Y-87131250D01*
X149786447Y-87152691D01*
X149783297Y-87173926D01*
X149778081Y-87194750D01*
X149770849Y-87214962D01*
X149761670Y-87234368D01*
X149750634Y-87252781D01*
X149737846Y-87270024D01*
X149723430Y-87285930D01*
X149707524Y-87300346D01*
X149690281Y-87313134D01*
X149671868Y-87324170D01*
X149652462Y-87333349D01*
X149632250Y-87340581D01*
X149611426Y-87345797D01*
X149590191Y-87348947D01*
X149568750Y-87350000D01*
X149131250Y-87350000D01*
X149109809Y-87348947D01*
X149088574Y-87345797D01*
X149067750Y-87340581D01*
X149047538Y-87333349D01*
X149028132Y-87324170D01*
X149009719Y-87313134D01*
X148992476Y-87300346D01*
X148976570Y-87285930D01*
X148962154Y-87270024D01*
X148949366Y-87252781D01*
X148938330Y-87234368D01*
X148929151Y-87214962D01*
X148921919Y-87194750D01*
X148916703Y-87173926D01*
X148913553Y-87152691D01*
X148912500Y-87131250D01*
X148912500Y-86618750D01*
X148913553Y-86597309D01*
X148916703Y-86576074D01*
X148921919Y-86555250D01*
X148929151Y-86535038D01*
X148938330Y-86515632D01*
X148949366Y-86497219D01*
X148962154Y-86479976D01*
X148976570Y-86464070D01*
X148992476Y-86449654D01*
X149009719Y-86436866D01*
X149028132Y-86425830D01*
X149047538Y-86416651D01*
X149067750Y-86409419D01*
X149088574Y-86404203D01*
X149109809Y-86401053D01*
X149131250Y-86400000D01*
X149568750Y-86400000D01*
X149590191Y-86401053D01*
X149590191Y-86401053D01*
G37*
D11*
X149350000Y-86875000D03*
D15*
X120200000Y-98720000D03*
X120200000Y-103280000D03*
D16*
X112225000Y-102525000D03*
X115575000Y-99475000D03*
X112225000Y-99475000D03*
X115575000Y-102525000D03*
D10*
G36*
X167377691Y-92676053D02*
G01*
X167398926Y-92679203D01*
X167419750Y-92684419D01*
X167439962Y-92691651D01*
X167459368Y-92700830D01*
X167477781Y-92711866D01*
X167495024Y-92724654D01*
X167510930Y-92739070D01*
X167525346Y-92754976D01*
X167538134Y-92772219D01*
X167549170Y-92790632D01*
X167558349Y-92810038D01*
X167565581Y-92830250D01*
X167570797Y-92851074D01*
X167573947Y-92872309D01*
X167575000Y-92893750D01*
X167575000Y-93331250D01*
X167573947Y-93352691D01*
X167570797Y-93373926D01*
X167565581Y-93394750D01*
X167558349Y-93414962D01*
X167549170Y-93434368D01*
X167538134Y-93452781D01*
X167525346Y-93470024D01*
X167510930Y-93485930D01*
X167495024Y-93500346D01*
X167477781Y-93513134D01*
X167459368Y-93524170D01*
X167439962Y-93533349D01*
X167419750Y-93540581D01*
X167398926Y-93545797D01*
X167377691Y-93548947D01*
X167356250Y-93550000D01*
X166843750Y-93550000D01*
X166822309Y-93548947D01*
X166801074Y-93545797D01*
X166780250Y-93540581D01*
X166760038Y-93533349D01*
X166740632Y-93524170D01*
X166722219Y-93513134D01*
X166704976Y-93500346D01*
X166689070Y-93485930D01*
X166674654Y-93470024D01*
X166661866Y-93452781D01*
X166650830Y-93434368D01*
X166641651Y-93414962D01*
X166634419Y-93394750D01*
X166629203Y-93373926D01*
X166626053Y-93352691D01*
X166625000Y-93331250D01*
X166625000Y-92893750D01*
X166626053Y-92872309D01*
X166629203Y-92851074D01*
X166634419Y-92830250D01*
X166641651Y-92810038D01*
X166650830Y-92790632D01*
X166661866Y-92772219D01*
X166674654Y-92754976D01*
X166689070Y-92739070D01*
X166704976Y-92724654D01*
X166722219Y-92711866D01*
X166740632Y-92700830D01*
X166760038Y-92691651D01*
X166780250Y-92684419D01*
X166801074Y-92679203D01*
X166822309Y-92676053D01*
X166843750Y-92675000D01*
X167356250Y-92675000D01*
X167377691Y-92676053D01*
X167377691Y-92676053D01*
G37*
D11*
X167100000Y-93112500D03*
D10*
G36*
X167377691Y-94251053D02*
G01*
X167398926Y-94254203D01*
X167419750Y-94259419D01*
X167439962Y-94266651D01*
X167459368Y-94275830D01*
X167477781Y-94286866D01*
X167495024Y-94299654D01*
X167510930Y-94314070D01*
X167525346Y-94329976D01*
X167538134Y-94347219D01*
X167549170Y-94365632D01*
X167558349Y-94385038D01*
X167565581Y-94405250D01*
X167570797Y-94426074D01*
X167573947Y-94447309D01*
X167575000Y-94468750D01*
X167575000Y-94906250D01*
X167573947Y-94927691D01*
X167570797Y-94948926D01*
X167565581Y-94969750D01*
X167558349Y-94989962D01*
X167549170Y-95009368D01*
X167538134Y-95027781D01*
X167525346Y-95045024D01*
X167510930Y-95060930D01*
X167495024Y-95075346D01*
X167477781Y-95088134D01*
X167459368Y-95099170D01*
X167439962Y-95108349D01*
X167419750Y-95115581D01*
X167398926Y-95120797D01*
X167377691Y-95123947D01*
X167356250Y-95125000D01*
X166843750Y-95125000D01*
X166822309Y-95123947D01*
X166801074Y-95120797D01*
X166780250Y-95115581D01*
X166760038Y-95108349D01*
X166740632Y-95099170D01*
X166722219Y-95088134D01*
X166704976Y-95075346D01*
X166689070Y-95060930D01*
X166674654Y-95045024D01*
X166661866Y-95027781D01*
X166650830Y-95009368D01*
X166641651Y-94989962D01*
X166634419Y-94969750D01*
X166629203Y-94948926D01*
X166626053Y-94927691D01*
X166625000Y-94906250D01*
X166625000Y-94468750D01*
X166626053Y-94447309D01*
X166629203Y-94426074D01*
X166634419Y-94405250D01*
X166641651Y-94385038D01*
X166650830Y-94365632D01*
X166661866Y-94347219D01*
X166674654Y-94329976D01*
X166689070Y-94314070D01*
X166704976Y-94299654D01*
X166722219Y-94286866D01*
X166740632Y-94275830D01*
X166760038Y-94266651D01*
X166780250Y-94259419D01*
X166801074Y-94254203D01*
X166822309Y-94251053D01*
X166843750Y-94250000D01*
X167356250Y-94250000D01*
X167377691Y-94251053D01*
X167377691Y-94251053D01*
G37*
D11*
X167100000Y-94687500D03*
D10*
G36*
X167102691Y-97888553D02*
G01*
X167123926Y-97891703D01*
X167144750Y-97896919D01*
X167164962Y-97904151D01*
X167184368Y-97913330D01*
X167202781Y-97924366D01*
X167220024Y-97937154D01*
X167235930Y-97951570D01*
X167250346Y-97967476D01*
X167263134Y-97984719D01*
X167274170Y-98003132D01*
X167283349Y-98022538D01*
X167290581Y-98042750D01*
X167295797Y-98063574D01*
X167298947Y-98084809D01*
X167300000Y-98106250D01*
X167300000Y-98543750D01*
X167298947Y-98565191D01*
X167295797Y-98586426D01*
X167290581Y-98607250D01*
X167283349Y-98627462D01*
X167274170Y-98646868D01*
X167263134Y-98665281D01*
X167250346Y-98682524D01*
X167235930Y-98698430D01*
X167220024Y-98712846D01*
X167202781Y-98725634D01*
X167184368Y-98736670D01*
X167164962Y-98745849D01*
X167144750Y-98753081D01*
X167123926Y-98758297D01*
X167102691Y-98761447D01*
X167081250Y-98762500D01*
X166568750Y-98762500D01*
X166547309Y-98761447D01*
X166526074Y-98758297D01*
X166505250Y-98753081D01*
X166485038Y-98745849D01*
X166465632Y-98736670D01*
X166447219Y-98725634D01*
X166429976Y-98712846D01*
X166414070Y-98698430D01*
X166399654Y-98682524D01*
X166386866Y-98665281D01*
X166375830Y-98646868D01*
X166366651Y-98627462D01*
X166359419Y-98607250D01*
X166354203Y-98586426D01*
X166351053Y-98565191D01*
X166350000Y-98543750D01*
X166350000Y-98106250D01*
X166351053Y-98084809D01*
X166354203Y-98063574D01*
X166359419Y-98042750D01*
X166366651Y-98022538D01*
X166375830Y-98003132D01*
X166386866Y-97984719D01*
X166399654Y-97967476D01*
X166414070Y-97951570D01*
X166429976Y-97937154D01*
X166447219Y-97924366D01*
X166465632Y-97913330D01*
X166485038Y-97904151D01*
X166505250Y-97896919D01*
X166526074Y-97891703D01*
X166547309Y-97888553D01*
X166568750Y-97887500D01*
X167081250Y-97887500D01*
X167102691Y-97888553D01*
X167102691Y-97888553D01*
G37*
D11*
X166825000Y-98325000D03*
D10*
G36*
X167102691Y-96313553D02*
G01*
X167123926Y-96316703D01*
X167144750Y-96321919D01*
X167164962Y-96329151D01*
X167184368Y-96338330D01*
X167202781Y-96349366D01*
X167220024Y-96362154D01*
X167235930Y-96376570D01*
X167250346Y-96392476D01*
X167263134Y-96409719D01*
X167274170Y-96428132D01*
X167283349Y-96447538D01*
X167290581Y-96467750D01*
X167295797Y-96488574D01*
X167298947Y-96509809D01*
X167300000Y-96531250D01*
X167300000Y-96968750D01*
X167298947Y-96990191D01*
X167295797Y-97011426D01*
X167290581Y-97032250D01*
X167283349Y-97052462D01*
X167274170Y-97071868D01*
X167263134Y-97090281D01*
X167250346Y-97107524D01*
X167235930Y-97123430D01*
X167220024Y-97137846D01*
X167202781Y-97150634D01*
X167184368Y-97161670D01*
X167164962Y-97170849D01*
X167144750Y-97178081D01*
X167123926Y-97183297D01*
X167102691Y-97186447D01*
X167081250Y-97187500D01*
X166568750Y-97187500D01*
X166547309Y-97186447D01*
X166526074Y-97183297D01*
X166505250Y-97178081D01*
X166485038Y-97170849D01*
X166465632Y-97161670D01*
X166447219Y-97150634D01*
X166429976Y-97137846D01*
X166414070Y-97123430D01*
X166399654Y-97107524D01*
X166386866Y-97090281D01*
X166375830Y-97071868D01*
X166366651Y-97052462D01*
X166359419Y-97032250D01*
X166354203Y-97011426D01*
X166351053Y-96990191D01*
X166350000Y-96968750D01*
X166350000Y-96531250D01*
X166351053Y-96509809D01*
X166354203Y-96488574D01*
X166359419Y-96467750D01*
X166366651Y-96447538D01*
X166375830Y-96428132D01*
X166386866Y-96409719D01*
X166399654Y-96392476D01*
X166414070Y-96376570D01*
X166429976Y-96362154D01*
X166447219Y-96349366D01*
X166465632Y-96338330D01*
X166485038Y-96329151D01*
X166505250Y-96321919D01*
X166526074Y-96316703D01*
X166547309Y-96313553D01*
X166568750Y-96312500D01*
X167081250Y-96312500D01*
X167102691Y-96313553D01*
X167102691Y-96313553D01*
G37*
D11*
X166825000Y-96750000D03*
D10*
G36*
X151027691Y-104526053D02*
G01*
X151048926Y-104529203D01*
X151069750Y-104534419D01*
X151089962Y-104541651D01*
X151109368Y-104550830D01*
X151127781Y-104561866D01*
X151145024Y-104574654D01*
X151160930Y-104589070D01*
X151175346Y-104604976D01*
X151188134Y-104622219D01*
X151199170Y-104640632D01*
X151208349Y-104660038D01*
X151215581Y-104680250D01*
X151220797Y-104701074D01*
X151223947Y-104722309D01*
X151225000Y-104743750D01*
X151225000Y-105256250D01*
X151223947Y-105277691D01*
X151220797Y-105298926D01*
X151215581Y-105319750D01*
X151208349Y-105339962D01*
X151199170Y-105359368D01*
X151188134Y-105377781D01*
X151175346Y-105395024D01*
X151160930Y-105410930D01*
X151145024Y-105425346D01*
X151127781Y-105438134D01*
X151109368Y-105449170D01*
X151089962Y-105458349D01*
X151069750Y-105465581D01*
X151048926Y-105470797D01*
X151027691Y-105473947D01*
X151006250Y-105475000D01*
X150568750Y-105475000D01*
X150547309Y-105473947D01*
X150526074Y-105470797D01*
X150505250Y-105465581D01*
X150485038Y-105458349D01*
X150465632Y-105449170D01*
X150447219Y-105438134D01*
X150429976Y-105425346D01*
X150414070Y-105410930D01*
X150399654Y-105395024D01*
X150386866Y-105377781D01*
X150375830Y-105359368D01*
X150366651Y-105339962D01*
X150359419Y-105319750D01*
X150354203Y-105298926D01*
X150351053Y-105277691D01*
X150350000Y-105256250D01*
X150350000Y-104743750D01*
X150351053Y-104722309D01*
X150354203Y-104701074D01*
X150359419Y-104680250D01*
X150366651Y-104660038D01*
X150375830Y-104640632D01*
X150386866Y-104622219D01*
X150399654Y-104604976D01*
X150414070Y-104589070D01*
X150429976Y-104574654D01*
X150447219Y-104561866D01*
X150465632Y-104550830D01*
X150485038Y-104541651D01*
X150505250Y-104534419D01*
X150526074Y-104529203D01*
X150547309Y-104526053D01*
X150568750Y-104525000D01*
X151006250Y-104525000D01*
X151027691Y-104526053D01*
X151027691Y-104526053D01*
G37*
D11*
X150787500Y-105000000D03*
D10*
G36*
X149452691Y-104526053D02*
G01*
X149473926Y-104529203D01*
X149494750Y-104534419D01*
X149514962Y-104541651D01*
X149534368Y-104550830D01*
X149552781Y-104561866D01*
X149570024Y-104574654D01*
X149585930Y-104589070D01*
X149600346Y-104604976D01*
X149613134Y-104622219D01*
X149624170Y-104640632D01*
X149633349Y-104660038D01*
X149640581Y-104680250D01*
X149645797Y-104701074D01*
X149648947Y-104722309D01*
X149650000Y-104743750D01*
X149650000Y-105256250D01*
X149648947Y-105277691D01*
X149645797Y-105298926D01*
X149640581Y-105319750D01*
X149633349Y-105339962D01*
X149624170Y-105359368D01*
X149613134Y-105377781D01*
X149600346Y-105395024D01*
X149585930Y-105410930D01*
X149570024Y-105425346D01*
X149552781Y-105438134D01*
X149534368Y-105449170D01*
X149514962Y-105458349D01*
X149494750Y-105465581D01*
X149473926Y-105470797D01*
X149452691Y-105473947D01*
X149431250Y-105475000D01*
X148993750Y-105475000D01*
X148972309Y-105473947D01*
X148951074Y-105470797D01*
X148930250Y-105465581D01*
X148910038Y-105458349D01*
X148890632Y-105449170D01*
X148872219Y-105438134D01*
X148854976Y-105425346D01*
X148839070Y-105410930D01*
X148824654Y-105395024D01*
X148811866Y-105377781D01*
X148800830Y-105359368D01*
X148791651Y-105339962D01*
X148784419Y-105319750D01*
X148779203Y-105298926D01*
X148776053Y-105277691D01*
X148775000Y-105256250D01*
X148775000Y-104743750D01*
X148776053Y-104722309D01*
X148779203Y-104701074D01*
X148784419Y-104680250D01*
X148791651Y-104660038D01*
X148800830Y-104640632D01*
X148811866Y-104622219D01*
X148824654Y-104604976D01*
X148839070Y-104589070D01*
X148854976Y-104574654D01*
X148872219Y-104561866D01*
X148890632Y-104550830D01*
X148910038Y-104541651D01*
X148930250Y-104534419D01*
X148951074Y-104529203D01*
X148972309Y-104526053D01*
X148993750Y-104525000D01*
X149431250Y-104525000D01*
X149452691Y-104526053D01*
X149452691Y-104526053D01*
G37*
D11*
X149212500Y-105000000D03*
D10*
G36*
X149627691Y-88526053D02*
G01*
X149648926Y-88529203D01*
X149669750Y-88534419D01*
X149689962Y-88541651D01*
X149709368Y-88550830D01*
X149727781Y-88561866D01*
X149745024Y-88574654D01*
X149760930Y-88589070D01*
X149775346Y-88604976D01*
X149788134Y-88622219D01*
X149799170Y-88640632D01*
X149808349Y-88660038D01*
X149815581Y-88680250D01*
X149820797Y-88701074D01*
X149823947Y-88722309D01*
X149825000Y-88743750D01*
X149825000Y-89256250D01*
X149823947Y-89277691D01*
X149820797Y-89298926D01*
X149815581Y-89319750D01*
X149808349Y-89339962D01*
X149799170Y-89359368D01*
X149788134Y-89377781D01*
X149775346Y-89395024D01*
X149760930Y-89410930D01*
X149745024Y-89425346D01*
X149727781Y-89438134D01*
X149709368Y-89449170D01*
X149689962Y-89458349D01*
X149669750Y-89465581D01*
X149648926Y-89470797D01*
X149627691Y-89473947D01*
X149606250Y-89475000D01*
X149168750Y-89475000D01*
X149147309Y-89473947D01*
X149126074Y-89470797D01*
X149105250Y-89465581D01*
X149085038Y-89458349D01*
X149065632Y-89449170D01*
X149047219Y-89438134D01*
X149029976Y-89425346D01*
X149014070Y-89410930D01*
X148999654Y-89395024D01*
X148986866Y-89377781D01*
X148975830Y-89359368D01*
X148966651Y-89339962D01*
X148959419Y-89319750D01*
X148954203Y-89298926D01*
X148951053Y-89277691D01*
X148950000Y-89256250D01*
X148950000Y-88743750D01*
X148951053Y-88722309D01*
X148954203Y-88701074D01*
X148959419Y-88680250D01*
X148966651Y-88660038D01*
X148975830Y-88640632D01*
X148986866Y-88622219D01*
X148999654Y-88604976D01*
X149014070Y-88589070D01*
X149029976Y-88574654D01*
X149047219Y-88561866D01*
X149065632Y-88550830D01*
X149085038Y-88541651D01*
X149105250Y-88534419D01*
X149126074Y-88529203D01*
X149147309Y-88526053D01*
X149168750Y-88525000D01*
X149606250Y-88525000D01*
X149627691Y-88526053D01*
X149627691Y-88526053D01*
G37*
D11*
X149387500Y-89000000D03*
D10*
G36*
X148052691Y-88526053D02*
G01*
X148073926Y-88529203D01*
X148094750Y-88534419D01*
X148114962Y-88541651D01*
X148134368Y-88550830D01*
X148152781Y-88561866D01*
X148170024Y-88574654D01*
X148185930Y-88589070D01*
X148200346Y-88604976D01*
X148213134Y-88622219D01*
X148224170Y-88640632D01*
X148233349Y-88660038D01*
X148240581Y-88680250D01*
X148245797Y-88701074D01*
X148248947Y-88722309D01*
X148250000Y-88743750D01*
X148250000Y-89256250D01*
X148248947Y-89277691D01*
X148245797Y-89298926D01*
X148240581Y-89319750D01*
X148233349Y-89339962D01*
X148224170Y-89359368D01*
X148213134Y-89377781D01*
X148200346Y-89395024D01*
X148185930Y-89410930D01*
X148170024Y-89425346D01*
X148152781Y-89438134D01*
X148134368Y-89449170D01*
X148114962Y-89458349D01*
X148094750Y-89465581D01*
X148073926Y-89470797D01*
X148052691Y-89473947D01*
X148031250Y-89475000D01*
X147593750Y-89475000D01*
X147572309Y-89473947D01*
X147551074Y-89470797D01*
X147530250Y-89465581D01*
X147510038Y-89458349D01*
X147490632Y-89449170D01*
X147472219Y-89438134D01*
X147454976Y-89425346D01*
X147439070Y-89410930D01*
X147424654Y-89395024D01*
X147411866Y-89377781D01*
X147400830Y-89359368D01*
X147391651Y-89339962D01*
X147384419Y-89319750D01*
X147379203Y-89298926D01*
X147376053Y-89277691D01*
X147375000Y-89256250D01*
X147375000Y-88743750D01*
X147376053Y-88722309D01*
X147379203Y-88701074D01*
X147384419Y-88680250D01*
X147391651Y-88660038D01*
X147400830Y-88640632D01*
X147411866Y-88622219D01*
X147424654Y-88604976D01*
X147439070Y-88589070D01*
X147454976Y-88574654D01*
X147472219Y-88561866D01*
X147490632Y-88550830D01*
X147510038Y-88541651D01*
X147530250Y-88534419D01*
X147551074Y-88529203D01*
X147572309Y-88526053D01*
X147593750Y-88525000D01*
X148031250Y-88525000D01*
X148052691Y-88526053D01*
X148052691Y-88526053D01*
G37*
D11*
X147812500Y-89000000D03*
D17*
X127250000Y-106570000D03*
X124250000Y-106570000D03*
X122750000Y-106570000D03*
D18*
X128650000Y-109430000D03*
X121350000Y-109430000D03*
X121350000Y-107220000D03*
X128650000Y-107220000D03*
D19*
X128000000Y-103150000D03*
D20*
X128000000Y-96850000D03*
X130300000Y-96850000D03*
X125700000Y-96850000D03*
D21*
X143868629Y-101020458D03*
D10*
G36*
X143497398Y-101568466D02*
G01*
X143320621Y-101391689D01*
X144239860Y-100472450D01*
X144416637Y-100649227D01*
X143497398Y-101568466D01*
X143497398Y-101568466D01*
G37*
D21*
X143515076Y-100666905D03*
D10*
G36*
X143143845Y-101214913D02*
G01*
X142967068Y-101038136D01*
X143886307Y-100118897D01*
X144063084Y-100295674D01*
X143143845Y-101214913D01*
X143143845Y-101214913D01*
G37*
D21*
X143161522Y-100313351D03*
D10*
G36*
X142790291Y-100861359D02*
G01*
X142613514Y-100684582D01*
X143532753Y-99765343D01*
X143709530Y-99942120D01*
X142790291Y-100861359D01*
X142790291Y-100861359D01*
G37*
D21*
X142807969Y-99959798D03*
D10*
G36*
X142436738Y-100507806D02*
G01*
X142259961Y-100331029D01*
X143179200Y-99411790D01*
X143355977Y-99588567D01*
X142436738Y-100507806D01*
X142436738Y-100507806D01*
G37*
D21*
X142454416Y-99606245D03*
D10*
G36*
X142083185Y-100154253D02*
G01*
X141906408Y-99977476D01*
X142825647Y-99058237D01*
X143002424Y-99235014D01*
X142083185Y-100154253D01*
X142083185Y-100154253D01*
G37*
D21*
X142100862Y-99252691D03*
D10*
G36*
X141729631Y-99800699D02*
G01*
X141552854Y-99623922D01*
X142472093Y-98704683D01*
X142648870Y-98881460D01*
X141729631Y-99800699D01*
X141729631Y-99800699D01*
G37*
D21*
X141747309Y-98899138D03*
D10*
G36*
X141376078Y-99447146D02*
G01*
X141199301Y-99270369D01*
X142118540Y-98351130D01*
X142295317Y-98527907D01*
X141376078Y-99447146D01*
X141376078Y-99447146D01*
G37*
D21*
X141393755Y-98545584D03*
D10*
G36*
X141022524Y-99093592D02*
G01*
X140845747Y-98916815D01*
X141764986Y-97997576D01*
X141941763Y-98174353D01*
X141022524Y-99093592D01*
X141022524Y-99093592D01*
G37*
D21*
X141040202Y-98192031D03*
D10*
G36*
X140668971Y-98740039D02*
G01*
X140492194Y-98563262D01*
X141411433Y-97644023D01*
X141588210Y-97820800D01*
X140668971Y-98740039D01*
X140668971Y-98740039D01*
G37*
D21*
X140686649Y-97838478D03*
D10*
G36*
X140315418Y-98386486D02*
G01*
X140138641Y-98209709D01*
X141057880Y-97290470D01*
X141234657Y-97467247D01*
X140315418Y-98386486D01*
X140315418Y-98386486D01*
G37*
D21*
X140333095Y-97484924D03*
D10*
G36*
X139961864Y-98032932D02*
G01*
X139785087Y-97856155D01*
X140704326Y-96936916D01*
X140881103Y-97113693D01*
X139961864Y-98032932D01*
X139961864Y-98032932D01*
G37*
D21*
X139979542Y-97131371D03*
D10*
G36*
X139608311Y-97679379D02*
G01*
X139431534Y-97502602D01*
X140350773Y-96583363D01*
X140527550Y-96760140D01*
X139608311Y-97679379D01*
X139608311Y-97679379D01*
G37*
D21*
X139979542Y-94868629D03*
D10*
G36*
X139431534Y-94497398D02*
G01*
X139608311Y-94320621D01*
X140527550Y-95239860D01*
X140350773Y-95416637D01*
X139431534Y-94497398D01*
X139431534Y-94497398D01*
G37*
D21*
X140333095Y-94515076D03*
D10*
G36*
X139785087Y-94143845D02*
G01*
X139961864Y-93967068D01*
X140881103Y-94886307D01*
X140704326Y-95063084D01*
X139785087Y-94143845D01*
X139785087Y-94143845D01*
G37*
D21*
X140686649Y-94161522D03*
D10*
G36*
X140138641Y-93790291D02*
G01*
X140315418Y-93613514D01*
X141234657Y-94532753D01*
X141057880Y-94709530D01*
X140138641Y-93790291D01*
X140138641Y-93790291D01*
G37*
D21*
X141040202Y-93807969D03*
D10*
G36*
X140492194Y-93436738D02*
G01*
X140668971Y-93259961D01*
X141588210Y-94179200D01*
X141411433Y-94355977D01*
X140492194Y-93436738D01*
X140492194Y-93436738D01*
G37*
D21*
X141393755Y-93454416D03*
D10*
G36*
X140845747Y-93083185D02*
G01*
X141022524Y-92906408D01*
X141941763Y-93825647D01*
X141764986Y-94002424D01*
X140845747Y-93083185D01*
X140845747Y-93083185D01*
G37*
D21*
X141747309Y-93100862D03*
D10*
G36*
X141199301Y-92729631D02*
G01*
X141376078Y-92552854D01*
X142295317Y-93472093D01*
X142118540Y-93648870D01*
X141199301Y-92729631D01*
X141199301Y-92729631D01*
G37*
D21*
X142100862Y-92747309D03*
D10*
G36*
X141552854Y-92376078D02*
G01*
X141729631Y-92199301D01*
X142648870Y-93118540D01*
X142472093Y-93295317D01*
X141552854Y-92376078D01*
X141552854Y-92376078D01*
G37*
D21*
X142454416Y-92393755D03*
D10*
G36*
X141906408Y-92022524D02*
G01*
X142083185Y-91845747D01*
X143002424Y-92764986D01*
X142825647Y-92941763D01*
X141906408Y-92022524D01*
X141906408Y-92022524D01*
G37*
D21*
X142807969Y-92040202D03*
D10*
G36*
X142259961Y-91668971D02*
G01*
X142436738Y-91492194D01*
X143355977Y-92411433D01*
X143179200Y-92588210D01*
X142259961Y-91668971D01*
X142259961Y-91668971D01*
G37*
D21*
X143161522Y-91686649D03*
D10*
G36*
X142613514Y-91315418D02*
G01*
X142790291Y-91138641D01*
X143709530Y-92057880D01*
X143532753Y-92234657D01*
X142613514Y-91315418D01*
X142613514Y-91315418D01*
G37*
D21*
X143515076Y-91333095D03*
D10*
G36*
X142967068Y-90961864D02*
G01*
X143143845Y-90785087D01*
X144063084Y-91704326D01*
X143886307Y-91881103D01*
X142967068Y-90961864D01*
X142967068Y-90961864D01*
G37*
D21*
X143868629Y-90979542D03*
D10*
G36*
X143320621Y-90608311D02*
G01*
X143497398Y-90431534D01*
X144416637Y-91350773D01*
X144239860Y-91527550D01*
X143320621Y-90608311D01*
X143320621Y-90608311D01*
G37*
D21*
X146131371Y-90979542D03*
D10*
G36*
X145760140Y-91527550D02*
G01*
X145583363Y-91350773D01*
X146502602Y-90431534D01*
X146679379Y-90608311D01*
X145760140Y-91527550D01*
X145760140Y-91527550D01*
G37*
D21*
X146484924Y-91333095D03*
D10*
G36*
X146113693Y-91881103D02*
G01*
X145936916Y-91704326D01*
X146856155Y-90785087D01*
X147032932Y-90961864D01*
X146113693Y-91881103D01*
X146113693Y-91881103D01*
G37*
D21*
X146838478Y-91686649D03*
D10*
G36*
X146467247Y-92234657D02*
G01*
X146290470Y-92057880D01*
X147209709Y-91138641D01*
X147386486Y-91315418D01*
X146467247Y-92234657D01*
X146467247Y-92234657D01*
G37*
D21*
X147192031Y-92040202D03*
D10*
G36*
X146820800Y-92588210D02*
G01*
X146644023Y-92411433D01*
X147563262Y-91492194D01*
X147740039Y-91668971D01*
X146820800Y-92588210D01*
X146820800Y-92588210D01*
G37*
D21*
X147545584Y-92393755D03*
D10*
G36*
X147174353Y-92941763D02*
G01*
X146997576Y-92764986D01*
X147916815Y-91845747D01*
X148093592Y-92022524D01*
X147174353Y-92941763D01*
X147174353Y-92941763D01*
G37*
D21*
X147899138Y-92747309D03*
D10*
G36*
X147527907Y-93295317D02*
G01*
X147351130Y-93118540D01*
X148270369Y-92199301D01*
X148447146Y-92376078D01*
X147527907Y-93295317D01*
X147527907Y-93295317D01*
G37*
D21*
X148252691Y-93100862D03*
D10*
G36*
X147881460Y-93648870D02*
G01*
X147704683Y-93472093D01*
X148623922Y-92552854D01*
X148800699Y-92729631D01*
X147881460Y-93648870D01*
X147881460Y-93648870D01*
G37*
D21*
X148606245Y-93454416D03*
D10*
G36*
X148235014Y-94002424D02*
G01*
X148058237Y-93825647D01*
X148977476Y-92906408D01*
X149154253Y-93083185D01*
X148235014Y-94002424D01*
X148235014Y-94002424D01*
G37*
D21*
X148959798Y-93807969D03*
D10*
G36*
X148588567Y-94355977D02*
G01*
X148411790Y-94179200D01*
X149331029Y-93259961D01*
X149507806Y-93436738D01*
X148588567Y-94355977D01*
X148588567Y-94355977D01*
G37*
D21*
X149313351Y-94161522D03*
D10*
G36*
X148942120Y-94709530D02*
G01*
X148765343Y-94532753D01*
X149684582Y-93613514D01*
X149861359Y-93790291D01*
X148942120Y-94709530D01*
X148942120Y-94709530D01*
G37*
D21*
X149666905Y-94515076D03*
D10*
G36*
X149295674Y-95063084D02*
G01*
X149118897Y-94886307D01*
X150038136Y-93967068D01*
X150214913Y-94143845D01*
X149295674Y-95063084D01*
X149295674Y-95063084D01*
G37*
D21*
X150020458Y-94868629D03*
D10*
G36*
X149649227Y-95416637D02*
G01*
X149472450Y-95239860D01*
X150391689Y-94320621D01*
X150568466Y-94497398D01*
X149649227Y-95416637D01*
X149649227Y-95416637D01*
G37*
D21*
X150020458Y-97131371D03*
D10*
G36*
X149472450Y-96760140D02*
G01*
X149649227Y-96583363D01*
X150568466Y-97502602D01*
X150391689Y-97679379D01*
X149472450Y-96760140D01*
X149472450Y-96760140D01*
G37*
D21*
X149666905Y-97484924D03*
D10*
G36*
X149118897Y-97113693D02*
G01*
X149295674Y-96936916D01*
X150214913Y-97856155D01*
X150038136Y-98032932D01*
X149118897Y-97113693D01*
X149118897Y-97113693D01*
G37*
D21*
X149313351Y-97838478D03*
D10*
G36*
X148765343Y-97467247D02*
G01*
X148942120Y-97290470D01*
X149861359Y-98209709D01*
X149684582Y-98386486D01*
X148765343Y-97467247D01*
X148765343Y-97467247D01*
G37*
D21*
X148959798Y-98192031D03*
D10*
G36*
X148411790Y-97820800D02*
G01*
X148588567Y-97644023D01*
X149507806Y-98563262D01*
X149331029Y-98740039D01*
X148411790Y-97820800D01*
X148411790Y-97820800D01*
G37*
D21*
X148606245Y-98545584D03*
D10*
G36*
X148058237Y-98174353D02*
G01*
X148235014Y-97997576D01*
X149154253Y-98916815D01*
X148977476Y-99093592D01*
X148058237Y-98174353D01*
X148058237Y-98174353D01*
G37*
D21*
X148252691Y-98899138D03*
D10*
G36*
X147704683Y-98527907D02*
G01*
X147881460Y-98351130D01*
X148800699Y-99270369D01*
X148623922Y-99447146D01*
X147704683Y-98527907D01*
X147704683Y-98527907D01*
G37*
D21*
X147899138Y-99252691D03*
D10*
G36*
X147351130Y-98881460D02*
G01*
X147527907Y-98704683D01*
X148447146Y-99623922D01*
X148270369Y-99800699D01*
X147351130Y-98881460D01*
X147351130Y-98881460D01*
G37*
D21*
X147545584Y-99606245D03*
D10*
G36*
X146997576Y-99235014D02*
G01*
X147174353Y-99058237D01*
X148093592Y-99977476D01*
X147916815Y-100154253D01*
X146997576Y-99235014D01*
X146997576Y-99235014D01*
G37*
D21*
X147192031Y-99959798D03*
D10*
G36*
X146644023Y-99588567D02*
G01*
X146820800Y-99411790D01*
X147740039Y-100331029D01*
X147563262Y-100507806D01*
X146644023Y-99588567D01*
X146644023Y-99588567D01*
G37*
D21*
X146838478Y-100313351D03*
D10*
G36*
X146290470Y-99942120D02*
G01*
X146467247Y-99765343D01*
X147386486Y-100684582D01*
X147209709Y-100861359D01*
X146290470Y-99942120D01*
X146290470Y-99942120D01*
G37*
D21*
X146484924Y-100666905D03*
D10*
G36*
X145936916Y-100295674D02*
G01*
X146113693Y-100118897D01*
X147032932Y-101038136D01*
X146856155Y-101214913D01*
X145936916Y-100295674D01*
X145936916Y-100295674D01*
G37*
D21*
X146131371Y-101020458D03*
D10*
G36*
X145583363Y-100649227D02*
G01*
X145760140Y-100472450D01*
X146679379Y-101391689D01*
X146502602Y-101568466D01*
X145583363Y-100649227D01*
X145583363Y-100649227D01*
G37*
D22*
X164000000Y-104690000D03*
X164000000Y-105960000D03*
X164000000Y-107230000D03*
X164000000Y-108500000D03*
X158600000Y-108500000D03*
X158600000Y-107230000D03*
X158600000Y-105960000D03*
X158600000Y-104690000D03*
D23*
X111680000Y-96400000D03*
X111680000Y-93600000D03*
D24*
X114920000Y-95000000D03*
D23*
X128120000Y-85600000D03*
X128120000Y-88400000D03*
D24*
X124880000Y-87000000D03*
D23*
X130880000Y-88400000D03*
X130880000Y-85600000D03*
D24*
X134120000Y-87000000D03*
X124880000Y-92000000D03*
D23*
X128120000Y-93400000D03*
X128120000Y-90600000D03*
D24*
X134120000Y-92000000D03*
D23*
X130880000Y-90600000D03*
X130880000Y-93400000D03*
D25*
X112095000Y-91200000D03*
X113365000Y-91200000D03*
X114635000Y-91200000D03*
X115905000Y-91200000D03*
X115905000Y-85800000D03*
X114635000Y-85800000D03*
X113365000Y-85800000D03*
X112095000Y-85800000D03*
X121905000Y-91200000D03*
X120635000Y-91200000D03*
X119365000Y-91200000D03*
X118095000Y-91200000D03*
X118095000Y-85800000D03*
X119365000Y-85800000D03*
X120635000Y-85800000D03*
X121905000Y-85800000D03*
M02*
