G04 #@! TF.GenerationSoftware,KiCad,Pcbnew,5.1.0*
G04 #@! TF.CreationDate,2019-04-01T22:05:57-06:00*
G04 #@! TF.ProjectId,minisumo-FreeRTOS,6d696e69-7375-46d6-9f2d-467265655254,rev?*
G04 #@! TF.SameCoordinates,Original*
G04 #@! TF.FileFunction,Soldermask,Bot*
G04 #@! TF.FilePolarity,Negative*
%FSLAX46Y46*%
G04 Gerber Fmt 4.6, Leading zero omitted, Abs format (unit mm)*
G04 Created by KiCad (PCBNEW 5.1.0) date 2019-04-01 22:05:57*
%MOMM*%
%LPD*%
G04 APERTURE LIST*
%ADD10C,0.100000*%
G04 APERTURE END LIST*
D10*
G36*
X112901000Y-110401000D02*
G01*
X111099000Y-110401000D01*
X111099000Y-108599000D01*
X112901000Y-108599000D01*
X112901000Y-110401000D01*
X112901000Y-110401000D01*
G37*
G36*
X129201000Y-109881000D02*
G01*
X128099000Y-109881000D01*
X128099000Y-108979000D01*
X129201000Y-108979000D01*
X129201000Y-109881000D01*
X129201000Y-109881000D01*
G37*
G36*
X121901000Y-109881000D02*
G01*
X120799000Y-109881000D01*
X120799000Y-108979000D01*
X121901000Y-108979000D01*
X121901000Y-109881000D01*
X121901000Y-109881000D01*
G37*
G36*
X134651000Y-109651000D02*
G01*
X131349000Y-109651000D01*
X131349000Y-106349000D01*
X134651000Y-106349000D01*
X134651000Y-109651000D01*
X134651000Y-109651000D01*
G37*
G36*
X118083651Y-106372888D02*
G01*
X118394870Y-106467296D01*
X118681680Y-106620599D01*
X118681683Y-106620601D01*
X118681684Y-106620602D01*
X118933082Y-106826918D01*
X119112099Y-107045052D01*
X119139401Y-107078320D01*
X119292704Y-107365130D01*
X119387112Y-107676349D01*
X119418988Y-108000000D01*
X119387112Y-108323651D01*
X119292704Y-108634870D01*
X119139401Y-108921680D01*
X119139399Y-108921683D01*
X119139398Y-108921684D01*
X118933082Y-109173082D01*
X118685740Y-109376069D01*
X118681680Y-109379401D01*
X118394870Y-109532704D01*
X118083651Y-109627112D01*
X117841107Y-109651000D01*
X117678893Y-109651000D01*
X117436349Y-109627112D01*
X117125130Y-109532704D01*
X116838320Y-109379401D01*
X116834260Y-109376069D01*
X116586918Y-109173082D01*
X116380602Y-108921684D01*
X116380601Y-108921683D01*
X116380599Y-108921680D01*
X116227296Y-108634870D01*
X116132888Y-108323651D01*
X116101012Y-108000000D01*
X116132888Y-107676349D01*
X116227296Y-107365130D01*
X116380599Y-107078320D01*
X116407901Y-107045052D01*
X116586918Y-106826918D01*
X116838316Y-106620602D01*
X116838317Y-106620601D01*
X116838320Y-106620599D01*
X117125130Y-106467296D01*
X117436349Y-106372888D01*
X117678893Y-106349000D01*
X117841107Y-106349000D01*
X118083651Y-106372888D01*
X118083651Y-106372888D01*
G37*
G36*
X168010723Y-107652939D02*
G01*
X168043280Y-107662815D01*
X168073276Y-107678848D01*
X168099572Y-107700428D01*
X168121152Y-107726724D01*
X168137185Y-107756720D01*
X168147061Y-107789277D01*
X168151000Y-107829269D01*
X168151000Y-109370731D01*
X168147061Y-109410723D01*
X168137185Y-109443280D01*
X168121152Y-109473276D01*
X168099572Y-109499572D01*
X168073276Y-109521152D01*
X168043280Y-109537185D01*
X168010723Y-109547061D01*
X167970731Y-109551000D01*
X166429269Y-109551000D01*
X166389277Y-109547061D01*
X166356720Y-109537185D01*
X166326724Y-109521152D01*
X166300428Y-109499572D01*
X166278848Y-109473276D01*
X166262815Y-109443280D01*
X166252939Y-109410723D01*
X166249000Y-109370731D01*
X166249000Y-107829269D01*
X166252939Y-107789277D01*
X166262815Y-107756720D01*
X166278848Y-107726724D01*
X166300428Y-107700428D01*
X166326724Y-107678848D01*
X166356720Y-107662815D01*
X166389277Y-107652939D01*
X166429269Y-107649000D01*
X167970731Y-107649000D01*
X168010723Y-107652939D01*
X168010723Y-107652939D01*
G37*
G36*
X115379591Y-108515585D02*
G01*
X115413569Y-108525893D01*
X115444890Y-108542634D01*
X115472339Y-108565161D01*
X115494866Y-108592610D01*
X115511607Y-108623931D01*
X115521915Y-108657909D01*
X115526000Y-108699390D01*
X115526000Y-109300610D01*
X115521915Y-109342091D01*
X115511607Y-109376069D01*
X115494866Y-109407390D01*
X115472339Y-109434839D01*
X115444890Y-109457366D01*
X115413569Y-109474107D01*
X115379591Y-109484415D01*
X115338110Y-109488500D01*
X114661890Y-109488500D01*
X114620409Y-109484415D01*
X114586431Y-109474107D01*
X114555110Y-109457366D01*
X114527661Y-109434839D01*
X114505134Y-109407390D01*
X114488393Y-109376069D01*
X114478085Y-109342091D01*
X114474000Y-109300610D01*
X114474000Y-108699390D01*
X114478085Y-108657909D01*
X114488393Y-108623931D01*
X114505134Y-108592610D01*
X114527661Y-108565161D01*
X114555110Y-108542634D01*
X114586431Y-108525893D01*
X114620409Y-108515585D01*
X114661890Y-108511500D01*
X115338110Y-108511500D01*
X115379591Y-108515585D01*
X115379591Y-108515585D01*
G37*
G36*
X159426000Y-108851000D02*
G01*
X157774000Y-108851000D01*
X157774000Y-108149000D01*
X159426000Y-108149000D01*
X159426000Y-108851000D01*
X159426000Y-108851000D01*
G37*
G36*
X164826000Y-108851000D02*
G01*
X163174000Y-108851000D01*
X163174000Y-108149000D01*
X164826000Y-108149000D01*
X164826000Y-108851000D01*
X164826000Y-108851000D01*
G37*
G36*
X123566387Y-107832390D02*
G01*
X123646136Y-107848253D01*
X123676909Y-107861000D01*
X123737311Y-107886019D01*
X123771416Y-107908807D01*
X123819369Y-107940848D01*
X123889152Y-108010631D01*
X123889153Y-108010633D01*
X123943981Y-108092689D01*
X123981747Y-108183865D01*
X124001000Y-108280655D01*
X124001000Y-108379345D01*
X123994192Y-108413569D01*
X123981747Y-108476136D01*
X123970014Y-108504461D01*
X123943981Y-108567311D01*
X123938175Y-108576000D01*
X123889152Y-108649369D01*
X123819369Y-108719152D01*
X123778062Y-108746752D01*
X123737311Y-108773981D01*
X123683902Y-108796104D01*
X123646136Y-108811747D01*
X123597740Y-108821373D01*
X123549345Y-108831000D01*
X123450655Y-108831000D01*
X123402260Y-108821373D01*
X123353864Y-108811747D01*
X123316098Y-108796104D01*
X123262689Y-108773981D01*
X123221938Y-108746752D01*
X123180631Y-108719152D01*
X123110848Y-108649369D01*
X123061825Y-108576000D01*
X123056019Y-108567311D01*
X123029986Y-108504461D01*
X123018253Y-108476136D01*
X123005808Y-108413569D01*
X122999000Y-108379345D01*
X122999000Y-108280655D01*
X123018253Y-108183865D01*
X123056019Y-108092689D01*
X123110847Y-108010633D01*
X123110848Y-108010631D01*
X123180631Y-107940848D01*
X123228584Y-107908807D01*
X123262689Y-107886019D01*
X123323091Y-107861000D01*
X123353864Y-107848253D01*
X123433613Y-107832390D01*
X123450655Y-107829000D01*
X123549345Y-107829000D01*
X123566387Y-107832390D01*
X123566387Y-107832390D01*
G37*
G36*
X126566387Y-107832390D02*
G01*
X126646136Y-107848253D01*
X126676909Y-107861000D01*
X126737311Y-107886019D01*
X126771416Y-107908807D01*
X126819369Y-107940848D01*
X126889152Y-108010631D01*
X126889153Y-108010633D01*
X126943981Y-108092689D01*
X126981747Y-108183865D01*
X127001000Y-108280655D01*
X127001000Y-108379345D01*
X126994192Y-108413569D01*
X126981747Y-108476136D01*
X126970014Y-108504461D01*
X126943981Y-108567311D01*
X126938175Y-108576000D01*
X126889152Y-108649369D01*
X126819369Y-108719152D01*
X126778062Y-108746752D01*
X126737311Y-108773981D01*
X126683902Y-108796104D01*
X126646136Y-108811747D01*
X126597740Y-108821373D01*
X126549345Y-108831000D01*
X126450655Y-108831000D01*
X126402260Y-108821373D01*
X126353864Y-108811747D01*
X126316098Y-108796104D01*
X126262689Y-108773981D01*
X126221938Y-108746752D01*
X126180631Y-108719152D01*
X126110848Y-108649369D01*
X126061825Y-108576000D01*
X126056019Y-108567311D01*
X126029986Y-108504461D01*
X126018253Y-108476136D01*
X126005808Y-108413569D01*
X125999000Y-108379345D01*
X125999000Y-108280655D01*
X126018253Y-108183865D01*
X126056019Y-108092689D01*
X126110847Y-108010633D01*
X126110848Y-108010631D01*
X126180631Y-107940848D01*
X126228584Y-107908807D01*
X126262689Y-107886019D01*
X126323091Y-107861000D01*
X126353864Y-107848253D01*
X126433613Y-107832390D01*
X126450655Y-107829000D01*
X126549345Y-107829000D01*
X126566387Y-107832390D01*
X126566387Y-107832390D01*
G37*
G36*
X144879591Y-107603085D02*
G01*
X144913569Y-107613393D01*
X144944890Y-107630134D01*
X144972339Y-107652661D01*
X144994866Y-107680110D01*
X145011607Y-107711431D01*
X145021915Y-107745409D01*
X145026000Y-107786890D01*
X145026000Y-108388110D01*
X145021915Y-108429591D01*
X145011607Y-108463569D01*
X144994866Y-108494890D01*
X144972339Y-108522339D01*
X144944890Y-108544866D01*
X144913569Y-108561607D01*
X144879591Y-108571915D01*
X144838110Y-108576000D01*
X144161890Y-108576000D01*
X144120409Y-108571915D01*
X144086431Y-108561607D01*
X144055110Y-108544866D01*
X144027661Y-108522339D01*
X144005134Y-108494890D01*
X143988393Y-108463569D01*
X143978085Y-108429591D01*
X143974000Y-108388110D01*
X143974000Y-107786890D01*
X143978085Y-107745409D01*
X143988393Y-107711431D01*
X144005134Y-107680110D01*
X144027661Y-107652661D01*
X144055110Y-107630134D01*
X144086431Y-107613393D01*
X144120409Y-107603085D01*
X144161890Y-107599000D01*
X144838110Y-107599000D01*
X144879591Y-107603085D01*
X144879591Y-107603085D01*
G37*
G36*
X138542091Y-107478085D02*
G01*
X138576069Y-107488393D01*
X138607390Y-107505134D01*
X138634839Y-107527661D01*
X138657366Y-107555110D01*
X138674107Y-107586431D01*
X138684415Y-107620409D01*
X138688500Y-107661890D01*
X138688500Y-108338110D01*
X138684415Y-108379591D01*
X138674107Y-108413569D01*
X138657366Y-108444890D01*
X138634839Y-108472339D01*
X138607390Y-108494866D01*
X138576069Y-108511607D01*
X138542091Y-108521915D01*
X138500610Y-108526000D01*
X137899390Y-108526000D01*
X137857909Y-108521915D01*
X137823931Y-108511607D01*
X137792610Y-108494866D01*
X137765161Y-108472339D01*
X137742634Y-108444890D01*
X137725893Y-108413569D01*
X137715585Y-108379591D01*
X137711500Y-108338110D01*
X137711500Y-107661890D01*
X137715585Y-107620409D01*
X137725893Y-107586431D01*
X137742634Y-107555110D01*
X137765161Y-107527661D01*
X137792610Y-107505134D01*
X137823931Y-107488393D01*
X137857909Y-107478085D01*
X137899390Y-107474000D01*
X138500610Y-107474000D01*
X138542091Y-107478085D01*
X138542091Y-107478085D01*
G37*
G36*
X136967091Y-107478085D02*
G01*
X137001069Y-107488393D01*
X137032390Y-107505134D01*
X137059839Y-107527661D01*
X137082366Y-107555110D01*
X137099107Y-107586431D01*
X137109415Y-107620409D01*
X137113500Y-107661890D01*
X137113500Y-108338110D01*
X137109415Y-108379591D01*
X137099107Y-108413569D01*
X137082366Y-108444890D01*
X137059839Y-108472339D01*
X137032390Y-108494866D01*
X137001069Y-108511607D01*
X136967091Y-108521915D01*
X136925610Y-108526000D01*
X136324390Y-108526000D01*
X136282909Y-108521915D01*
X136248931Y-108511607D01*
X136217610Y-108494866D01*
X136190161Y-108472339D01*
X136167634Y-108444890D01*
X136150893Y-108413569D01*
X136140585Y-108379591D01*
X136136500Y-108338110D01*
X136136500Y-107661890D01*
X136140585Y-107620409D01*
X136150893Y-107586431D01*
X136167634Y-107555110D01*
X136190161Y-107527661D01*
X136217610Y-107505134D01*
X136248931Y-107488393D01*
X136282909Y-107478085D01*
X136324390Y-107474000D01*
X136925610Y-107474000D01*
X136967091Y-107478085D01*
X136967091Y-107478085D01*
G37*
G36*
X153859999Y-106399737D02*
G01*
X153874528Y-106404145D01*
X153887711Y-106409606D01*
X153911745Y-106414388D01*
X153936249Y-106414389D01*
X153960282Y-106409609D01*
X153982921Y-106400232D01*
X153984765Y-106399000D01*
X155216050Y-106399000D01*
X155228164Y-106405475D01*
X155251613Y-106412588D01*
X155275999Y-106414990D01*
X155300385Y-106412588D01*
X155323834Y-106405475D01*
X155328746Y-106403152D01*
X155340001Y-106399737D01*
X155356140Y-106398148D01*
X155893861Y-106398148D01*
X155912199Y-106399954D01*
X155924450Y-106400556D01*
X155942869Y-106400556D01*
X155965149Y-106402750D01*
X156049233Y-106419476D01*
X156070660Y-106425976D01*
X156149858Y-106458780D01*
X156155303Y-106461691D01*
X156155309Y-106461693D01*
X156164169Y-106466429D01*
X156164173Y-106466432D01*
X156169614Y-106469340D01*
X156240899Y-106516971D01*
X156258204Y-106531172D01*
X156318828Y-106591796D01*
X156333029Y-106609101D01*
X156380660Y-106680386D01*
X156383568Y-106685827D01*
X156383571Y-106685831D01*
X156388307Y-106694691D01*
X156388309Y-106694697D01*
X156391220Y-106700142D01*
X156424024Y-106779340D01*
X156430524Y-106800767D01*
X156447250Y-106884851D01*
X156449444Y-106907131D01*
X156449444Y-106925550D01*
X156450046Y-106937801D01*
X156451852Y-106956139D01*
X156451852Y-107443862D01*
X156450046Y-107462199D01*
X156449444Y-107474450D01*
X156449444Y-107492869D01*
X156447250Y-107515149D01*
X156430524Y-107599233D01*
X156428732Y-107605140D01*
X156426229Y-107613393D01*
X156424024Y-107620660D01*
X156391220Y-107699858D01*
X156388309Y-107705303D01*
X156388307Y-107705309D01*
X156383571Y-107714169D01*
X156383568Y-107714173D01*
X156380660Y-107719614D01*
X156333029Y-107790899D01*
X156318828Y-107808204D01*
X156258204Y-107868828D01*
X156240899Y-107883029D01*
X156169614Y-107930660D01*
X156164173Y-107933568D01*
X156164169Y-107933571D01*
X156155309Y-107938307D01*
X156155303Y-107938309D01*
X156149858Y-107941220D01*
X156070660Y-107974024D01*
X156049233Y-107980524D01*
X155965149Y-107997250D01*
X155942869Y-107999444D01*
X155924450Y-107999444D01*
X155912199Y-108000046D01*
X155893862Y-108001852D01*
X155356140Y-108001852D01*
X155340001Y-108000263D01*
X155325472Y-107995855D01*
X155312289Y-107990394D01*
X155288255Y-107985612D01*
X155263751Y-107985611D01*
X155239718Y-107990391D01*
X155217079Y-107999768D01*
X155215235Y-108001000D01*
X153983950Y-108001000D01*
X153971836Y-107994525D01*
X153948387Y-107987412D01*
X153924001Y-107985010D01*
X153899615Y-107987412D01*
X153876166Y-107994525D01*
X153871254Y-107996848D01*
X153859999Y-108000263D01*
X153843860Y-108001852D01*
X153306138Y-108001852D01*
X153287801Y-108000046D01*
X153275550Y-107999444D01*
X153257131Y-107999444D01*
X153234851Y-107997250D01*
X153150767Y-107980524D01*
X153129340Y-107974024D01*
X153050142Y-107941220D01*
X153044697Y-107938309D01*
X153044691Y-107938307D01*
X153035831Y-107933571D01*
X153035827Y-107933568D01*
X153030386Y-107930660D01*
X152959101Y-107883029D01*
X152941796Y-107868828D01*
X152881172Y-107808204D01*
X152866971Y-107790899D01*
X152819340Y-107719614D01*
X152816432Y-107714173D01*
X152816429Y-107714169D01*
X152811693Y-107705309D01*
X152811691Y-107705303D01*
X152808780Y-107699858D01*
X152775976Y-107620660D01*
X152773772Y-107613393D01*
X152771268Y-107605140D01*
X152769476Y-107599233D01*
X152752750Y-107515149D01*
X152750556Y-107492869D01*
X152750556Y-107474450D01*
X152749954Y-107462199D01*
X152748148Y-107443862D01*
X152748148Y-106956139D01*
X152749954Y-106937801D01*
X152750556Y-106925550D01*
X152750556Y-106907131D01*
X152752750Y-106884851D01*
X152769476Y-106800767D01*
X152775976Y-106779340D01*
X152808780Y-106700142D01*
X152811691Y-106694697D01*
X152811693Y-106694691D01*
X152816429Y-106685831D01*
X152816432Y-106685827D01*
X152819340Y-106680386D01*
X152866971Y-106609101D01*
X152881172Y-106591796D01*
X152941796Y-106531172D01*
X152959101Y-106516971D01*
X153030386Y-106469340D01*
X153035827Y-106466432D01*
X153035831Y-106466429D01*
X153044691Y-106461693D01*
X153044697Y-106461691D01*
X153050142Y-106458780D01*
X153129340Y-106425976D01*
X153150767Y-106419476D01*
X153234851Y-106402750D01*
X153257131Y-106400556D01*
X153275550Y-106400556D01*
X153287801Y-106399954D01*
X153306139Y-106398148D01*
X153843860Y-106398148D01*
X153859999Y-106399737D01*
X153859999Y-106399737D01*
G37*
G36*
X115379591Y-106940585D02*
G01*
X115413569Y-106950893D01*
X115444890Y-106967634D01*
X115472339Y-106990161D01*
X115494866Y-107017610D01*
X115511607Y-107048931D01*
X115521915Y-107082909D01*
X115526000Y-107124390D01*
X115526000Y-107725610D01*
X115521915Y-107767091D01*
X115511607Y-107801069D01*
X115494866Y-107832390D01*
X115472339Y-107859839D01*
X115444890Y-107882366D01*
X115413569Y-107899107D01*
X115379591Y-107909415D01*
X115338110Y-107913500D01*
X114661890Y-107913500D01*
X114620409Y-107909415D01*
X114586431Y-107899107D01*
X114555110Y-107882366D01*
X114527661Y-107859839D01*
X114505134Y-107832390D01*
X114488393Y-107801069D01*
X114478085Y-107767091D01*
X114474000Y-107725610D01*
X114474000Y-107124390D01*
X114478085Y-107082909D01*
X114488393Y-107048931D01*
X114505134Y-107017610D01*
X114527661Y-106990161D01*
X114555110Y-106967634D01*
X114586431Y-106950893D01*
X114620409Y-106940585D01*
X114661890Y-106936500D01*
X115338110Y-106936500D01*
X115379591Y-106940585D01*
X115379591Y-106940585D01*
G37*
G36*
X112106843Y-106065164D02*
G01*
X112176627Y-106072037D01*
X112346466Y-106123557D01*
X112502991Y-106207222D01*
X112538729Y-106236552D01*
X112640186Y-106319814D01*
X112718294Y-106414990D01*
X112752778Y-106457009D01*
X112759369Y-106469340D01*
X112834074Y-106609101D01*
X112836443Y-106613534D01*
X112887963Y-106783373D01*
X112905359Y-106960000D01*
X112887963Y-107136627D01*
X112836443Y-107306466D01*
X112836442Y-107306468D01*
X112833695Y-107311607D01*
X112752778Y-107462991D01*
X112723448Y-107498729D01*
X112640186Y-107600186D01*
X112547382Y-107676347D01*
X112502991Y-107712778D01*
X112346466Y-107796443D01*
X112176627Y-107847963D01*
X112110443Y-107854481D01*
X112044260Y-107861000D01*
X111955740Y-107861000D01*
X111889557Y-107854481D01*
X111823373Y-107847963D01*
X111653534Y-107796443D01*
X111497009Y-107712778D01*
X111452618Y-107676347D01*
X111359814Y-107600186D01*
X111276552Y-107498729D01*
X111247222Y-107462991D01*
X111166305Y-107311607D01*
X111163558Y-107306468D01*
X111163557Y-107306466D01*
X111112037Y-107136627D01*
X111094641Y-106960000D01*
X111112037Y-106783373D01*
X111163557Y-106613534D01*
X111165927Y-106609101D01*
X111240631Y-106469340D01*
X111247222Y-106457009D01*
X111281706Y-106414990D01*
X111359814Y-106319814D01*
X111461271Y-106236552D01*
X111497009Y-106207222D01*
X111653534Y-106123557D01*
X111823373Y-106072037D01*
X111893157Y-106065164D01*
X111955740Y-106059000D01*
X112044260Y-106059000D01*
X112106843Y-106065164D01*
X112106843Y-106065164D01*
G37*
G36*
X129201000Y-107671000D02*
G01*
X128099000Y-107671000D01*
X128099000Y-106769000D01*
X129201000Y-106769000D01*
X129201000Y-107671000D01*
X129201000Y-107671000D01*
G37*
G36*
X121901000Y-107671000D02*
G01*
X120799000Y-107671000D01*
X120799000Y-106769000D01*
X121901000Y-106769000D01*
X121901000Y-107671000D01*
X121901000Y-107671000D01*
G37*
G36*
X164826000Y-107581000D02*
G01*
X163174000Y-107581000D01*
X163174000Y-106879000D01*
X164826000Y-106879000D01*
X164826000Y-107581000D01*
X164826000Y-107581000D01*
G37*
G36*
X159426000Y-107581000D02*
G01*
X157774000Y-107581000D01*
X157774000Y-106879000D01*
X159426000Y-106879000D01*
X159426000Y-107581000D01*
X159426000Y-107581000D01*
G37*
G36*
X123151000Y-107371000D02*
G01*
X122349000Y-107371000D01*
X122349000Y-105769000D01*
X123151000Y-105769000D01*
X123151000Y-107371000D01*
X123151000Y-107371000D01*
G37*
G36*
X127651000Y-107371000D02*
G01*
X126849000Y-107371000D01*
X126849000Y-105769000D01*
X127651000Y-105769000D01*
X127651000Y-107371000D01*
X127651000Y-107371000D01*
G37*
G36*
X124651000Y-107371000D02*
G01*
X123849000Y-107371000D01*
X123849000Y-105769000D01*
X124651000Y-105769000D01*
X124651000Y-107371000D01*
X124651000Y-107371000D01*
G37*
G36*
X149554591Y-106278085D02*
G01*
X149588569Y-106288393D01*
X149619890Y-106305134D01*
X149647339Y-106327661D01*
X149669866Y-106355110D01*
X149686607Y-106386431D01*
X149696915Y-106420409D01*
X149701000Y-106461890D01*
X149701000Y-107138110D01*
X149696915Y-107179591D01*
X149686607Y-107213569D01*
X149669866Y-107244890D01*
X149647339Y-107272339D01*
X149619890Y-107294866D01*
X149588569Y-107311607D01*
X149554591Y-107321915D01*
X149513110Y-107326000D01*
X148911890Y-107326000D01*
X148870409Y-107321915D01*
X148836431Y-107311607D01*
X148805110Y-107294866D01*
X148777661Y-107272339D01*
X148755134Y-107244890D01*
X148738393Y-107213569D01*
X148728085Y-107179591D01*
X148724000Y-107138110D01*
X148724000Y-106461890D01*
X148728085Y-106420409D01*
X148738393Y-106386431D01*
X148755134Y-106355110D01*
X148777661Y-106327661D01*
X148805110Y-106305134D01*
X148836431Y-106288393D01*
X148870409Y-106278085D01*
X148911890Y-106274000D01*
X149513110Y-106274000D01*
X149554591Y-106278085D01*
X149554591Y-106278085D01*
G37*
G36*
X151129591Y-106278085D02*
G01*
X151163569Y-106288393D01*
X151194890Y-106305134D01*
X151222339Y-106327661D01*
X151244866Y-106355110D01*
X151261607Y-106386431D01*
X151271915Y-106420409D01*
X151276000Y-106461890D01*
X151276000Y-107138110D01*
X151271915Y-107179591D01*
X151261607Y-107213569D01*
X151244866Y-107244890D01*
X151222339Y-107272339D01*
X151194890Y-107294866D01*
X151163569Y-107311607D01*
X151129591Y-107321915D01*
X151088110Y-107326000D01*
X150486890Y-107326000D01*
X150445409Y-107321915D01*
X150411431Y-107311607D01*
X150380110Y-107294866D01*
X150352661Y-107272339D01*
X150330134Y-107244890D01*
X150313393Y-107213569D01*
X150303085Y-107179591D01*
X150299000Y-107138110D01*
X150299000Y-106461890D01*
X150303085Y-106420409D01*
X150313393Y-106386431D01*
X150330134Y-106355110D01*
X150352661Y-106327661D01*
X150380110Y-106305134D01*
X150411431Y-106288393D01*
X150445409Y-106278085D01*
X150486890Y-106274000D01*
X151088110Y-106274000D01*
X151129591Y-106278085D01*
X151129591Y-106278085D01*
G37*
G36*
X167477395Y-105145546D02*
G01*
X167650466Y-105217234D01*
X167650467Y-105217235D01*
X167806227Y-105321310D01*
X167938690Y-105453773D01*
X167977333Y-105511607D01*
X168042766Y-105609534D01*
X168114454Y-105782605D01*
X168151000Y-105966333D01*
X168151000Y-106153667D01*
X168114454Y-106337395D01*
X168042766Y-106510466D01*
X167991081Y-106587818D01*
X167938690Y-106666227D01*
X167806227Y-106798690D01*
X167763979Y-106826919D01*
X167650466Y-106902766D01*
X167477395Y-106974454D01*
X167293667Y-107011000D01*
X167106333Y-107011000D01*
X166922605Y-106974454D01*
X166749534Y-106902766D01*
X166636021Y-106826919D01*
X166593773Y-106798690D01*
X166461310Y-106666227D01*
X166408919Y-106587818D01*
X166357234Y-106510466D01*
X166285546Y-106337395D01*
X166249000Y-106153667D01*
X166249000Y-105966333D01*
X166285546Y-105782605D01*
X166357234Y-105609534D01*
X166422667Y-105511607D01*
X166461310Y-105453773D01*
X166593773Y-105321310D01*
X166749533Y-105217235D01*
X166749534Y-105217234D01*
X166922605Y-105145546D01*
X167106333Y-105109000D01*
X167293667Y-105109000D01*
X167477395Y-105145546D01*
X167477395Y-105145546D01*
G37*
G36*
X144879591Y-106028085D02*
G01*
X144913569Y-106038393D01*
X144944890Y-106055134D01*
X144972339Y-106077661D01*
X144994866Y-106105110D01*
X145011607Y-106136431D01*
X145021915Y-106170409D01*
X145026000Y-106211890D01*
X145026000Y-106813110D01*
X145021915Y-106854591D01*
X145011607Y-106888569D01*
X144994866Y-106919890D01*
X144972339Y-106947339D01*
X144944890Y-106969866D01*
X144913569Y-106986607D01*
X144879591Y-106996915D01*
X144838110Y-107001000D01*
X144161890Y-107001000D01*
X144120409Y-106996915D01*
X144086431Y-106986607D01*
X144055110Y-106969866D01*
X144027661Y-106947339D01*
X144005134Y-106919890D01*
X143988393Y-106888569D01*
X143978085Y-106854591D01*
X143974000Y-106813110D01*
X143974000Y-106211890D01*
X143978085Y-106170409D01*
X143988393Y-106136431D01*
X144005134Y-106105110D01*
X144027661Y-106077661D01*
X144055110Y-106055134D01*
X144086431Y-106038393D01*
X144120409Y-106028085D01*
X144161890Y-106024000D01*
X144838110Y-106024000D01*
X144879591Y-106028085D01*
X144879591Y-106028085D01*
G37*
G36*
X159426000Y-106311000D02*
G01*
X157774000Y-106311000D01*
X157774000Y-105609000D01*
X159426000Y-105609000D01*
X159426000Y-106311000D01*
X159426000Y-106311000D01*
G37*
G36*
X164826000Y-106311000D02*
G01*
X163174000Y-106311000D01*
X163174000Y-105609000D01*
X164826000Y-105609000D01*
X164826000Y-106311000D01*
X164826000Y-106311000D01*
G37*
G36*
X151129591Y-104478085D02*
G01*
X151163569Y-104488393D01*
X151194890Y-104505134D01*
X151222339Y-104527661D01*
X151244866Y-104555110D01*
X151261607Y-104586431D01*
X151271915Y-104620409D01*
X151276000Y-104661890D01*
X151276000Y-105338110D01*
X151271915Y-105379591D01*
X151261607Y-105413569D01*
X151244866Y-105444890D01*
X151222339Y-105472339D01*
X151194890Y-105494866D01*
X151163569Y-105511607D01*
X151129591Y-105521915D01*
X151088110Y-105526000D01*
X150486890Y-105526000D01*
X150445409Y-105521915D01*
X150411431Y-105511607D01*
X150380110Y-105494866D01*
X150352661Y-105472339D01*
X150330134Y-105444890D01*
X150313393Y-105413569D01*
X150303085Y-105379591D01*
X150299000Y-105338110D01*
X150299000Y-104661890D01*
X150303085Y-104620409D01*
X150313393Y-104586431D01*
X150330134Y-104555110D01*
X150352661Y-104527661D01*
X150380110Y-104505134D01*
X150411431Y-104488393D01*
X150445409Y-104478085D01*
X150486890Y-104474000D01*
X151088110Y-104474000D01*
X151129591Y-104478085D01*
X151129591Y-104478085D01*
G37*
G36*
X149554591Y-104478085D02*
G01*
X149588569Y-104488393D01*
X149619890Y-104505134D01*
X149647339Y-104527661D01*
X149669866Y-104555110D01*
X149686607Y-104586431D01*
X149696915Y-104620409D01*
X149701000Y-104661890D01*
X149701000Y-105338110D01*
X149696915Y-105379591D01*
X149686607Y-105413569D01*
X149669866Y-105444890D01*
X149647339Y-105472339D01*
X149619890Y-105494866D01*
X149588569Y-105511607D01*
X149554591Y-105521915D01*
X149513110Y-105526000D01*
X148911890Y-105526000D01*
X148870409Y-105521915D01*
X148836431Y-105511607D01*
X148805110Y-105494866D01*
X148777661Y-105472339D01*
X148755134Y-105444890D01*
X148738393Y-105413569D01*
X148728085Y-105379591D01*
X148724000Y-105338110D01*
X148724000Y-104661890D01*
X148728085Y-104620409D01*
X148738393Y-104586431D01*
X148755134Y-104555110D01*
X148777661Y-104527661D01*
X148805110Y-104505134D01*
X148836431Y-104488393D01*
X148870409Y-104478085D01*
X148911890Y-104474000D01*
X149513110Y-104474000D01*
X149554591Y-104478085D01*
X149554591Y-104478085D01*
G37*
G36*
X134629591Y-104378085D02*
G01*
X134663569Y-104388393D01*
X134694890Y-104405134D01*
X134722339Y-104427661D01*
X134744866Y-104455110D01*
X134761607Y-104486431D01*
X134771915Y-104520409D01*
X134776000Y-104561890D01*
X134776000Y-105238110D01*
X134771915Y-105279591D01*
X134761607Y-105313569D01*
X134744866Y-105344890D01*
X134722339Y-105372339D01*
X134694890Y-105394866D01*
X134663569Y-105411607D01*
X134629591Y-105421915D01*
X134588110Y-105426000D01*
X133986890Y-105426000D01*
X133945409Y-105421915D01*
X133911431Y-105411607D01*
X133880110Y-105394866D01*
X133852661Y-105372339D01*
X133830134Y-105344890D01*
X133813393Y-105313569D01*
X133803085Y-105279591D01*
X133799000Y-105238110D01*
X133799000Y-104561890D01*
X133803085Y-104520409D01*
X133813393Y-104486431D01*
X133830134Y-104455110D01*
X133852661Y-104427661D01*
X133880110Y-104405134D01*
X133911431Y-104388393D01*
X133945409Y-104378085D01*
X133986890Y-104374000D01*
X134588110Y-104374000D01*
X134629591Y-104378085D01*
X134629591Y-104378085D01*
G37*
G36*
X133054591Y-104378085D02*
G01*
X133088569Y-104388393D01*
X133119890Y-104405134D01*
X133147339Y-104427661D01*
X133169866Y-104455110D01*
X133186607Y-104486431D01*
X133196915Y-104520409D01*
X133201000Y-104561890D01*
X133201000Y-105238110D01*
X133196915Y-105279591D01*
X133186607Y-105313569D01*
X133169866Y-105344890D01*
X133147339Y-105372339D01*
X133119890Y-105394866D01*
X133088569Y-105411607D01*
X133054591Y-105421915D01*
X133013110Y-105426000D01*
X132411890Y-105426000D01*
X132370409Y-105421915D01*
X132336431Y-105411607D01*
X132305110Y-105394866D01*
X132277661Y-105372339D01*
X132255134Y-105344890D01*
X132238393Y-105313569D01*
X132228085Y-105279591D01*
X132224000Y-105238110D01*
X132224000Y-104561890D01*
X132228085Y-104520409D01*
X132238393Y-104486431D01*
X132255134Y-104455110D01*
X132277661Y-104427661D01*
X132305110Y-104405134D01*
X132336431Y-104388393D01*
X132370409Y-104378085D01*
X132411890Y-104374000D01*
X133013110Y-104374000D01*
X133054591Y-104378085D01*
X133054591Y-104378085D01*
G37*
G36*
X153859999Y-103599737D02*
G01*
X153874528Y-103604145D01*
X153887711Y-103609606D01*
X153911745Y-103614388D01*
X153936249Y-103614389D01*
X153960282Y-103609609D01*
X153982921Y-103600232D01*
X153984765Y-103599000D01*
X155216050Y-103599000D01*
X155228164Y-103605475D01*
X155251613Y-103612588D01*
X155275999Y-103614990D01*
X155300385Y-103612588D01*
X155323834Y-103605475D01*
X155328746Y-103603152D01*
X155340001Y-103599737D01*
X155356140Y-103598148D01*
X155893861Y-103598148D01*
X155912199Y-103599954D01*
X155924450Y-103600556D01*
X155942869Y-103600556D01*
X155965149Y-103602750D01*
X156049233Y-103619476D01*
X156070660Y-103625976D01*
X156149858Y-103658780D01*
X156155303Y-103661691D01*
X156155309Y-103661693D01*
X156164169Y-103666429D01*
X156164173Y-103666432D01*
X156169614Y-103669340D01*
X156240899Y-103716971D01*
X156258204Y-103731172D01*
X156318828Y-103791796D01*
X156333029Y-103809101D01*
X156380660Y-103880386D01*
X156383568Y-103885827D01*
X156383571Y-103885831D01*
X156388307Y-103894691D01*
X156388309Y-103894697D01*
X156391220Y-103900142D01*
X156424024Y-103979340D01*
X156430524Y-104000767D01*
X156447250Y-104084851D01*
X156449444Y-104107131D01*
X156449444Y-104125550D01*
X156450046Y-104137801D01*
X156451852Y-104156139D01*
X156451852Y-104643862D01*
X156450046Y-104662199D01*
X156449444Y-104674450D01*
X156449444Y-104692869D01*
X156447250Y-104715149D01*
X156430524Y-104799233D01*
X156424024Y-104820660D01*
X156391220Y-104899858D01*
X156388309Y-104905303D01*
X156388307Y-104905309D01*
X156383571Y-104914169D01*
X156383568Y-104914173D01*
X156380660Y-104919614D01*
X156333029Y-104990899D01*
X156318828Y-105008204D01*
X156258204Y-105068828D01*
X156240899Y-105083029D01*
X156169614Y-105130660D01*
X156164173Y-105133568D01*
X156164169Y-105133571D01*
X156155309Y-105138307D01*
X156155303Y-105138309D01*
X156149858Y-105141220D01*
X156070660Y-105174024D01*
X156049233Y-105180524D01*
X155965149Y-105197250D01*
X155942869Y-105199444D01*
X155924450Y-105199444D01*
X155912199Y-105200046D01*
X155893862Y-105201852D01*
X155356140Y-105201852D01*
X155340001Y-105200263D01*
X155325472Y-105195855D01*
X155312289Y-105190394D01*
X155288255Y-105185612D01*
X155263751Y-105185611D01*
X155239718Y-105190391D01*
X155217079Y-105199768D01*
X155215235Y-105201000D01*
X153983950Y-105201000D01*
X153971836Y-105194525D01*
X153948387Y-105187412D01*
X153924001Y-105185010D01*
X153899615Y-105187412D01*
X153876166Y-105194525D01*
X153871254Y-105196848D01*
X153859999Y-105200263D01*
X153843860Y-105201852D01*
X153306138Y-105201852D01*
X153287801Y-105200046D01*
X153275550Y-105199444D01*
X153257131Y-105199444D01*
X153234851Y-105197250D01*
X153150767Y-105180524D01*
X153129340Y-105174024D01*
X153050142Y-105141220D01*
X153044697Y-105138309D01*
X153044691Y-105138307D01*
X153035831Y-105133571D01*
X153035827Y-105133568D01*
X153030386Y-105130660D01*
X152959101Y-105083029D01*
X152941796Y-105068828D01*
X152881172Y-105008204D01*
X152866971Y-104990899D01*
X152819340Y-104919614D01*
X152816432Y-104914173D01*
X152816429Y-104914169D01*
X152811693Y-104905309D01*
X152811691Y-104905303D01*
X152808780Y-104899858D01*
X152775976Y-104820660D01*
X152769476Y-104799233D01*
X152752750Y-104715149D01*
X152750556Y-104692869D01*
X152750556Y-104674450D01*
X152749954Y-104662199D01*
X152748148Y-104643862D01*
X152748148Y-104156139D01*
X152749954Y-104137801D01*
X152750556Y-104125550D01*
X152750556Y-104107131D01*
X152752750Y-104084851D01*
X152769476Y-104000767D01*
X152775976Y-103979340D01*
X152808780Y-103900142D01*
X152811691Y-103894697D01*
X152811693Y-103894691D01*
X152816429Y-103885831D01*
X152816432Y-103885827D01*
X152819340Y-103880386D01*
X152866971Y-103809101D01*
X152881172Y-103791796D01*
X152941796Y-103731172D01*
X152959101Y-103716971D01*
X153030386Y-103669340D01*
X153035827Y-103666432D01*
X153035831Y-103666429D01*
X153044691Y-103661693D01*
X153044697Y-103661691D01*
X153050142Y-103658780D01*
X153129340Y-103625976D01*
X153150767Y-103619476D01*
X153234851Y-103602750D01*
X153257131Y-103600556D01*
X153275550Y-103600556D01*
X153287801Y-103599954D01*
X153306139Y-103598148D01*
X153843860Y-103598148D01*
X153859999Y-103599737D01*
X153859999Y-103599737D01*
G37*
G36*
X164826000Y-105041000D02*
G01*
X163174000Y-105041000D01*
X163174000Y-104339000D01*
X164826000Y-104339000D01*
X164826000Y-105041000D01*
X164826000Y-105041000D01*
G37*
G36*
X159426000Y-105041000D02*
G01*
X157774000Y-105041000D01*
X157774000Y-104339000D01*
X159426000Y-104339000D01*
X159426000Y-105041000D01*
X159426000Y-105041000D01*
G37*
G36*
X167477395Y-102605546D02*
G01*
X167650466Y-102677234D01*
X167727818Y-102728919D01*
X167806227Y-102781310D01*
X167938690Y-102913773D01*
X167938691Y-102913775D01*
X168042766Y-103069534D01*
X168114454Y-103242605D01*
X168151000Y-103426333D01*
X168151000Y-103613667D01*
X168114454Y-103797395D01*
X168042766Y-103970466D01*
X168026466Y-103994860D01*
X167938690Y-104126227D01*
X167806227Y-104258690D01*
X167727818Y-104311081D01*
X167650466Y-104362766D01*
X167477395Y-104434454D01*
X167293667Y-104471000D01*
X167106333Y-104471000D01*
X166922605Y-104434454D01*
X166749534Y-104362766D01*
X166672182Y-104311081D01*
X166593773Y-104258690D01*
X166461310Y-104126227D01*
X166373534Y-103994860D01*
X166357234Y-103970466D01*
X166285546Y-103797395D01*
X166249000Y-103613667D01*
X166249000Y-103426333D01*
X166285546Y-103242605D01*
X166357234Y-103069534D01*
X166461309Y-102913775D01*
X166461310Y-102913773D01*
X166593773Y-102781310D01*
X166672182Y-102728919D01*
X166749534Y-102677234D01*
X166922605Y-102605546D01*
X167106333Y-102569000D01*
X167293667Y-102569000D01*
X167477395Y-102605546D01*
X167477395Y-102605546D01*
G37*
G36*
X129951000Y-104201000D02*
G01*
X126049000Y-104201000D01*
X126049000Y-102099000D01*
X129951000Y-102099000D01*
X129951000Y-104201000D01*
X129951000Y-104201000D01*
G37*
G36*
X117151000Y-103951000D02*
G01*
X110649000Y-103951000D01*
X110649000Y-98049000D01*
X117151000Y-98049000D01*
X117151000Y-103951000D01*
X117151000Y-103951000D01*
G37*
G36*
X121351000Y-103931000D02*
G01*
X119049000Y-103931000D01*
X119049000Y-102629000D01*
X121351000Y-102629000D01*
X121351000Y-103931000D01*
X121351000Y-103931000D01*
G37*
G36*
X133054591Y-102578085D02*
G01*
X133088569Y-102588393D01*
X133119890Y-102605134D01*
X133147339Y-102627661D01*
X133169866Y-102655110D01*
X133186607Y-102686431D01*
X133196915Y-102720409D01*
X133201000Y-102761890D01*
X133201000Y-103438110D01*
X133196915Y-103479591D01*
X133186607Y-103513569D01*
X133169866Y-103544890D01*
X133147339Y-103572339D01*
X133119890Y-103594866D01*
X133088569Y-103611607D01*
X133054591Y-103621915D01*
X133013110Y-103626000D01*
X132411890Y-103626000D01*
X132370409Y-103621915D01*
X132336431Y-103611607D01*
X132305110Y-103594866D01*
X132277661Y-103572339D01*
X132255134Y-103544890D01*
X132238393Y-103513569D01*
X132228085Y-103479591D01*
X132224000Y-103438110D01*
X132224000Y-102761890D01*
X132228085Y-102720409D01*
X132238393Y-102686431D01*
X132255134Y-102655110D01*
X132277661Y-102627661D01*
X132305110Y-102605134D01*
X132336431Y-102588393D01*
X132370409Y-102578085D01*
X132411890Y-102574000D01*
X133013110Y-102574000D01*
X133054591Y-102578085D01*
X133054591Y-102578085D01*
G37*
G36*
X134629591Y-102578085D02*
G01*
X134663569Y-102588393D01*
X134694890Y-102605134D01*
X134722339Y-102627661D01*
X134744866Y-102655110D01*
X134761607Y-102686431D01*
X134771915Y-102720409D01*
X134776000Y-102761890D01*
X134776000Y-103438110D01*
X134771915Y-103479591D01*
X134761607Y-103513569D01*
X134744866Y-103544890D01*
X134722339Y-103572339D01*
X134694890Y-103594866D01*
X134663569Y-103611607D01*
X134629591Y-103621915D01*
X134588110Y-103626000D01*
X133986890Y-103626000D01*
X133945409Y-103621915D01*
X133911431Y-103611607D01*
X133880110Y-103594866D01*
X133852661Y-103572339D01*
X133830134Y-103544890D01*
X133813393Y-103513569D01*
X133803085Y-103479591D01*
X133799000Y-103438110D01*
X133799000Y-102761890D01*
X133803085Y-102720409D01*
X133813393Y-102686431D01*
X133830134Y-102655110D01*
X133852661Y-102627661D01*
X133880110Y-102605134D01*
X133911431Y-102588393D01*
X133945409Y-102578085D01*
X133986890Y-102574000D01*
X134588110Y-102574000D01*
X134629591Y-102578085D01*
X134629591Y-102578085D01*
G37*
G36*
X146742091Y-102378085D02*
G01*
X146776069Y-102388393D01*
X146807390Y-102405134D01*
X146834839Y-102427661D01*
X146857366Y-102455110D01*
X146874107Y-102486431D01*
X146884415Y-102520409D01*
X146888500Y-102561890D01*
X146888500Y-103238110D01*
X146884415Y-103279591D01*
X146874107Y-103313569D01*
X146857366Y-103344890D01*
X146834839Y-103372339D01*
X146807390Y-103394866D01*
X146776069Y-103411607D01*
X146742091Y-103421915D01*
X146700610Y-103426000D01*
X146099390Y-103426000D01*
X146057909Y-103421915D01*
X146023931Y-103411607D01*
X145992610Y-103394866D01*
X145965161Y-103372339D01*
X145942634Y-103344890D01*
X145925893Y-103313569D01*
X145915585Y-103279591D01*
X145911500Y-103238110D01*
X145911500Y-102561890D01*
X145915585Y-102520409D01*
X145925893Y-102486431D01*
X145942634Y-102455110D01*
X145965161Y-102427661D01*
X145992610Y-102405134D01*
X146023931Y-102388393D01*
X146057909Y-102378085D01*
X146099390Y-102374000D01*
X146700610Y-102374000D01*
X146742091Y-102378085D01*
X146742091Y-102378085D01*
G37*
G36*
X148317091Y-102378085D02*
G01*
X148351069Y-102388393D01*
X148382390Y-102405134D01*
X148409839Y-102427661D01*
X148432366Y-102455110D01*
X148449107Y-102486431D01*
X148459415Y-102520409D01*
X148463500Y-102561890D01*
X148463500Y-103238110D01*
X148459415Y-103279591D01*
X148449107Y-103313569D01*
X148432366Y-103344890D01*
X148409839Y-103372339D01*
X148382390Y-103394866D01*
X148351069Y-103411607D01*
X148317091Y-103421915D01*
X148275610Y-103426000D01*
X147674390Y-103426000D01*
X147632909Y-103421915D01*
X147598931Y-103411607D01*
X147567610Y-103394866D01*
X147540161Y-103372339D01*
X147517634Y-103344890D01*
X147500893Y-103313569D01*
X147490585Y-103279591D01*
X147486500Y-103238110D01*
X147486500Y-102561890D01*
X147490585Y-102520409D01*
X147500893Y-102486431D01*
X147517634Y-102455110D01*
X147540161Y-102427661D01*
X147567610Y-102405134D01*
X147598931Y-102388393D01*
X147632909Y-102378085D01*
X147674390Y-102374000D01*
X148275610Y-102374000D01*
X148317091Y-102378085D01*
X148317091Y-102378085D01*
G37*
G36*
X167204591Y-100978085D02*
G01*
X167238569Y-100988393D01*
X167269890Y-101005134D01*
X167297339Y-101027661D01*
X167319866Y-101055110D01*
X167336607Y-101086431D01*
X167346915Y-101120409D01*
X167351000Y-101161890D01*
X167351000Y-101763110D01*
X167346915Y-101804591D01*
X167336607Y-101838569D01*
X167319866Y-101869890D01*
X167297339Y-101897339D01*
X167269890Y-101919866D01*
X167238569Y-101936607D01*
X167204591Y-101946915D01*
X167163110Y-101951000D01*
X166486890Y-101951000D01*
X166445409Y-101946915D01*
X166411431Y-101936607D01*
X166380110Y-101919866D01*
X166352661Y-101897339D01*
X166330134Y-101869890D01*
X166313393Y-101838569D01*
X166303085Y-101804591D01*
X166299000Y-101763110D01*
X166299000Y-101161890D01*
X166303085Y-101120409D01*
X166313393Y-101086431D01*
X166330134Y-101055110D01*
X166352661Y-101027661D01*
X166380110Y-101005134D01*
X166411431Y-100988393D01*
X166445409Y-100978085D01*
X166486890Y-100974000D01*
X167163110Y-100974000D01*
X167204591Y-100978085D01*
X167204591Y-100978085D01*
G37*
G36*
X140599675Y-96760140D02*
G01*
X140599675Y-96760141D01*
X140704326Y-96864792D01*
X140704326Y-96864791D01*
X140953228Y-97113693D01*
X140953228Y-97113694D01*
X141057880Y-97218346D01*
X141057880Y-97218345D01*
X141306782Y-97467247D01*
X141306782Y-97467248D01*
X141411433Y-97571899D01*
X141411433Y-97571898D01*
X141660335Y-97820800D01*
X141660335Y-97820801D01*
X141764986Y-97925452D01*
X141764986Y-97925451D01*
X142013888Y-98174353D01*
X142013888Y-98174354D01*
X142118540Y-98279006D01*
X142118540Y-98279005D01*
X142367442Y-98527907D01*
X142367442Y-98527908D01*
X142472093Y-98632559D01*
X142472093Y-98632558D01*
X142720995Y-98881460D01*
X142720995Y-98881461D01*
X142825647Y-98986113D01*
X142825647Y-98986112D01*
X143074549Y-99235014D01*
X143074549Y-99235015D01*
X143179200Y-99339666D01*
X143179200Y-99339665D01*
X143428102Y-99588567D01*
X143428102Y-99588568D01*
X143532753Y-99693219D01*
X143532753Y-99693218D01*
X143781655Y-99942120D01*
X143781655Y-99942121D01*
X143886307Y-100046773D01*
X143886307Y-100046772D01*
X144135209Y-100295674D01*
X144135209Y-100295675D01*
X144239860Y-100400326D01*
X144239860Y-100400325D01*
X144488762Y-100649227D01*
X143497398Y-101640591D01*
X143248496Y-101391689D01*
X143248497Y-101391689D01*
X143143846Y-101287038D01*
X143143845Y-101287038D01*
X142894943Y-101038136D01*
X142894944Y-101038136D01*
X142790292Y-100933484D01*
X142790291Y-100933484D01*
X142541389Y-100684582D01*
X142541390Y-100684582D01*
X142436739Y-100579931D01*
X142436738Y-100579931D01*
X142187836Y-100331029D01*
X142187837Y-100331029D01*
X142083186Y-100226378D01*
X142083185Y-100226378D01*
X141834283Y-99977476D01*
X141834284Y-99977476D01*
X141729632Y-99872824D01*
X141729631Y-99872824D01*
X141480729Y-99623922D01*
X141480730Y-99623922D01*
X141376079Y-99519271D01*
X141376078Y-99519271D01*
X141127176Y-99270369D01*
X141127177Y-99270369D01*
X141022525Y-99165717D01*
X141022524Y-99165717D01*
X140773622Y-98916815D01*
X140773623Y-98916815D01*
X140668972Y-98812164D01*
X140668971Y-98812164D01*
X140420069Y-98563262D01*
X140420070Y-98563262D01*
X140315419Y-98458611D01*
X140315418Y-98458611D01*
X140066516Y-98209709D01*
X140066517Y-98209709D01*
X139961865Y-98105057D01*
X139961864Y-98105057D01*
X139712962Y-97856155D01*
X139712963Y-97856155D01*
X139608312Y-97751504D01*
X139608311Y-97751504D01*
X139359409Y-97502602D01*
X140350773Y-96511238D01*
X140599675Y-96760140D01*
X140599675Y-96760140D01*
G37*
G36*
X150640591Y-97502602D02*
G01*
X146502602Y-101640591D01*
X145511238Y-100649227D01*
X145760140Y-100400325D01*
X145760141Y-100400326D01*
X145864792Y-100295675D01*
X145864791Y-100295674D01*
X146113693Y-100046772D01*
X146113694Y-100046773D01*
X146218346Y-99942121D01*
X146218345Y-99942120D01*
X146467247Y-99693218D01*
X146467248Y-99693219D01*
X146571899Y-99588568D01*
X146571898Y-99588567D01*
X146820800Y-99339665D01*
X146820801Y-99339666D01*
X146925452Y-99235015D01*
X146925451Y-99235014D01*
X147174353Y-98986112D01*
X147174354Y-98986113D01*
X147279006Y-98881461D01*
X147279005Y-98881460D01*
X147527907Y-98632558D01*
X147527908Y-98632559D01*
X147632559Y-98527908D01*
X147632558Y-98527907D01*
X147881460Y-98279005D01*
X147881461Y-98279006D01*
X147986113Y-98174354D01*
X147986112Y-98174353D01*
X148235014Y-97925451D01*
X148235015Y-97925452D01*
X148339666Y-97820801D01*
X148339665Y-97820800D01*
X148588567Y-97571898D01*
X148588568Y-97571899D01*
X148693219Y-97467248D01*
X148693218Y-97467247D01*
X148942120Y-97218345D01*
X148942121Y-97218346D01*
X149046773Y-97113694D01*
X149046772Y-97113693D01*
X149295674Y-96864791D01*
X149295675Y-96864792D01*
X149400326Y-96760141D01*
X149400325Y-96760140D01*
X149649227Y-96511238D01*
X150640591Y-97502602D01*
X150640591Y-97502602D01*
G37*
G36*
X167204591Y-99403085D02*
G01*
X167238569Y-99413393D01*
X167269890Y-99430134D01*
X167297339Y-99452661D01*
X167319866Y-99480110D01*
X167336607Y-99511431D01*
X167346915Y-99545409D01*
X167351000Y-99586890D01*
X167351000Y-100188110D01*
X167346915Y-100229591D01*
X167336607Y-100263569D01*
X167319866Y-100294890D01*
X167297339Y-100322339D01*
X167269890Y-100344866D01*
X167238569Y-100361607D01*
X167204591Y-100371915D01*
X167163110Y-100376000D01*
X166486890Y-100376000D01*
X166445409Y-100371915D01*
X166411431Y-100361607D01*
X166380110Y-100344866D01*
X166352661Y-100322339D01*
X166330134Y-100294890D01*
X166313393Y-100263569D01*
X166303085Y-100229591D01*
X166299000Y-100188110D01*
X166299000Y-99586890D01*
X166303085Y-99545409D01*
X166313393Y-99511431D01*
X166330134Y-99480110D01*
X166352661Y-99452661D01*
X166380110Y-99430134D01*
X166411431Y-99413393D01*
X166445409Y-99403085D01*
X166486890Y-99399000D01*
X167163110Y-99399000D01*
X167204591Y-99403085D01*
X167204591Y-99403085D01*
G37*
G36*
X121351000Y-99371000D02*
G01*
X119049000Y-99371000D01*
X119049000Y-98069000D01*
X121351000Y-98069000D01*
X121351000Y-99371000D01*
X121351000Y-99371000D01*
G37*
G36*
X167204591Y-97840585D02*
G01*
X167238569Y-97850893D01*
X167269890Y-97867634D01*
X167297339Y-97890161D01*
X167319866Y-97917610D01*
X167336607Y-97948931D01*
X167346915Y-97982909D01*
X167351000Y-98024390D01*
X167351000Y-98625610D01*
X167346915Y-98667091D01*
X167336607Y-98701069D01*
X167319866Y-98732390D01*
X167297339Y-98759839D01*
X167269890Y-98782366D01*
X167238569Y-98799107D01*
X167204591Y-98809415D01*
X167163110Y-98813500D01*
X166486890Y-98813500D01*
X166445409Y-98809415D01*
X166411431Y-98799107D01*
X166380110Y-98782366D01*
X166352661Y-98759839D01*
X166330134Y-98732390D01*
X166313393Y-98701069D01*
X166303085Y-98667091D01*
X166299000Y-98625610D01*
X166299000Y-98024390D01*
X166303085Y-97982909D01*
X166313393Y-97948931D01*
X166330134Y-97917610D01*
X166352661Y-97890161D01*
X166380110Y-97867634D01*
X166411431Y-97850893D01*
X166445409Y-97840585D01*
X166486890Y-97836500D01*
X167163110Y-97836500D01*
X167204591Y-97840585D01*
X167204591Y-97840585D01*
G37*
G36*
X131101000Y-97901000D02*
G01*
X129499000Y-97901000D01*
X129499000Y-95799000D01*
X131101000Y-95799000D01*
X131101000Y-97901000D01*
X131101000Y-97901000D01*
G37*
G36*
X128801000Y-97901000D02*
G01*
X127199000Y-97901000D01*
X127199000Y-95799000D01*
X128801000Y-95799000D01*
X128801000Y-97901000D01*
X128801000Y-97901000D01*
G37*
G36*
X126501000Y-97901000D02*
G01*
X124899000Y-97901000D01*
X124899000Y-95799000D01*
X126501000Y-95799000D01*
X126501000Y-97901000D01*
X126501000Y-97901000D01*
G37*
G36*
X157729591Y-96278085D02*
G01*
X157763569Y-96288393D01*
X157794890Y-96305134D01*
X157822339Y-96327661D01*
X157844866Y-96355110D01*
X157861607Y-96386431D01*
X157871915Y-96420409D01*
X157876000Y-96461890D01*
X157876000Y-97138110D01*
X157871915Y-97179591D01*
X157861607Y-97213569D01*
X157844866Y-97244890D01*
X157822339Y-97272339D01*
X157794890Y-97294866D01*
X157763569Y-97311607D01*
X157729591Y-97321915D01*
X157688110Y-97326000D01*
X157086890Y-97326000D01*
X157045409Y-97321915D01*
X157011431Y-97311607D01*
X156980110Y-97294866D01*
X156952661Y-97272339D01*
X156930134Y-97244890D01*
X156913393Y-97213569D01*
X156903085Y-97179591D01*
X156899000Y-97138110D01*
X156899000Y-96461890D01*
X156903085Y-96420409D01*
X156913393Y-96386431D01*
X156930134Y-96355110D01*
X156952661Y-96327661D01*
X156980110Y-96305134D01*
X157011431Y-96288393D01*
X157045409Y-96278085D01*
X157086890Y-96274000D01*
X157688110Y-96274000D01*
X157729591Y-96278085D01*
X157729591Y-96278085D01*
G37*
G36*
X156154591Y-96278085D02*
G01*
X156188569Y-96288393D01*
X156219890Y-96305134D01*
X156247339Y-96327661D01*
X156269866Y-96355110D01*
X156286607Y-96386431D01*
X156296915Y-96420409D01*
X156301000Y-96461890D01*
X156301000Y-97138110D01*
X156296915Y-97179591D01*
X156286607Y-97213569D01*
X156269866Y-97244890D01*
X156247339Y-97272339D01*
X156219890Y-97294866D01*
X156188569Y-97311607D01*
X156154591Y-97321915D01*
X156113110Y-97326000D01*
X155511890Y-97326000D01*
X155470409Y-97321915D01*
X155436431Y-97311607D01*
X155405110Y-97294866D01*
X155377661Y-97272339D01*
X155355134Y-97244890D01*
X155338393Y-97213569D01*
X155328085Y-97179591D01*
X155324000Y-97138110D01*
X155324000Y-96461890D01*
X155328085Y-96420409D01*
X155338393Y-96386431D01*
X155355134Y-96355110D01*
X155377661Y-96327661D01*
X155405110Y-96305134D01*
X155436431Y-96288393D01*
X155470409Y-96278085D01*
X155511890Y-96274000D01*
X156113110Y-96274000D01*
X156154591Y-96278085D01*
X156154591Y-96278085D01*
G37*
G36*
X167204591Y-96265585D02*
G01*
X167238569Y-96275893D01*
X167269890Y-96292634D01*
X167297339Y-96315161D01*
X167319866Y-96342610D01*
X167336607Y-96373931D01*
X167346915Y-96407909D01*
X167351000Y-96449390D01*
X167351000Y-97050610D01*
X167346915Y-97092091D01*
X167336607Y-97126069D01*
X167319866Y-97157390D01*
X167297339Y-97184839D01*
X167269890Y-97207366D01*
X167238569Y-97224107D01*
X167204591Y-97234415D01*
X167163110Y-97238500D01*
X166486890Y-97238500D01*
X166445409Y-97234415D01*
X166411431Y-97224107D01*
X166380110Y-97207366D01*
X166352661Y-97184839D01*
X166330134Y-97157390D01*
X166313393Y-97126069D01*
X166303085Y-97092091D01*
X166299000Y-97050610D01*
X166299000Y-96449390D01*
X166303085Y-96407909D01*
X166313393Y-96373931D01*
X166330134Y-96342610D01*
X166352661Y-96315161D01*
X166380110Y-96292634D01*
X166411431Y-96275893D01*
X166445409Y-96265585D01*
X166486890Y-96261500D01*
X167163110Y-96261500D01*
X167204591Y-96265585D01*
X167204591Y-96265585D01*
G37*
G36*
X112331000Y-97051000D02*
G01*
X111029000Y-97051000D01*
X111029000Y-95749000D01*
X112331000Y-95749000D01*
X112331000Y-97051000D01*
X112331000Y-97051000D01*
G37*
G36*
X115721000Y-95851000D02*
G01*
X114119000Y-95851000D01*
X114119000Y-94149000D01*
X115721000Y-94149000D01*
X115721000Y-95851000D01*
X115721000Y-95851000D01*
G37*
G36*
X156167091Y-94578085D02*
G01*
X156201069Y-94588393D01*
X156232390Y-94605134D01*
X156259839Y-94627661D01*
X156282366Y-94655110D01*
X156299107Y-94686431D01*
X156309415Y-94720409D01*
X156313500Y-94761890D01*
X156313500Y-95438110D01*
X156309415Y-95479591D01*
X156299107Y-95513569D01*
X156282366Y-95544890D01*
X156259839Y-95572339D01*
X156232390Y-95594866D01*
X156201069Y-95611607D01*
X156167091Y-95621915D01*
X156125610Y-95626000D01*
X155524390Y-95626000D01*
X155482909Y-95621915D01*
X155448931Y-95611607D01*
X155417610Y-95594866D01*
X155390161Y-95572339D01*
X155367634Y-95544890D01*
X155350893Y-95513569D01*
X155340585Y-95479591D01*
X155336500Y-95438110D01*
X155336500Y-94761890D01*
X155340585Y-94720409D01*
X155350893Y-94686431D01*
X155367634Y-94655110D01*
X155390161Y-94627661D01*
X155417610Y-94605134D01*
X155448931Y-94588393D01*
X155482909Y-94578085D01*
X155524390Y-94574000D01*
X156125610Y-94574000D01*
X156167091Y-94578085D01*
X156167091Y-94578085D01*
G37*
G36*
X157742091Y-94578085D02*
G01*
X157776069Y-94588393D01*
X157807390Y-94605134D01*
X157834839Y-94627661D01*
X157857366Y-94655110D01*
X157874107Y-94686431D01*
X157884415Y-94720409D01*
X157888500Y-94761890D01*
X157888500Y-95438110D01*
X157884415Y-95479591D01*
X157874107Y-95513569D01*
X157857366Y-95544890D01*
X157834839Y-95572339D01*
X157807390Y-95594866D01*
X157776069Y-95611607D01*
X157742091Y-95621915D01*
X157700610Y-95626000D01*
X157099390Y-95626000D01*
X157057909Y-95621915D01*
X157023931Y-95611607D01*
X156992610Y-95594866D01*
X156965161Y-95572339D01*
X156942634Y-95544890D01*
X156925893Y-95513569D01*
X156915585Y-95479591D01*
X156911500Y-95438110D01*
X156911500Y-94761890D01*
X156915585Y-94720409D01*
X156925893Y-94686431D01*
X156942634Y-94655110D01*
X156965161Y-94627661D01*
X156992610Y-94605134D01*
X157023931Y-94588393D01*
X157057909Y-94578085D01*
X157099390Y-94574000D01*
X157700610Y-94574000D01*
X157742091Y-94578085D01*
X157742091Y-94578085D01*
G37*
G36*
X146751504Y-90608311D02*
G01*
X146751504Y-90608312D01*
X146856155Y-90712963D01*
X146856155Y-90712962D01*
X147105057Y-90961864D01*
X147105057Y-90961865D01*
X147209709Y-91066517D01*
X147209709Y-91066516D01*
X147458611Y-91315418D01*
X147458611Y-91315419D01*
X147563262Y-91420070D01*
X147563262Y-91420069D01*
X147812164Y-91668971D01*
X147812164Y-91668972D01*
X147916815Y-91773623D01*
X147916815Y-91773622D01*
X148165717Y-92022524D01*
X148165717Y-92022525D01*
X148270369Y-92127177D01*
X148270369Y-92127176D01*
X148519271Y-92376078D01*
X148519271Y-92376079D01*
X148623922Y-92480730D01*
X148623922Y-92480729D01*
X148872824Y-92729631D01*
X148872824Y-92729632D01*
X148977476Y-92834284D01*
X148977476Y-92834283D01*
X149226378Y-93083185D01*
X149226378Y-93083186D01*
X149331029Y-93187837D01*
X149331029Y-93187836D01*
X149579931Y-93436738D01*
X149579931Y-93436739D01*
X149684582Y-93541390D01*
X149684582Y-93541389D01*
X149933484Y-93790291D01*
X149933484Y-93790292D01*
X150038136Y-93894944D01*
X150038136Y-93894943D01*
X150287038Y-94143845D01*
X150287038Y-94143846D01*
X150391689Y-94248497D01*
X150391689Y-94248496D01*
X150640591Y-94497398D01*
X149649227Y-95488762D01*
X149400325Y-95239860D01*
X149400326Y-95239860D01*
X149295675Y-95135209D01*
X149295674Y-95135209D01*
X149046772Y-94886307D01*
X149046773Y-94886307D01*
X148942121Y-94781655D01*
X148942120Y-94781655D01*
X148693218Y-94532753D01*
X148693219Y-94532753D01*
X148588568Y-94428102D01*
X148588567Y-94428102D01*
X148339665Y-94179200D01*
X148339666Y-94179200D01*
X148235015Y-94074549D01*
X148235014Y-94074549D01*
X147986112Y-93825647D01*
X147986113Y-93825647D01*
X147881461Y-93720995D01*
X147881460Y-93720995D01*
X147632558Y-93472093D01*
X147632559Y-93472093D01*
X147527908Y-93367442D01*
X147527907Y-93367442D01*
X147279005Y-93118540D01*
X147279006Y-93118540D01*
X147174354Y-93013888D01*
X147174353Y-93013888D01*
X146925451Y-92764986D01*
X146925452Y-92764986D01*
X146820801Y-92660335D01*
X146820800Y-92660335D01*
X146571898Y-92411433D01*
X146571899Y-92411433D01*
X146467248Y-92306782D01*
X146467247Y-92306782D01*
X146218345Y-92057880D01*
X146218346Y-92057880D01*
X146113694Y-91953228D01*
X146113693Y-91953228D01*
X145864791Y-91704326D01*
X145864792Y-91704326D01*
X145760141Y-91599675D01*
X145760140Y-91599675D01*
X145511238Y-91350773D01*
X146502602Y-90359409D01*
X146751504Y-90608311D01*
X146751504Y-90608311D01*
G37*
G36*
X144488762Y-91350773D02*
G01*
X140350773Y-95488762D01*
X139359409Y-94497398D01*
X139608311Y-94248496D01*
X139608312Y-94248497D01*
X139712963Y-94143846D01*
X139712962Y-94143845D01*
X139961864Y-93894943D01*
X139961865Y-93894944D01*
X140066517Y-93790292D01*
X140066516Y-93790291D01*
X140315418Y-93541389D01*
X140315419Y-93541390D01*
X140420070Y-93436739D01*
X140420069Y-93436738D01*
X140668971Y-93187836D01*
X140668972Y-93187837D01*
X140773623Y-93083186D01*
X140773622Y-93083185D01*
X141022524Y-92834283D01*
X141022525Y-92834284D01*
X141127177Y-92729632D01*
X141127176Y-92729631D01*
X141376078Y-92480729D01*
X141376079Y-92480730D01*
X141480730Y-92376079D01*
X141480729Y-92376078D01*
X141729631Y-92127176D01*
X141729632Y-92127177D01*
X141834284Y-92022525D01*
X141834283Y-92022524D01*
X142083185Y-91773622D01*
X142083186Y-91773623D01*
X142187837Y-91668972D01*
X142187836Y-91668971D01*
X142436738Y-91420069D01*
X142436739Y-91420070D01*
X142541390Y-91315419D01*
X142541389Y-91315418D01*
X142790291Y-91066516D01*
X142790292Y-91066517D01*
X142894944Y-90961865D01*
X142894943Y-90961864D01*
X143143845Y-90712962D01*
X143143846Y-90712963D01*
X143248497Y-90608312D01*
X143248496Y-90608311D01*
X143497398Y-90359409D01*
X144488762Y-91350773D01*
X144488762Y-91350773D01*
G37*
G36*
X167479591Y-94203085D02*
G01*
X167513569Y-94213393D01*
X167544890Y-94230134D01*
X167572339Y-94252661D01*
X167594866Y-94280110D01*
X167611607Y-94311431D01*
X167621915Y-94345409D01*
X167626000Y-94386890D01*
X167626000Y-94988110D01*
X167621915Y-95029591D01*
X167611607Y-95063569D01*
X167594866Y-95094890D01*
X167572339Y-95122339D01*
X167544890Y-95144866D01*
X167513569Y-95161607D01*
X167479591Y-95171915D01*
X167438110Y-95176000D01*
X166761890Y-95176000D01*
X166720409Y-95171915D01*
X166686431Y-95161607D01*
X166655110Y-95144866D01*
X166627661Y-95122339D01*
X166605134Y-95094890D01*
X166588393Y-95063569D01*
X166578085Y-95029591D01*
X166574000Y-94988110D01*
X166574000Y-94386890D01*
X166578085Y-94345409D01*
X166588393Y-94311431D01*
X166605134Y-94280110D01*
X166627661Y-94252661D01*
X166655110Y-94230134D01*
X166686431Y-94213393D01*
X166720409Y-94203085D01*
X166761890Y-94199000D01*
X167438110Y-94199000D01*
X167479591Y-94203085D01*
X167479591Y-94203085D01*
G37*
G36*
X112331000Y-94251000D02*
G01*
X111029000Y-94251000D01*
X111029000Y-92949000D01*
X112331000Y-92949000D01*
X112331000Y-94251000D01*
X112331000Y-94251000D01*
G37*
G36*
X128771000Y-94051000D02*
G01*
X127469000Y-94051000D01*
X127469000Y-92749000D01*
X128771000Y-92749000D01*
X128771000Y-94051000D01*
X128771000Y-94051000D01*
G37*
G36*
X131531000Y-94051000D02*
G01*
X130229000Y-94051000D01*
X130229000Y-92749000D01*
X131531000Y-92749000D01*
X131531000Y-94051000D01*
X131531000Y-94051000D01*
G37*
G36*
X167479591Y-92628085D02*
G01*
X167513569Y-92638393D01*
X167544890Y-92655134D01*
X167572339Y-92677661D01*
X167594866Y-92705110D01*
X167611607Y-92736431D01*
X167621915Y-92770409D01*
X167626000Y-92811890D01*
X167626000Y-93413110D01*
X167621915Y-93454591D01*
X167611607Y-93488569D01*
X167594866Y-93519890D01*
X167572339Y-93547339D01*
X167544890Y-93569866D01*
X167513569Y-93586607D01*
X167479591Y-93596915D01*
X167438110Y-93601000D01*
X166761890Y-93601000D01*
X166720409Y-93596915D01*
X166686431Y-93586607D01*
X166655110Y-93569866D01*
X166627661Y-93547339D01*
X166605134Y-93519890D01*
X166588393Y-93488569D01*
X166578085Y-93454591D01*
X166574000Y-93413110D01*
X166574000Y-92811890D01*
X166578085Y-92770409D01*
X166588393Y-92736431D01*
X166605134Y-92705110D01*
X166627661Y-92677661D01*
X166655110Y-92655134D01*
X166686431Y-92638393D01*
X166720409Y-92628085D01*
X166761890Y-92624000D01*
X167438110Y-92624000D01*
X167479591Y-92628085D01*
X167479591Y-92628085D01*
G37*
G36*
X125681000Y-92851000D02*
G01*
X124079000Y-92851000D01*
X124079000Y-91149000D01*
X125681000Y-91149000D01*
X125681000Y-92851000D01*
X125681000Y-92851000D01*
G37*
G36*
X134921000Y-92851000D02*
G01*
X133319000Y-92851000D01*
X133319000Y-91149000D01*
X134921000Y-91149000D01*
X134921000Y-92851000D01*
X134921000Y-92851000D01*
G37*
G36*
X122256000Y-92026000D02*
G01*
X121554000Y-92026000D01*
X121554000Y-90374000D01*
X122256000Y-90374000D01*
X122256000Y-92026000D01*
X122256000Y-92026000D01*
G37*
G36*
X120986000Y-92026000D02*
G01*
X120284000Y-92026000D01*
X120284000Y-90374000D01*
X120986000Y-90374000D01*
X120986000Y-92026000D01*
X120986000Y-92026000D01*
G37*
G36*
X119716000Y-92026000D02*
G01*
X119014000Y-92026000D01*
X119014000Y-90374000D01*
X119716000Y-90374000D01*
X119716000Y-92026000D01*
X119716000Y-92026000D01*
G37*
G36*
X118446000Y-92026000D02*
G01*
X117744000Y-92026000D01*
X117744000Y-90374000D01*
X118446000Y-90374000D01*
X118446000Y-92026000D01*
X118446000Y-92026000D01*
G37*
G36*
X112446000Y-92026000D02*
G01*
X111744000Y-92026000D01*
X111744000Y-90374000D01*
X112446000Y-90374000D01*
X112446000Y-92026000D01*
X112446000Y-92026000D01*
G37*
G36*
X116256000Y-92026000D02*
G01*
X115554000Y-92026000D01*
X115554000Y-90374000D01*
X116256000Y-90374000D01*
X116256000Y-92026000D01*
X116256000Y-92026000D01*
G37*
G36*
X114986000Y-92026000D02*
G01*
X114284000Y-92026000D01*
X114284000Y-90374000D01*
X114986000Y-90374000D01*
X114986000Y-92026000D01*
X114986000Y-92026000D01*
G37*
G36*
X113716000Y-92026000D02*
G01*
X113014000Y-92026000D01*
X113014000Y-90374000D01*
X113716000Y-90374000D01*
X113716000Y-92026000D01*
X113716000Y-92026000D01*
G37*
G36*
X154479591Y-90403085D02*
G01*
X154513569Y-90413393D01*
X154544890Y-90430134D01*
X154572339Y-90452661D01*
X154594866Y-90480110D01*
X154611607Y-90511431D01*
X154621915Y-90545409D01*
X154626000Y-90586890D01*
X154626000Y-91263110D01*
X154621915Y-91304591D01*
X154611607Y-91338569D01*
X154594866Y-91369890D01*
X154572339Y-91397339D01*
X154544890Y-91419866D01*
X154513569Y-91436607D01*
X154479591Y-91446915D01*
X154438110Y-91451000D01*
X153836890Y-91451000D01*
X153795409Y-91446915D01*
X153761431Y-91436607D01*
X153730110Y-91419866D01*
X153702661Y-91397339D01*
X153680134Y-91369890D01*
X153663393Y-91338569D01*
X153653085Y-91304591D01*
X153649000Y-91263110D01*
X153649000Y-90586890D01*
X153653085Y-90545409D01*
X153663393Y-90511431D01*
X153680134Y-90480110D01*
X153702661Y-90452661D01*
X153730110Y-90430134D01*
X153761431Y-90413393D01*
X153795409Y-90403085D01*
X153836890Y-90399000D01*
X154438110Y-90399000D01*
X154479591Y-90403085D01*
X154479591Y-90403085D01*
G37*
G36*
X156054591Y-90403085D02*
G01*
X156088569Y-90413393D01*
X156119890Y-90430134D01*
X156147339Y-90452661D01*
X156169866Y-90480110D01*
X156186607Y-90511431D01*
X156196915Y-90545409D01*
X156201000Y-90586890D01*
X156201000Y-91263110D01*
X156196915Y-91304591D01*
X156186607Y-91338569D01*
X156169866Y-91369890D01*
X156147339Y-91397339D01*
X156119890Y-91419866D01*
X156088569Y-91436607D01*
X156054591Y-91446915D01*
X156013110Y-91451000D01*
X155411890Y-91451000D01*
X155370409Y-91446915D01*
X155336431Y-91436607D01*
X155305110Y-91419866D01*
X155277661Y-91397339D01*
X155255134Y-91369890D01*
X155238393Y-91338569D01*
X155228085Y-91304591D01*
X155224000Y-91263110D01*
X155224000Y-90586890D01*
X155228085Y-90545409D01*
X155238393Y-90511431D01*
X155255134Y-90480110D01*
X155277661Y-90452661D01*
X155305110Y-90430134D01*
X155336431Y-90413393D01*
X155370409Y-90403085D01*
X155411890Y-90399000D01*
X156013110Y-90399000D01*
X156054591Y-90403085D01*
X156054591Y-90403085D01*
G37*
G36*
X128771000Y-91251000D02*
G01*
X127469000Y-91251000D01*
X127469000Y-89949000D01*
X128771000Y-89949000D01*
X128771000Y-91251000D01*
X128771000Y-91251000D01*
G37*
G36*
X131531000Y-91251000D02*
G01*
X130229000Y-91251000D01*
X130229000Y-89949000D01*
X131531000Y-89949000D01*
X131531000Y-91251000D01*
X131531000Y-91251000D01*
G37*
G36*
X164822798Y-88353247D02*
G01*
X164858367Y-88364037D01*
X164891139Y-88381554D01*
X164919869Y-88405131D01*
X164943446Y-88433861D01*
X164960963Y-88466633D01*
X164971753Y-88502202D01*
X164976000Y-88545325D01*
X164976000Y-89654675D01*
X164971753Y-89697798D01*
X164960963Y-89733367D01*
X164943446Y-89766139D01*
X164919869Y-89794869D01*
X164891139Y-89818446D01*
X164858367Y-89835963D01*
X164822798Y-89846753D01*
X164779675Y-89851000D01*
X163720325Y-89851000D01*
X163677202Y-89846753D01*
X163641633Y-89835963D01*
X163608861Y-89818446D01*
X163580131Y-89794869D01*
X163556554Y-89766139D01*
X163539037Y-89733367D01*
X163528247Y-89697798D01*
X163524000Y-89654675D01*
X163524000Y-88545325D01*
X163528247Y-88502202D01*
X163539037Y-88466633D01*
X163556554Y-88433861D01*
X163580131Y-88405131D01*
X163608861Y-88381554D01*
X163641633Y-88364037D01*
X163677202Y-88353247D01*
X163720325Y-88349000D01*
X164779675Y-88349000D01*
X164822798Y-88353247D01*
X164822798Y-88353247D01*
G37*
G36*
X167372798Y-88303247D02*
G01*
X167408367Y-88314037D01*
X167441139Y-88331554D01*
X167469869Y-88355131D01*
X167493446Y-88383861D01*
X167510963Y-88416633D01*
X167521753Y-88452202D01*
X167526000Y-88495325D01*
X167526000Y-89604675D01*
X167521753Y-89647798D01*
X167510963Y-89683367D01*
X167493446Y-89716139D01*
X167469869Y-89744869D01*
X167441139Y-89768446D01*
X167408367Y-89785963D01*
X167372798Y-89796753D01*
X167329675Y-89801000D01*
X166270325Y-89801000D01*
X166227202Y-89796753D01*
X166191633Y-89785963D01*
X166158861Y-89768446D01*
X166130131Y-89744869D01*
X166106554Y-89716139D01*
X166089037Y-89683367D01*
X166078247Y-89647798D01*
X166074000Y-89604675D01*
X166074000Y-88495325D01*
X166078247Y-88452202D01*
X166089037Y-88416633D01*
X166106554Y-88383861D01*
X166130131Y-88355131D01*
X166158861Y-88331554D01*
X166191633Y-88314037D01*
X166227202Y-88303247D01*
X166270325Y-88299000D01*
X167329675Y-88299000D01*
X167372798Y-88303247D01*
X167372798Y-88303247D01*
G37*
G36*
X156576000Y-85674001D02*
G01*
X156578402Y-85698387D01*
X156585515Y-85721836D01*
X156597066Y-85743447D01*
X156612611Y-85762389D01*
X156631553Y-85777934D01*
X156653164Y-85789485D01*
X156676613Y-85796598D01*
X156700999Y-85799000D01*
X157576000Y-85799000D01*
X157576000Y-88751000D01*
X156700999Y-88751000D01*
X156676613Y-88753402D01*
X156653164Y-88760515D01*
X156631553Y-88772066D01*
X156612611Y-88787611D01*
X156597066Y-88806553D01*
X156585515Y-88828164D01*
X156578402Y-88851613D01*
X156576000Y-88875999D01*
X156576000Y-89726000D01*
X153624000Y-89726000D01*
X153624000Y-88875999D01*
X153621598Y-88851613D01*
X153614485Y-88828164D01*
X153602934Y-88806553D01*
X153587389Y-88787611D01*
X153568447Y-88772066D01*
X153546836Y-88760515D01*
X153523387Y-88753402D01*
X153499001Y-88751000D01*
X152624000Y-88751000D01*
X152624000Y-85850999D01*
X153576000Y-85850999D01*
X153576000Y-88699001D01*
X153578402Y-88723387D01*
X153585515Y-88746836D01*
X153597066Y-88768447D01*
X153612611Y-88787389D01*
X153631553Y-88802934D01*
X153653164Y-88814485D01*
X153676613Y-88821598D01*
X153700999Y-88824000D01*
X156499001Y-88824000D01*
X156523387Y-88821598D01*
X156546836Y-88814485D01*
X156568447Y-88802934D01*
X156587389Y-88787389D01*
X156602934Y-88768447D01*
X156614485Y-88746836D01*
X156621598Y-88723387D01*
X156624000Y-88699001D01*
X156624000Y-85850999D01*
X156621598Y-85826613D01*
X156614485Y-85803164D01*
X156602934Y-85781553D01*
X156587389Y-85762611D01*
X156568447Y-85747066D01*
X156546836Y-85735515D01*
X156523387Y-85728402D01*
X156499001Y-85726000D01*
X153700999Y-85726000D01*
X153676613Y-85728402D01*
X153653164Y-85735515D01*
X153631553Y-85747066D01*
X153612611Y-85762611D01*
X153597066Y-85781553D01*
X153585515Y-85803164D01*
X153578402Y-85826613D01*
X153576000Y-85850999D01*
X152624000Y-85850999D01*
X152624000Y-85799000D01*
X153499001Y-85799000D01*
X153523387Y-85796598D01*
X153546836Y-85789485D01*
X153568447Y-85777934D01*
X153587389Y-85762389D01*
X153602934Y-85743447D01*
X153614485Y-85721836D01*
X153621598Y-85698387D01*
X153624000Y-85674001D01*
X153624000Y-84824000D01*
X156576000Y-84824000D01*
X156576000Y-85674001D01*
X156576000Y-85674001D01*
G37*
G36*
X149729591Y-88478085D02*
G01*
X149763569Y-88488393D01*
X149794890Y-88505134D01*
X149822339Y-88527661D01*
X149844866Y-88555110D01*
X149861607Y-88586431D01*
X149871915Y-88620409D01*
X149876000Y-88661890D01*
X149876000Y-89338110D01*
X149871915Y-89379591D01*
X149861607Y-89413569D01*
X149844866Y-89444890D01*
X149822339Y-89472339D01*
X149794890Y-89494866D01*
X149763569Y-89511607D01*
X149729591Y-89521915D01*
X149688110Y-89526000D01*
X149086890Y-89526000D01*
X149045409Y-89521915D01*
X149011431Y-89511607D01*
X148980110Y-89494866D01*
X148952661Y-89472339D01*
X148930134Y-89444890D01*
X148913393Y-89413569D01*
X148903085Y-89379591D01*
X148899000Y-89338110D01*
X148899000Y-88661890D01*
X148903085Y-88620409D01*
X148913393Y-88586431D01*
X148930134Y-88555110D01*
X148952661Y-88527661D01*
X148980110Y-88505134D01*
X149011431Y-88488393D01*
X149045409Y-88478085D01*
X149086890Y-88474000D01*
X149688110Y-88474000D01*
X149729591Y-88478085D01*
X149729591Y-88478085D01*
G37*
G36*
X148154591Y-88478085D02*
G01*
X148188569Y-88488393D01*
X148219890Y-88505134D01*
X148247339Y-88527661D01*
X148269866Y-88555110D01*
X148286607Y-88586431D01*
X148296915Y-88620409D01*
X148301000Y-88661890D01*
X148301000Y-89338110D01*
X148296915Y-89379591D01*
X148286607Y-89413569D01*
X148269866Y-89444890D01*
X148247339Y-89472339D01*
X148219890Y-89494866D01*
X148188569Y-89511607D01*
X148154591Y-89521915D01*
X148113110Y-89526000D01*
X147511890Y-89526000D01*
X147470409Y-89521915D01*
X147436431Y-89511607D01*
X147405110Y-89494866D01*
X147377661Y-89472339D01*
X147355134Y-89444890D01*
X147338393Y-89413569D01*
X147328085Y-89379591D01*
X147324000Y-89338110D01*
X147324000Y-88661890D01*
X147328085Y-88620409D01*
X147338393Y-88586431D01*
X147355134Y-88555110D01*
X147377661Y-88527661D01*
X147405110Y-88505134D01*
X147436431Y-88488393D01*
X147470409Y-88478085D01*
X147511890Y-88474000D01*
X148113110Y-88474000D01*
X148154591Y-88478085D01*
X148154591Y-88478085D01*
G37*
G36*
X128771000Y-89051000D02*
G01*
X127469000Y-89051000D01*
X127469000Y-87749000D01*
X128771000Y-87749000D01*
X128771000Y-89051000D01*
X128771000Y-89051000D01*
G37*
G36*
X131531000Y-89051000D02*
G01*
X130229000Y-89051000D01*
X130229000Y-87749000D01*
X131531000Y-87749000D01*
X131531000Y-89051000D01*
X131531000Y-89051000D01*
G37*
G36*
X134921000Y-87851000D02*
G01*
X133319000Y-87851000D01*
X133319000Y-86149000D01*
X134921000Y-86149000D01*
X134921000Y-87851000D01*
X134921000Y-87851000D01*
G37*
G36*
X125681000Y-87851000D02*
G01*
X124079000Y-87851000D01*
X124079000Y-86149000D01*
X125681000Y-86149000D01*
X125681000Y-87851000D01*
X125681000Y-87851000D01*
G37*
G36*
X149692091Y-86353085D02*
G01*
X149726069Y-86363393D01*
X149757390Y-86380134D01*
X149784839Y-86402661D01*
X149807366Y-86430110D01*
X149824107Y-86461431D01*
X149834415Y-86495409D01*
X149838500Y-86536890D01*
X149838500Y-87213110D01*
X149834415Y-87254591D01*
X149824107Y-87288569D01*
X149807366Y-87319890D01*
X149784839Y-87347339D01*
X149757390Y-87369866D01*
X149726069Y-87386607D01*
X149692091Y-87396915D01*
X149650610Y-87401000D01*
X149049390Y-87401000D01*
X149007909Y-87396915D01*
X148973931Y-87386607D01*
X148942610Y-87369866D01*
X148915161Y-87347339D01*
X148892634Y-87319890D01*
X148875893Y-87288569D01*
X148865585Y-87254591D01*
X148861500Y-87213110D01*
X148861500Y-86536890D01*
X148865585Y-86495409D01*
X148875893Y-86461431D01*
X148892634Y-86430110D01*
X148915161Y-86402661D01*
X148942610Y-86380134D01*
X148973931Y-86363393D01*
X149007909Y-86353085D01*
X149049390Y-86349000D01*
X149650610Y-86349000D01*
X149692091Y-86353085D01*
X149692091Y-86353085D01*
G37*
G36*
X148117091Y-86353085D02*
G01*
X148151069Y-86363393D01*
X148182390Y-86380134D01*
X148209839Y-86402661D01*
X148232366Y-86430110D01*
X148249107Y-86461431D01*
X148259415Y-86495409D01*
X148263500Y-86536890D01*
X148263500Y-87213110D01*
X148259415Y-87254591D01*
X148249107Y-87288569D01*
X148232366Y-87319890D01*
X148209839Y-87347339D01*
X148182390Y-87369866D01*
X148151069Y-87386607D01*
X148117091Y-87396915D01*
X148075610Y-87401000D01*
X147474390Y-87401000D01*
X147432909Y-87396915D01*
X147398931Y-87386607D01*
X147367610Y-87369866D01*
X147340161Y-87347339D01*
X147317634Y-87319890D01*
X147300893Y-87288569D01*
X147290585Y-87254591D01*
X147286500Y-87213110D01*
X147286500Y-86536890D01*
X147290585Y-86495409D01*
X147300893Y-86461431D01*
X147317634Y-86430110D01*
X147340161Y-86402661D01*
X147367610Y-86380134D01*
X147398931Y-86363393D01*
X147432909Y-86353085D01*
X147474390Y-86349000D01*
X148075610Y-86349000D01*
X148117091Y-86353085D01*
X148117091Y-86353085D01*
G37*
G36*
X162079591Y-86228085D02*
G01*
X162113569Y-86238393D01*
X162144890Y-86255134D01*
X162172339Y-86277661D01*
X162194866Y-86305110D01*
X162211607Y-86336431D01*
X162221915Y-86370409D01*
X162226000Y-86411890D01*
X162226000Y-87088110D01*
X162221915Y-87129591D01*
X162211607Y-87163569D01*
X162194866Y-87194890D01*
X162172339Y-87222339D01*
X162144890Y-87244866D01*
X162113569Y-87261607D01*
X162079591Y-87271915D01*
X162038110Y-87276000D01*
X161436890Y-87276000D01*
X161395409Y-87271915D01*
X161361431Y-87261607D01*
X161330110Y-87244866D01*
X161302661Y-87222339D01*
X161280134Y-87194890D01*
X161263393Y-87163569D01*
X161253085Y-87129591D01*
X161249000Y-87088110D01*
X161249000Y-86411890D01*
X161253085Y-86370409D01*
X161263393Y-86336431D01*
X161280134Y-86305110D01*
X161302661Y-86277661D01*
X161330110Y-86255134D01*
X161361431Y-86238393D01*
X161395409Y-86228085D01*
X161436890Y-86224000D01*
X162038110Y-86224000D01*
X162079591Y-86228085D01*
X162079591Y-86228085D01*
G37*
G36*
X160504591Y-86228085D02*
G01*
X160538569Y-86238393D01*
X160569890Y-86255134D01*
X160597339Y-86277661D01*
X160619866Y-86305110D01*
X160636607Y-86336431D01*
X160646915Y-86370409D01*
X160651000Y-86411890D01*
X160651000Y-87088110D01*
X160646915Y-87129591D01*
X160636607Y-87163569D01*
X160619866Y-87194890D01*
X160597339Y-87222339D01*
X160569890Y-87244866D01*
X160538569Y-87261607D01*
X160504591Y-87271915D01*
X160463110Y-87276000D01*
X159861890Y-87276000D01*
X159820409Y-87271915D01*
X159786431Y-87261607D01*
X159755110Y-87244866D01*
X159727661Y-87222339D01*
X159705134Y-87194890D01*
X159688393Y-87163569D01*
X159678085Y-87129591D01*
X159674000Y-87088110D01*
X159674000Y-86411890D01*
X159678085Y-86370409D01*
X159688393Y-86336431D01*
X159705134Y-86305110D01*
X159727661Y-86277661D01*
X159755110Y-86255134D01*
X159786431Y-86238393D01*
X159820409Y-86228085D01*
X159861890Y-86224000D01*
X160463110Y-86224000D01*
X160504591Y-86228085D01*
X160504591Y-86228085D01*
G37*
G36*
X164822798Y-85653247D02*
G01*
X164858367Y-85664037D01*
X164891139Y-85681554D01*
X164919869Y-85705131D01*
X164943446Y-85733861D01*
X164960963Y-85766633D01*
X164971753Y-85802202D01*
X164976000Y-85845325D01*
X164976000Y-86954675D01*
X164971753Y-86997798D01*
X164960963Y-87033367D01*
X164943446Y-87066139D01*
X164919869Y-87094869D01*
X164891139Y-87118446D01*
X164858367Y-87135963D01*
X164822798Y-87146753D01*
X164779675Y-87151000D01*
X163720325Y-87151000D01*
X163677202Y-87146753D01*
X163641633Y-87135963D01*
X163608861Y-87118446D01*
X163580131Y-87094869D01*
X163556554Y-87066139D01*
X163539037Y-87033367D01*
X163528247Y-86997798D01*
X163524000Y-86954675D01*
X163524000Y-85845325D01*
X163528247Y-85802202D01*
X163539037Y-85766633D01*
X163556554Y-85733861D01*
X163580131Y-85705131D01*
X163608861Y-85681554D01*
X163641633Y-85664037D01*
X163677202Y-85653247D01*
X163720325Y-85649000D01*
X164779675Y-85649000D01*
X164822798Y-85653247D01*
X164822798Y-85653247D01*
G37*
G36*
X167372798Y-85603247D02*
G01*
X167408367Y-85614037D01*
X167441139Y-85631554D01*
X167469869Y-85655131D01*
X167493446Y-85683861D01*
X167510963Y-85716633D01*
X167521753Y-85752202D01*
X167526000Y-85795325D01*
X167526000Y-86904675D01*
X167521753Y-86947798D01*
X167510963Y-86983367D01*
X167493446Y-87016139D01*
X167469869Y-87044869D01*
X167441139Y-87068446D01*
X167408367Y-87085963D01*
X167372798Y-87096753D01*
X167329675Y-87101000D01*
X166270325Y-87101000D01*
X166227202Y-87096753D01*
X166191633Y-87085963D01*
X166158861Y-87068446D01*
X166130131Y-87044869D01*
X166106554Y-87016139D01*
X166089037Y-86983367D01*
X166078247Y-86947798D01*
X166074000Y-86904675D01*
X166074000Y-85795325D01*
X166078247Y-85752202D01*
X166089037Y-85716633D01*
X166106554Y-85683861D01*
X166130131Y-85655131D01*
X166158861Y-85631554D01*
X166191633Y-85614037D01*
X166227202Y-85603247D01*
X166270325Y-85599000D01*
X167329675Y-85599000D01*
X167372798Y-85603247D01*
X167372798Y-85603247D01*
G37*
G36*
X122256000Y-86626000D02*
G01*
X121554000Y-86626000D01*
X121554000Y-84974000D01*
X122256000Y-84974000D01*
X122256000Y-86626000D01*
X122256000Y-86626000D01*
G37*
G36*
X118446000Y-86626000D02*
G01*
X117744000Y-86626000D01*
X117744000Y-84974000D01*
X118446000Y-84974000D01*
X118446000Y-86626000D01*
X118446000Y-86626000D01*
G37*
G36*
X119716000Y-86626000D02*
G01*
X119014000Y-86626000D01*
X119014000Y-84974000D01*
X119716000Y-84974000D01*
X119716000Y-86626000D01*
X119716000Y-86626000D01*
G37*
G36*
X112446000Y-86626000D02*
G01*
X111744000Y-86626000D01*
X111744000Y-84974000D01*
X112446000Y-84974000D01*
X112446000Y-86626000D01*
X112446000Y-86626000D01*
G37*
G36*
X113716000Y-86626000D02*
G01*
X113014000Y-86626000D01*
X113014000Y-84974000D01*
X113716000Y-84974000D01*
X113716000Y-86626000D01*
X113716000Y-86626000D01*
G37*
G36*
X114986000Y-86626000D02*
G01*
X114284000Y-86626000D01*
X114284000Y-84974000D01*
X114986000Y-84974000D01*
X114986000Y-86626000D01*
X114986000Y-86626000D01*
G37*
G36*
X116256000Y-86626000D02*
G01*
X115554000Y-86626000D01*
X115554000Y-84974000D01*
X116256000Y-84974000D01*
X116256000Y-86626000D01*
X116256000Y-86626000D01*
G37*
G36*
X120986000Y-86626000D02*
G01*
X120284000Y-86626000D01*
X120284000Y-84974000D01*
X120986000Y-84974000D01*
X120986000Y-86626000D01*
X120986000Y-86626000D01*
G37*
G36*
X131531000Y-86251000D02*
G01*
X130229000Y-86251000D01*
X130229000Y-84949000D01*
X131531000Y-84949000D01*
X131531000Y-86251000D01*
X131531000Y-86251000D01*
G37*
G36*
X128771000Y-86251000D02*
G01*
X127469000Y-86251000D01*
X127469000Y-84949000D01*
X128771000Y-84949000D01*
X128771000Y-86251000D01*
X128771000Y-86251000D01*
G37*
G36*
X162092091Y-84728085D02*
G01*
X162126069Y-84738393D01*
X162157390Y-84755134D01*
X162184839Y-84777661D01*
X162207366Y-84805110D01*
X162224107Y-84836431D01*
X162234415Y-84870409D01*
X162238500Y-84911890D01*
X162238500Y-85588110D01*
X162234415Y-85629591D01*
X162224107Y-85663569D01*
X162207366Y-85694890D01*
X162184839Y-85722339D01*
X162157390Y-85744866D01*
X162126069Y-85761607D01*
X162092091Y-85771915D01*
X162050610Y-85776000D01*
X161449390Y-85776000D01*
X161407909Y-85771915D01*
X161373931Y-85761607D01*
X161342610Y-85744866D01*
X161315161Y-85722339D01*
X161292634Y-85694890D01*
X161275893Y-85663569D01*
X161265585Y-85629591D01*
X161261500Y-85588110D01*
X161261500Y-84911890D01*
X161265585Y-84870409D01*
X161275893Y-84836431D01*
X161292634Y-84805110D01*
X161315161Y-84777661D01*
X161342610Y-84755134D01*
X161373931Y-84738393D01*
X161407909Y-84728085D01*
X161449390Y-84724000D01*
X162050610Y-84724000D01*
X162092091Y-84728085D01*
X162092091Y-84728085D01*
G37*
G36*
X160517091Y-84728085D02*
G01*
X160551069Y-84738393D01*
X160582390Y-84755134D01*
X160609839Y-84777661D01*
X160632366Y-84805110D01*
X160649107Y-84836431D01*
X160659415Y-84870409D01*
X160663500Y-84911890D01*
X160663500Y-85588110D01*
X160659415Y-85629591D01*
X160649107Y-85663569D01*
X160632366Y-85694890D01*
X160609839Y-85722339D01*
X160582390Y-85744866D01*
X160551069Y-85761607D01*
X160517091Y-85771915D01*
X160475610Y-85776000D01*
X159874390Y-85776000D01*
X159832909Y-85771915D01*
X159798931Y-85761607D01*
X159767610Y-85744866D01*
X159740161Y-85722339D01*
X159717634Y-85694890D01*
X159700893Y-85663569D01*
X159690585Y-85629591D01*
X159686500Y-85588110D01*
X159686500Y-84911890D01*
X159690585Y-84870409D01*
X159700893Y-84836431D01*
X159717634Y-84805110D01*
X159740161Y-84777661D01*
X159767610Y-84755134D01*
X159798931Y-84738393D01*
X159832909Y-84728085D01*
X159874390Y-84724000D01*
X160475610Y-84724000D01*
X160517091Y-84728085D01*
X160517091Y-84728085D01*
G37*
G36*
X151354591Y-84703085D02*
G01*
X151388569Y-84713393D01*
X151419890Y-84730134D01*
X151447339Y-84752661D01*
X151469866Y-84780110D01*
X151486607Y-84811431D01*
X151496915Y-84845409D01*
X151501000Y-84886890D01*
X151501000Y-85563110D01*
X151496915Y-85604591D01*
X151486607Y-85638569D01*
X151469866Y-85669890D01*
X151447339Y-85697339D01*
X151419890Y-85719866D01*
X151388569Y-85736607D01*
X151354591Y-85746915D01*
X151313110Y-85751000D01*
X150711890Y-85751000D01*
X150670409Y-85746915D01*
X150636431Y-85736607D01*
X150605110Y-85719866D01*
X150577661Y-85697339D01*
X150555134Y-85669890D01*
X150538393Y-85638569D01*
X150528085Y-85604591D01*
X150524000Y-85563110D01*
X150524000Y-84886890D01*
X150528085Y-84845409D01*
X150538393Y-84811431D01*
X150555134Y-84780110D01*
X150577661Y-84752661D01*
X150605110Y-84730134D01*
X150636431Y-84713393D01*
X150670409Y-84703085D01*
X150711890Y-84699000D01*
X151313110Y-84699000D01*
X151354591Y-84703085D01*
X151354591Y-84703085D01*
G37*
G36*
X149779591Y-84703085D02*
G01*
X149813569Y-84713393D01*
X149844890Y-84730134D01*
X149872339Y-84752661D01*
X149894866Y-84780110D01*
X149911607Y-84811431D01*
X149921915Y-84845409D01*
X149926000Y-84886890D01*
X149926000Y-85563110D01*
X149921915Y-85604591D01*
X149911607Y-85638569D01*
X149894866Y-85669890D01*
X149872339Y-85697339D01*
X149844890Y-85719866D01*
X149813569Y-85736607D01*
X149779591Y-85746915D01*
X149738110Y-85751000D01*
X149136890Y-85751000D01*
X149095409Y-85746915D01*
X149061431Y-85736607D01*
X149030110Y-85719866D01*
X149002661Y-85697339D01*
X148980134Y-85669890D01*
X148963393Y-85638569D01*
X148953085Y-85604591D01*
X148949000Y-85563110D01*
X148949000Y-84886890D01*
X148953085Y-84845409D01*
X148963393Y-84811431D01*
X148980134Y-84780110D01*
X149002661Y-84752661D01*
X149030110Y-84730134D01*
X149061431Y-84713393D01*
X149095409Y-84703085D01*
X149136890Y-84699000D01*
X149738110Y-84699000D01*
X149779591Y-84703085D01*
X149779591Y-84703085D01*
G37*
M02*
