M48
; DRILL file {KiCad 5.1.0} date lun 01 abr 2019 22:06:40 CST
; FORMAT={-:-/ absolute / inch / decimal}
; #@! TF.CreationDate,2019-04-01T22:06:40-06:00
; #@! TF.GenerationSoftware,Kicad,Pcbnew,5.1.0
FMAT,2
INCH
T1C0.0157
T2C0.0354
T3C0.0394
T4C0.0630
T5C0.0354
%
G90
G05
T1
X4.3976Y-3.7953
X4.4132Y-3.5906
X4.4843Y-3.6486
X4.5132Y-3.378
X4.5276Y-4.2913
X4.5906Y-3.7126
X4.5906Y-3.752
X4.5906Y-3.7913
X4.5906Y-3.8307
X4.626Y-3.7126
X4.626Y-3.752
X4.626Y-3.7913
X4.626Y-3.8307
X4.6614Y-3.7126
X4.6614Y-3.752
X4.6614Y-3.7913
X4.6614Y-3.8307
X4.6969Y-3.5157
X4.7008Y-3.7126
X4.7008Y-3.752
X4.7008Y-3.7913
X4.7008Y-3.8307
X4.7008Y-3.8307
X4.7047Y-3.8858
X4.7756Y-3.4528
X4.7994Y-3.378
X4.8228Y-4.0945
X4.8268Y-3.7638
X4.8346Y-4.1969
X4.8386Y-3.8976
X4.8695Y-3.5226
X4.8878Y-3.8976
X4.937Y-3.8976
X4.9921Y-3.7638
X4.9921Y-3.7913
X4.9961Y-3.5669
X5.0Y-3.3504
X5.0Y-4.0433
X5.0Y-4.0787
X5.0236Y-3.7874
X5.0394Y-4.0433
X5.0394Y-4.0787
X5.0441Y-3.4803
X5.0441Y-3.6772
X5.0551Y-3.7874
X5.0827Y-4.0433
X5.0827Y-4.0787
X5.126Y-4.1929
X5.1417Y-3.7717
X5.1535Y-3.3701
X5.1535Y-3.5669
X5.2165Y-3.4134
X5.2165Y-3.8307
X5.2173Y-4.049
X5.2205Y-3.5354
X5.2249Y-4.1299
X5.2362Y-3.6929
X5.2677Y-3.4852
X5.2717Y-3.3504
X5.2803Y-3.622
X5.2869Y-4.0591
X5.2869Y-4.1299
X5.31Y-3.7597
X5.3189Y-3.3543
X5.3189Y-3.5551
X5.3386Y-4.0276
X5.3425Y-4.2244
X5.3937Y-3.9762
X5.3957Y-3.9015
X5.3975Y-3.8621
X5.4291Y-4.3071
X5.436Y-3.6637
X5.4409Y-3.4173
X5.4528Y-3.8858
X5.4705Y-3.9114
X5.4843Y-3.8661
X5.4882Y-4.2559
X5.4882Y-4.2992
X5.5079Y-3.7795
X5.5354Y-3.7795
X5.5423Y-3.9025
X5.5472Y-3.622
X5.562Y-4.0295
X5.573Y-4.2854
X5.6036Y-3.8376
X5.6054Y-3.5555
X5.6102Y-3.6919
X5.6142Y-4.0157
X5.6249Y-4.1929
X5.6457Y-3.3819
X5.6552Y-3.4893
X5.6673Y-3.6816
X5.6693Y-3.5354
X5.6693Y-3.5787
X5.6772Y-3.626
X5.6904Y-3.9502
X5.7008Y-3.4931
X5.7018Y-3.8661
X5.7067Y-3.6342
X5.7124Y-3.4134
X5.7165Y-3.6654
X5.7638Y-4.0512
X5.7671Y-3.6935
X5.7756Y-4.0079
X5.7992Y-4.2126
X5.8006Y-3.6955
X5.8031Y-3.9961
X5.815Y-3.3711
X5.8189Y-3.4675
X5.823Y-3.7461
X5.8258Y-4.0512
X5.8504Y-3.9646
X5.8624Y-3.5551
X5.873Y-4.2854
X5.874Y-4.0
X5.8749Y-3.769
X5.8819Y-4.0512
X5.9104Y-3.3898
X5.9248Y-3.6015
X5.9252Y-3.5039
X5.9331Y-3.6919
X5.9365Y-4.2047
X5.9528Y-3.5787
X5.9567Y-3.6614
X5.973Y-3.7461
X5.973Y-4.2854
X5.9773Y-3.9911
X5.9803Y-3.8386
X6.0039Y-4.0906
X6.0061Y-3.5551
X6.0197Y-3.7283
X6.0273Y-3.6454
X6.0354Y-4.1732
X6.0472Y-3.9291
X6.0736Y-3.7307
X6.0748Y-3.8858
X6.0866Y-3.8622
X6.0866Y-3.9449
X6.0866Y-4.0669
X6.0866Y-4.1772
X6.0945Y-3.9055
X6.1344Y-3.811
X6.1348Y-3.7441
X6.1457Y-4.0079
X6.1457Y-4.1732
X6.1781Y-3.6161
X6.1811Y-4.1024
X6.185Y-4.1378
X6.185Y-4.2795
X6.1895Y-3.6772
X6.1964Y-3.811
X6.1969Y-3.7441
X6.2215Y-3.4852
X6.2515Y-3.6772
X6.2559Y-3.4833
X6.2569Y-3.9754
X6.2828Y-4.078
X6.3091Y-3.4823
X6.3179Y-4.1201
X6.3376Y-3.3297
X6.3474Y-3.4813
X6.3543Y-3.9596
X6.3561Y-3.5551
X6.374Y-3.9961
X6.3957Y-4.2648
X6.4085Y-3.3563
X6.4173Y-4.0157
X6.4249Y-3.6685
X6.4439Y-3.7925
X6.4488Y-3.5846
X6.4567Y-3.6378
X6.4921Y-3.7598
X6.4921Y-3.8583
X6.4921Y-3.9094
X6.4961Y-3.9596
X6.5069Y-3.3543
X6.5226Y-3.5561
X6.5679Y-3.9326
X6.5709Y-3.7756
X6.5748Y-3.3917
T2
X6.5827Y-4.0756
X6.5827Y-4.1756
X6.5827Y-4.2756
T3
X4.4094Y-4.211
X4.4094Y-4.311
T4
X4.6362Y-4.252
X5.2362Y-4.252
T5
X4.8622Y-4.265
X4.9803Y-4.265
T0
M30
