G04 #@! TF.GenerationSoftware,KiCad,Pcbnew,5.1.0*
G04 #@! TF.CreationDate,2019-04-01T22:05:57-06:00*
G04 #@! TF.ProjectId,minisumo-FreeRTOS,6d696e69-7375-46d6-9f2d-467265655254,rev?*
G04 #@! TF.SameCoordinates,Original*
G04 #@! TF.FileFunction,Legend,Bot*
G04 #@! TF.FilePolarity,Positive*
%FSLAX46Y46*%
G04 Gerber Fmt 4.6, Leading zero omitted, Abs format (unit mm)*
G04 Created by KiCad (PCBNEW 5.1.0) date 2019-04-01 22:05:57*
%MOMM*%
%LPD*%
G04 APERTURE LIST*
%ADD10C,0.120000*%
%ADD11C,0.100000*%
%ADD12C,0.150000*%
G04 APERTURE END LIST*
D10*
X167335000Y-100837779D02*
X167335000Y-100512221D01*
X166315000Y-100837779D02*
X166315000Y-100512221D01*
X160787221Y-86240000D02*
X161112779Y-86240000D01*
X160787221Y-87260000D02*
X161112779Y-87260000D01*
X160799721Y-84740000D02*
X161125279Y-84740000D01*
X160799721Y-85760000D02*
X161125279Y-85760000D01*
X155087779Y-91435000D02*
X154762221Y-91435000D01*
X155087779Y-90415000D02*
X154762221Y-90415000D01*
X167735000Y-85390000D02*
X167735000Y-89300000D01*
X165865000Y-85390000D02*
X167735000Y-85390000D01*
X165865000Y-89300000D02*
X165865000Y-85390000D01*
X150387779Y-85735000D02*
X150062221Y-85735000D01*
X150387779Y-84715000D02*
X150062221Y-84715000D01*
X163315000Y-90060000D02*
X163315000Y-86150000D01*
X165185000Y-90060000D02*
X163315000Y-90060000D01*
X165185000Y-86150000D02*
X165185000Y-90060000D01*
D11*
X152975000Y-89400000D02*
X153375000Y-89400000D01*
X152975000Y-88925000D02*
X152975000Y-89400000D01*
X157225000Y-89400000D02*
X157225000Y-88900000D01*
X156725000Y-89400000D02*
X157225000Y-89400000D01*
X157225000Y-85150000D02*
X156775000Y-85150000D01*
X157225000Y-85750000D02*
X157225000Y-85150000D01*
X153375000Y-85150000D02*
X153600000Y-85150000D01*
X152975000Y-85575000D02*
X153375000Y-85150000D01*
X152975000Y-85800000D02*
X152975000Y-85575000D01*
D10*
X114490000Y-108049721D02*
X114490000Y-108375279D01*
X115510000Y-108049721D02*
X115510000Y-108375279D01*
X137575279Y-107490000D02*
X137249721Y-107490000D01*
X137575279Y-108510000D02*
X137249721Y-108510000D01*
X145010000Y-107462779D02*
X145010000Y-107137221D01*
X143990000Y-107462779D02*
X143990000Y-107137221D01*
X133337221Y-104390000D02*
X133662779Y-104390000D01*
X133337221Y-105410000D02*
X133662779Y-105410000D01*
X133337221Y-103610000D02*
X133662779Y-103610000D01*
X133337221Y-102590000D02*
X133662779Y-102590000D01*
X156437221Y-97310000D02*
X156762779Y-97310000D01*
X156437221Y-96290000D02*
X156762779Y-96290000D01*
X156449721Y-94590000D02*
X156775279Y-94590000D01*
X156449721Y-95610000D02*
X156775279Y-95610000D01*
X147024721Y-102390000D02*
X147350279Y-102390000D01*
X147024721Y-103410000D02*
X147350279Y-103410000D01*
X150162779Y-107310000D02*
X149837221Y-107310000D01*
X150162779Y-106290000D02*
X149837221Y-106290000D01*
X148725279Y-87385000D02*
X148399721Y-87385000D01*
X148725279Y-86365000D02*
X148399721Y-86365000D01*
X116970000Y-97550000D02*
X118470000Y-97550000D01*
X118470000Y-97550000D02*
X118470000Y-97820000D01*
X118470000Y-97820000D02*
X121300000Y-97820000D01*
X116970000Y-104450000D02*
X118470000Y-104450000D01*
X118470000Y-104450000D02*
X118470000Y-104180000D01*
X118470000Y-104180000D02*
X119570000Y-104180000D01*
X166590000Y-94062779D02*
X166590000Y-93737221D01*
X167610000Y-94062779D02*
X167610000Y-93737221D01*
X167335000Y-97374721D02*
X167335000Y-97700279D01*
X166315000Y-97374721D02*
X166315000Y-97700279D01*
X149837221Y-104490000D02*
X150162779Y-104490000D01*
X149837221Y-105510000D02*
X150162779Y-105510000D01*
X148762779Y-88490000D02*
X148437221Y-88490000D01*
X148762779Y-89510000D02*
X148437221Y-89510000D01*
X123600000Y-106880000D02*
X123400000Y-106880000D01*
X126400000Y-111020000D02*
X126200000Y-111230000D01*
X125100000Y-111020000D02*
X125300000Y-111230000D01*
X126400000Y-109730000D02*
X126400000Y-111020000D01*
X126200000Y-111230000D02*
X125300000Y-111230000D01*
X125100000Y-111020000D02*
X125100000Y-109730000D01*
X127850000Y-109730000D02*
X122150000Y-109730000D01*
X126600000Y-106880000D02*
X124900000Y-106880000D01*
X128450000Y-107930000D02*
X128450000Y-108720000D01*
X121550000Y-108720000D02*
X121550000Y-107930000D01*
X131410000Y-101910000D02*
X130150000Y-101910000D01*
X124590000Y-101910000D02*
X125850000Y-101910000D01*
X131410000Y-98150000D02*
X131410000Y-101910000D01*
X124590000Y-95900000D02*
X124590000Y-101910000D01*
X150034600Y-96000000D02*
X149737615Y-95703015D01*
X145000000Y-90965400D02*
X145296985Y-91262385D01*
X139965400Y-96000000D02*
X140262385Y-96296985D01*
X145000000Y-101034600D02*
X145296985Y-100737615D01*
X145000000Y-90965400D02*
X144703015Y-91262385D01*
X150034600Y-96000000D02*
X149737615Y-96296985D01*
X144703015Y-100737615D02*
X143727208Y-101713423D01*
X145000000Y-101034600D02*
X144703015Y-100737615D01*
X139965400Y-96000000D02*
X140262385Y-95703015D01*
D12*
X163375000Y-104020000D02*
X163375000Y-104070000D01*
X159225000Y-104020000D02*
X159225000Y-104165000D01*
X159225000Y-109170000D02*
X159225000Y-109025000D01*
X163375000Y-109170000D02*
X163375000Y-109025000D01*
X163375000Y-104020000D02*
X159225000Y-104020000D01*
X163375000Y-109170000D02*
X159225000Y-109170000D01*
X163375000Y-104070000D02*
X164775000Y-104070000D01*
D10*
X153400000Y-106000000D02*
X153700000Y-105700000D01*
X153100000Y-105700000D02*
X153700000Y-105700000D01*
X153400000Y-106000000D02*
X153100000Y-105700000D01*
X152550000Y-106900000D02*
X152550000Y-107500000D01*
X156000000Y-106200000D02*
X153200000Y-106200000D01*
X156650000Y-107500000D02*
X156650000Y-106900000D01*
X153200000Y-108200000D02*
X156000000Y-108200000D01*
X155950000Y-108200000D02*
G75*
G03X156650000Y-107500000I0J700000D01*
G01*
X156650000Y-106900000D02*
G75*
G03X155950000Y-106200000I-700000J0D01*
G01*
X153250000Y-106200000D02*
G75*
G03X152550000Y-106900000I0J-700000D01*
G01*
X152550000Y-107500000D02*
G75*
G03X153250000Y-108200000I700000J0D01*
G01*
X152550000Y-104700000D02*
G75*
G03X153250000Y-105400000I700000J0D01*
G01*
X153250000Y-103400000D02*
G75*
G03X152550000Y-104100000I0J-700000D01*
G01*
X156650000Y-104100000D02*
G75*
G03X155950000Y-103400000I-700000J0D01*
G01*
X155950000Y-105400000D02*
G75*
G03X156650000Y-104700000I0J700000D01*
G01*
X153200000Y-105400000D02*
X156000000Y-105400000D01*
X156650000Y-104700000D02*
X156650000Y-104100000D01*
X156000000Y-103400000D02*
X153200000Y-103400000D01*
X152550000Y-104100000D02*
X152550000Y-104700000D01*
X153400000Y-103200000D02*
X153100000Y-102900000D01*
X153100000Y-102900000D02*
X153700000Y-102900000D01*
X153400000Y-103200000D02*
X153700000Y-102900000D01*
X115050000Y-93220000D02*
X112770000Y-93220000D01*
X115050000Y-93730000D02*
X115050000Y-93220000D01*
X115050000Y-96780000D02*
X115050000Y-96270000D01*
X112770000Y-96780000D02*
X115050000Y-96780000D01*
X124750000Y-88780000D02*
X127030000Y-88780000D01*
X124750000Y-88270000D02*
X124750000Y-88780000D01*
X124750000Y-85220000D02*
X124750000Y-85730000D01*
X127030000Y-85220000D02*
X124750000Y-85220000D01*
X134250000Y-85220000D02*
X131970000Y-85220000D01*
X134250000Y-85730000D02*
X134250000Y-85220000D01*
X134250000Y-88780000D02*
X134250000Y-88270000D01*
X131970000Y-88780000D02*
X134250000Y-88780000D01*
X127030000Y-90220000D02*
X124750000Y-90220000D01*
X124750000Y-90220000D02*
X124750000Y-90730000D01*
X124750000Y-93270000D02*
X124750000Y-93780000D01*
X124750000Y-93780000D02*
X127030000Y-93780000D01*
X131970000Y-93780000D02*
X134250000Y-93780000D01*
X134250000Y-93780000D02*
X134250000Y-93270000D01*
X134250000Y-90730000D02*
X134250000Y-90220000D01*
X134250000Y-90220000D02*
X131970000Y-90220000D01*
D12*
X111475000Y-86425000D02*
X111475000Y-85025000D01*
X116575000Y-86425000D02*
X116575000Y-90575000D01*
X111425000Y-86425000D02*
X111425000Y-90575000D01*
X116575000Y-86425000D02*
X116430000Y-86425000D01*
X116575000Y-90575000D02*
X116430000Y-90575000D01*
X111425000Y-90575000D02*
X111570000Y-90575000D01*
X111425000Y-86425000D02*
X111475000Y-86425000D01*
X122575000Y-90575000D02*
X122525000Y-90575000D01*
X122575000Y-86425000D02*
X122430000Y-86425000D01*
X117425000Y-86425000D02*
X117570000Y-86425000D01*
X117425000Y-90575000D02*
X117570000Y-90575000D01*
X122575000Y-90575000D02*
X122575000Y-86425000D01*
X117425000Y-90575000D02*
X117425000Y-86425000D01*
X122525000Y-90575000D02*
X122525000Y-91975000D01*
X168612142Y-100032142D02*
X168659761Y-99984523D01*
X168707380Y-99841666D01*
X168707380Y-99746428D01*
X168659761Y-99603571D01*
X168564523Y-99508333D01*
X168469285Y-99460714D01*
X168278809Y-99413095D01*
X168135952Y-99413095D01*
X167945476Y-99460714D01*
X167850238Y-99508333D01*
X167755000Y-99603571D01*
X167707380Y-99746428D01*
X167707380Y-99841666D01*
X167755000Y-99984523D01*
X167802619Y-100032142D01*
X168707380Y-100984523D02*
X168707380Y-100413095D01*
X168707380Y-100698809D02*
X167707380Y-100698809D01*
X167850238Y-100603571D01*
X167945476Y-100508333D01*
X167993095Y-100413095D01*
X167707380Y-101317857D02*
X167707380Y-101936904D01*
X168088333Y-101603571D01*
X168088333Y-101746428D01*
X168135952Y-101841666D01*
X168183571Y-101889285D01*
X168278809Y-101936904D01*
X168516904Y-101936904D01*
X168612142Y-101889285D01*
X168659761Y-101841666D01*
X168707380Y-101746428D01*
X168707380Y-101460714D01*
X168659761Y-101365476D01*
X168612142Y-101317857D01*
X158766666Y-87377380D02*
X159100000Y-86901190D01*
X159338095Y-87377380D02*
X159338095Y-86377380D01*
X158957142Y-86377380D01*
X158861904Y-86425000D01*
X158814285Y-86472619D01*
X158766666Y-86567857D01*
X158766666Y-86710714D01*
X158814285Y-86805952D01*
X158861904Y-86853571D01*
X158957142Y-86901190D01*
X159338095Y-86901190D01*
X157909523Y-86377380D02*
X158100000Y-86377380D01*
X158195238Y-86425000D01*
X158242857Y-86472619D01*
X158338095Y-86615476D01*
X158385714Y-86805952D01*
X158385714Y-87186904D01*
X158338095Y-87282142D01*
X158290476Y-87329761D01*
X158195238Y-87377380D01*
X158004761Y-87377380D01*
X157909523Y-87329761D01*
X157861904Y-87282142D01*
X157814285Y-87186904D01*
X157814285Y-86948809D01*
X157861904Y-86853571D01*
X157909523Y-86805952D01*
X158004761Y-86758333D01*
X158195238Y-86758333D01*
X158290476Y-86805952D01*
X158338095Y-86853571D01*
X158385714Y-86948809D01*
X158766666Y-85877380D02*
X159100000Y-85401190D01*
X159338095Y-85877380D02*
X159338095Y-84877380D01*
X158957142Y-84877380D01*
X158861904Y-84925000D01*
X158814285Y-84972619D01*
X158766666Y-85067857D01*
X158766666Y-85210714D01*
X158814285Y-85305952D01*
X158861904Y-85353571D01*
X158957142Y-85401190D01*
X159338095Y-85401190D01*
X157909523Y-85210714D02*
X157909523Y-85877380D01*
X158147619Y-84829761D02*
X158385714Y-85544047D01*
X157766666Y-85544047D01*
X155542857Y-92732142D02*
X155590476Y-92779761D01*
X155733333Y-92827380D01*
X155828571Y-92827380D01*
X155971428Y-92779761D01*
X156066666Y-92684523D01*
X156114285Y-92589285D01*
X156161904Y-92398809D01*
X156161904Y-92255952D01*
X156114285Y-92065476D01*
X156066666Y-91970238D01*
X155971428Y-91875000D01*
X155828571Y-91827380D01*
X155733333Y-91827380D01*
X155590476Y-91875000D01*
X155542857Y-91922619D01*
X155161904Y-91922619D02*
X155114285Y-91875000D01*
X155019047Y-91827380D01*
X154780952Y-91827380D01*
X154685714Y-91875000D01*
X154638095Y-91922619D01*
X154590476Y-92017857D01*
X154590476Y-92113095D01*
X154638095Y-92255952D01*
X155209523Y-92827380D01*
X154590476Y-92827380D01*
X154257142Y-91827380D02*
X153638095Y-91827380D01*
X153971428Y-92208333D01*
X153828571Y-92208333D01*
X153733333Y-92255952D01*
X153685714Y-92303571D01*
X153638095Y-92398809D01*
X153638095Y-92636904D01*
X153685714Y-92732142D01*
X153733333Y-92779761D01*
X153828571Y-92827380D01*
X154114285Y-92827380D01*
X154209523Y-92779761D01*
X154257142Y-92732142D01*
X167217857Y-91632142D02*
X167265476Y-91679761D01*
X167408333Y-91727380D01*
X167503571Y-91727380D01*
X167646428Y-91679761D01*
X167741666Y-91584523D01*
X167789285Y-91489285D01*
X167836904Y-91298809D01*
X167836904Y-91155952D01*
X167789285Y-90965476D01*
X167741666Y-90870238D01*
X167646428Y-90775000D01*
X167503571Y-90727380D01*
X167408333Y-90727380D01*
X167265476Y-90775000D01*
X167217857Y-90822619D01*
X166836904Y-90822619D02*
X166789285Y-90775000D01*
X166694047Y-90727380D01*
X166455952Y-90727380D01*
X166360714Y-90775000D01*
X166313095Y-90822619D01*
X166265476Y-90917857D01*
X166265476Y-91013095D01*
X166313095Y-91155952D01*
X166884523Y-91727380D01*
X166265476Y-91727380D01*
X165884523Y-90822619D02*
X165836904Y-90775000D01*
X165741666Y-90727380D01*
X165503571Y-90727380D01*
X165408333Y-90775000D01*
X165360714Y-90822619D01*
X165313095Y-90917857D01*
X165313095Y-91013095D01*
X165360714Y-91155952D01*
X165932142Y-91727380D01*
X165313095Y-91727380D01*
X147667857Y-85632142D02*
X147715476Y-85679761D01*
X147858333Y-85727380D01*
X147953571Y-85727380D01*
X148096428Y-85679761D01*
X148191666Y-85584523D01*
X148239285Y-85489285D01*
X148286904Y-85298809D01*
X148286904Y-85155952D01*
X148239285Y-84965476D01*
X148191666Y-84870238D01*
X148096428Y-84775000D01*
X147953571Y-84727380D01*
X147858333Y-84727380D01*
X147715476Y-84775000D01*
X147667857Y-84822619D01*
X147286904Y-84822619D02*
X147239285Y-84775000D01*
X147144047Y-84727380D01*
X146905952Y-84727380D01*
X146810714Y-84775000D01*
X146763095Y-84822619D01*
X146715476Y-84917857D01*
X146715476Y-85013095D01*
X146763095Y-85155952D01*
X147334523Y-85727380D01*
X146715476Y-85727380D01*
X145763095Y-85727380D02*
X146334523Y-85727380D01*
X146048809Y-85727380D02*
X146048809Y-84727380D01*
X146144047Y-84870238D01*
X146239285Y-84965476D01*
X146334523Y-85013095D01*
X164042857Y-91682142D02*
X164090476Y-91729761D01*
X164233333Y-91777380D01*
X164328571Y-91777380D01*
X164471428Y-91729761D01*
X164566666Y-91634523D01*
X164614285Y-91539285D01*
X164661904Y-91348809D01*
X164661904Y-91205952D01*
X164614285Y-91015476D01*
X164566666Y-90920238D01*
X164471428Y-90825000D01*
X164328571Y-90777380D01*
X164233333Y-90777380D01*
X164090476Y-90825000D01*
X164042857Y-90872619D01*
X163661904Y-90872619D02*
X163614285Y-90825000D01*
X163519047Y-90777380D01*
X163280952Y-90777380D01*
X163185714Y-90825000D01*
X163138095Y-90872619D01*
X163090476Y-90967857D01*
X163090476Y-91063095D01*
X163138095Y-91205952D01*
X163709523Y-91777380D01*
X163090476Y-91777380D01*
X162471428Y-90777380D02*
X162376190Y-90777380D01*
X162280952Y-90825000D01*
X162233333Y-90872619D01*
X162185714Y-90967857D01*
X162138095Y-91158333D01*
X162138095Y-91396428D01*
X162185714Y-91586904D01*
X162233333Y-91682142D01*
X162280952Y-91729761D01*
X162376190Y-91777380D01*
X162471428Y-91777380D01*
X162566666Y-91729761D01*
X162614285Y-91682142D01*
X162661904Y-91586904D01*
X162709523Y-91396428D01*
X162709523Y-91158333D01*
X162661904Y-90967857D01*
X162614285Y-90872619D01*
X162566666Y-90825000D01*
X162471428Y-90777380D01*
X152736904Y-89577380D02*
X152736904Y-90386904D01*
X152689285Y-90482142D01*
X152641666Y-90529761D01*
X152546428Y-90577380D01*
X152355952Y-90577380D01*
X152260714Y-90529761D01*
X152213095Y-90482142D01*
X152165476Y-90386904D01*
X152165476Y-89577380D01*
X151546428Y-90005952D02*
X151641666Y-89958333D01*
X151689285Y-89910714D01*
X151736904Y-89815476D01*
X151736904Y-89767857D01*
X151689285Y-89672619D01*
X151641666Y-89625000D01*
X151546428Y-89577380D01*
X151355952Y-89577380D01*
X151260714Y-89625000D01*
X151213095Y-89672619D01*
X151165476Y-89767857D01*
X151165476Y-89815476D01*
X151213095Y-89910714D01*
X151260714Y-89958333D01*
X151355952Y-90005952D01*
X151546428Y-90005952D01*
X151641666Y-90053571D01*
X151689285Y-90101190D01*
X151736904Y-90196428D01*
X151736904Y-90386904D01*
X151689285Y-90482142D01*
X151641666Y-90529761D01*
X151546428Y-90577380D01*
X151355952Y-90577380D01*
X151260714Y-90529761D01*
X151213095Y-90482142D01*
X151165476Y-90386904D01*
X151165476Y-90196428D01*
X151213095Y-90101190D01*
X151260714Y-90053571D01*
X151355952Y-90005952D01*
X114966666Y-106357142D02*
X115014285Y-106404761D01*
X115157142Y-106452380D01*
X115252380Y-106452380D01*
X115395238Y-106404761D01*
X115490476Y-106309523D01*
X115538095Y-106214285D01*
X115585714Y-106023809D01*
X115585714Y-105880952D01*
X115538095Y-105690476D01*
X115490476Y-105595238D01*
X115395238Y-105500000D01*
X115252380Y-105452380D01*
X115157142Y-105452380D01*
X115014285Y-105500000D01*
X114966666Y-105547619D01*
X114014285Y-106452380D02*
X114585714Y-106452380D01*
X114300000Y-106452380D02*
X114300000Y-105452380D01*
X114395238Y-105595238D01*
X114490476Y-105690476D01*
X114585714Y-105738095D01*
X137579166Y-106927142D02*
X137626785Y-106974761D01*
X137769642Y-107022380D01*
X137864880Y-107022380D01*
X138007738Y-106974761D01*
X138102976Y-106879523D01*
X138150595Y-106784285D01*
X138198214Y-106593809D01*
X138198214Y-106450952D01*
X138150595Y-106260476D01*
X138102976Y-106165238D01*
X138007738Y-106070000D01*
X137864880Y-106022380D01*
X137769642Y-106022380D01*
X137626785Y-106070000D01*
X137579166Y-106117619D01*
X137245833Y-106022380D02*
X136626785Y-106022380D01*
X136960119Y-106403333D01*
X136817261Y-106403333D01*
X136722023Y-106450952D01*
X136674404Y-106498571D01*
X136626785Y-106593809D01*
X136626785Y-106831904D01*
X136674404Y-106927142D01*
X136722023Y-106974761D01*
X136817261Y-107022380D01*
X137102976Y-107022380D01*
X137198214Y-106974761D01*
X137245833Y-106927142D01*
X142816666Y-107707142D02*
X142864285Y-107754761D01*
X143007142Y-107802380D01*
X143102380Y-107802380D01*
X143245238Y-107754761D01*
X143340476Y-107659523D01*
X143388095Y-107564285D01*
X143435714Y-107373809D01*
X143435714Y-107230952D01*
X143388095Y-107040476D01*
X143340476Y-106945238D01*
X143245238Y-106850000D01*
X143102380Y-106802380D01*
X143007142Y-106802380D01*
X142864285Y-106850000D01*
X142816666Y-106897619D01*
X141959523Y-107135714D02*
X141959523Y-107802380D01*
X142197619Y-106754761D02*
X142435714Y-107469047D01*
X141816666Y-107469047D01*
X136366666Y-105257142D02*
X136414285Y-105304761D01*
X136557142Y-105352380D01*
X136652380Y-105352380D01*
X136795238Y-105304761D01*
X136890476Y-105209523D01*
X136938095Y-105114285D01*
X136985714Y-104923809D01*
X136985714Y-104780952D01*
X136938095Y-104590476D01*
X136890476Y-104495238D01*
X136795238Y-104400000D01*
X136652380Y-104352380D01*
X136557142Y-104352380D01*
X136414285Y-104400000D01*
X136366666Y-104447619D01*
X135461904Y-104352380D02*
X135938095Y-104352380D01*
X135985714Y-104828571D01*
X135938095Y-104780952D01*
X135842857Y-104733333D01*
X135604761Y-104733333D01*
X135509523Y-104780952D01*
X135461904Y-104828571D01*
X135414285Y-104923809D01*
X135414285Y-105161904D01*
X135461904Y-105257142D01*
X135509523Y-105304761D01*
X135604761Y-105352380D01*
X135842857Y-105352380D01*
X135938095Y-105304761D01*
X135985714Y-105257142D01*
X136066666Y-103457142D02*
X136114285Y-103504761D01*
X136257142Y-103552380D01*
X136352380Y-103552380D01*
X136495238Y-103504761D01*
X136590476Y-103409523D01*
X136638095Y-103314285D01*
X136685714Y-103123809D01*
X136685714Y-102980952D01*
X136638095Y-102790476D01*
X136590476Y-102695238D01*
X136495238Y-102600000D01*
X136352380Y-102552380D01*
X136257142Y-102552380D01*
X136114285Y-102600000D01*
X136066666Y-102647619D01*
X135209523Y-102552380D02*
X135400000Y-102552380D01*
X135495238Y-102600000D01*
X135542857Y-102647619D01*
X135638095Y-102790476D01*
X135685714Y-102980952D01*
X135685714Y-103361904D01*
X135638095Y-103457142D01*
X135590476Y-103504761D01*
X135495238Y-103552380D01*
X135304761Y-103552380D01*
X135209523Y-103504761D01*
X135161904Y-103457142D01*
X135114285Y-103361904D01*
X135114285Y-103123809D01*
X135161904Y-103028571D01*
X135209523Y-102980952D01*
X135304761Y-102933333D01*
X135495238Y-102933333D01*
X135590476Y-102980952D01*
X135638095Y-103028571D01*
X135685714Y-103123809D01*
X154266666Y-97157142D02*
X154314285Y-97204761D01*
X154457142Y-97252380D01*
X154552380Y-97252380D01*
X154695238Y-97204761D01*
X154790476Y-97109523D01*
X154838095Y-97014285D01*
X154885714Y-96823809D01*
X154885714Y-96680952D01*
X154838095Y-96490476D01*
X154790476Y-96395238D01*
X154695238Y-96300000D01*
X154552380Y-96252380D01*
X154457142Y-96252380D01*
X154314285Y-96300000D01*
X154266666Y-96347619D01*
X153790476Y-97252380D02*
X153600000Y-97252380D01*
X153504761Y-97204761D01*
X153457142Y-97157142D01*
X153361904Y-97014285D01*
X153314285Y-96823809D01*
X153314285Y-96442857D01*
X153361904Y-96347619D01*
X153409523Y-96300000D01*
X153504761Y-96252380D01*
X153695238Y-96252380D01*
X153790476Y-96300000D01*
X153838095Y-96347619D01*
X153885714Y-96442857D01*
X153885714Y-96680952D01*
X153838095Y-96776190D01*
X153790476Y-96823809D01*
X153695238Y-96871428D01*
X153504761Y-96871428D01*
X153409523Y-96823809D01*
X153361904Y-96776190D01*
X153314285Y-96680952D01*
X154242857Y-95457142D02*
X154290476Y-95504761D01*
X154433333Y-95552380D01*
X154528571Y-95552380D01*
X154671428Y-95504761D01*
X154766666Y-95409523D01*
X154814285Y-95314285D01*
X154861904Y-95123809D01*
X154861904Y-94980952D01*
X154814285Y-94790476D01*
X154766666Y-94695238D01*
X154671428Y-94600000D01*
X154528571Y-94552380D01*
X154433333Y-94552380D01*
X154290476Y-94600000D01*
X154242857Y-94647619D01*
X153290476Y-95552380D02*
X153861904Y-95552380D01*
X153576190Y-95552380D02*
X153576190Y-94552380D01*
X153671428Y-94695238D01*
X153766666Y-94790476D01*
X153861904Y-94838095D01*
X152671428Y-94552380D02*
X152576190Y-94552380D01*
X152480952Y-94600000D01*
X152433333Y-94647619D01*
X152385714Y-94742857D01*
X152338095Y-94933333D01*
X152338095Y-95171428D01*
X152385714Y-95361904D01*
X152433333Y-95457142D01*
X152480952Y-95504761D01*
X152576190Y-95552380D01*
X152671428Y-95552380D01*
X152766666Y-95504761D01*
X152814285Y-95457142D01*
X152861904Y-95361904D01*
X152909523Y-95171428D01*
X152909523Y-94933333D01*
X152861904Y-94742857D01*
X152814285Y-94647619D01*
X152766666Y-94600000D01*
X152671428Y-94552380D01*
X144742857Y-103357142D02*
X144790476Y-103404761D01*
X144933333Y-103452380D01*
X145028571Y-103452380D01*
X145171428Y-103404761D01*
X145266666Y-103309523D01*
X145314285Y-103214285D01*
X145361904Y-103023809D01*
X145361904Y-102880952D01*
X145314285Y-102690476D01*
X145266666Y-102595238D01*
X145171428Y-102500000D01*
X145028571Y-102452380D01*
X144933333Y-102452380D01*
X144790476Y-102500000D01*
X144742857Y-102547619D01*
X143790476Y-103452380D02*
X144361904Y-103452380D01*
X144076190Y-103452380D02*
X144076190Y-102452380D01*
X144171428Y-102595238D01*
X144266666Y-102690476D01*
X144361904Y-102738095D01*
X143409523Y-102547619D02*
X143361904Y-102500000D01*
X143266666Y-102452380D01*
X143028571Y-102452380D01*
X142933333Y-102500000D01*
X142885714Y-102547619D01*
X142838095Y-102642857D01*
X142838095Y-102738095D01*
X142885714Y-102880952D01*
X143457142Y-103452380D01*
X142838095Y-103452380D01*
X147742857Y-107257142D02*
X147790476Y-107304761D01*
X147933333Y-107352380D01*
X148028571Y-107352380D01*
X148171428Y-107304761D01*
X148266666Y-107209523D01*
X148314285Y-107114285D01*
X148361904Y-106923809D01*
X148361904Y-106780952D01*
X148314285Y-106590476D01*
X148266666Y-106495238D01*
X148171428Y-106400000D01*
X148028571Y-106352380D01*
X147933333Y-106352380D01*
X147790476Y-106400000D01*
X147742857Y-106447619D01*
X146790476Y-107352380D02*
X147361904Y-107352380D01*
X147076190Y-107352380D02*
X147076190Y-106352380D01*
X147171428Y-106495238D01*
X147266666Y-106590476D01*
X147361904Y-106638095D01*
X145933333Y-106352380D02*
X146123809Y-106352380D01*
X146219047Y-106400000D01*
X146266666Y-106447619D01*
X146361904Y-106590476D01*
X146409523Y-106780952D01*
X146409523Y-107161904D01*
X146361904Y-107257142D01*
X146314285Y-107304761D01*
X146219047Y-107352380D01*
X146028571Y-107352380D01*
X145933333Y-107304761D01*
X145885714Y-107257142D01*
X145838095Y-107161904D01*
X145838095Y-106923809D01*
X145885714Y-106828571D01*
X145933333Y-106780952D01*
X146028571Y-106733333D01*
X146219047Y-106733333D01*
X146314285Y-106780952D01*
X146361904Y-106828571D01*
X146409523Y-106923809D01*
X146217857Y-87257142D02*
X146265476Y-87304761D01*
X146408333Y-87352380D01*
X146503571Y-87352380D01*
X146646428Y-87304761D01*
X146741666Y-87209523D01*
X146789285Y-87114285D01*
X146836904Y-86923809D01*
X146836904Y-86780952D01*
X146789285Y-86590476D01*
X146741666Y-86495238D01*
X146646428Y-86400000D01*
X146503571Y-86352380D01*
X146408333Y-86352380D01*
X146265476Y-86400000D01*
X146217857Y-86447619D01*
X145265476Y-87352380D02*
X145836904Y-87352380D01*
X145551190Y-87352380D02*
X145551190Y-86352380D01*
X145646428Y-86495238D01*
X145741666Y-86590476D01*
X145836904Y-86638095D01*
X144932142Y-86352380D02*
X144265476Y-86352380D01*
X144694047Y-87352380D01*
X123047619Y-96904761D02*
X123000000Y-96809523D01*
X122904761Y-96714285D01*
X122761904Y-96571428D01*
X122714285Y-96476190D01*
X122714285Y-96380952D01*
X122952380Y-96428571D02*
X122904761Y-96333333D01*
X122809523Y-96238095D01*
X122619047Y-96190476D01*
X122285714Y-96190476D01*
X122095238Y-96238095D01*
X122000000Y-96333333D01*
X121952380Y-96428571D01*
X121952380Y-96619047D01*
X122000000Y-96714285D01*
X122095238Y-96809523D01*
X122285714Y-96857142D01*
X122619047Y-96857142D01*
X122809523Y-96809523D01*
X122904761Y-96714285D01*
X122952380Y-96619047D01*
X122952380Y-96428571D01*
X122952380Y-97809523D02*
X122952380Y-97238095D01*
X122952380Y-97523809D02*
X121952380Y-97523809D01*
X122095238Y-97428571D01*
X122190476Y-97333333D01*
X122238095Y-97238095D01*
X167552380Y-96433333D02*
X167076190Y-96100000D01*
X167552380Y-95861904D02*
X166552380Y-95861904D01*
X166552380Y-96242857D01*
X166600000Y-96338095D01*
X166647619Y-96385714D01*
X166742857Y-96433333D01*
X166885714Y-96433333D01*
X166980952Y-96385714D01*
X167028571Y-96338095D01*
X167076190Y-96242857D01*
X167076190Y-95861904D01*
X166647619Y-96814285D02*
X166600000Y-96861904D01*
X166552380Y-96957142D01*
X166552380Y-97195238D01*
X166600000Y-97290476D01*
X166647619Y-97338095D01*
X166742857Y-97385714D01*
X166838095Y-97385714D01*
X166980952Y-97338095D01*
X167552380Y-96766666D01*
X167552380Y-97385714D01*
X165847380Y-97370833D02*
X165371190Y-97037500D01*
X165847380Y-96799404D02*
X164847380Y-96799404D01*
X164847380Y-97180357D01*
X164895000Y-97275595D01*
X164942619Y-97323214D01*
X165037857Y-97370833D01*
X165180714Y-97370833D01*
X165275952Y-97323214D01*
X165323571Y-97275595D01*
X165371190Y-97180357D01*
X165371190Y-96799404D01*
X164847380Y-97704166D02*
X164847380Y-98323214D01*
X165228333Y-97989880D01*
X165228333Y-98132738D01*
X165275952Y-98227976D01*
X165323571Y-98275595D01*
X165418809Y-98323214D01*
X165656904Y-98323214D01*
X165752142Y-98275595D01*
X165799761Y-98227976D01*
X165847380Y-98132738D01*
X165847380Y-97847023D01*
X165799761Y-97751785D01*
X165752142Y-97704166D01*
X147766666Y-105452380D02*
X148100000Y-104976190D01*
X148338095Y-105452380D02*
X148338095Y-104452380D01*
X147957142Y-104452380D01*
X147861904Y-104500000D01*
X147814285Y-104547619D01*
X147766666Y-104642857D01*
X147766666Y-104785714D01*
X147814285Y-104880952D01*
X147861904Y-104928571D01*
X147957142Y-104976190D01*
X148338095Y-104976190D01*
X147433333Y-104452380D02*
X146766666Y-104452380D01*
X147195238Y-105452380D01*
X146141666Y-89477380D02*
X146475000Y-89001190D01*
X146713095Y-89477380D02*
X146713095Y-88477380D01*
X146332142Y-88477380D01*
X146236904Y-88525000D01*
X146189285Y-88572619D01*
X146141666Y-88667857D01*
X146141666Y-88810714D01*
X146189285Y-88905952D01*
X146236904Y-88953571D01*
X146332142Y-89001190D01*
X146713095Y-89001190D01*
X145570238Y-88905952D02*
X145665476Y-88858333D01*
X145713095Y-88810714D01*
X145760714Y-88715476D01*
X145760714Y-88667857D01*
X145713095Y-88572619D01*
X145665476Y-88525000D01*
X145570238Y-88477380D01*
X145379761Y-88477380D01*
X145284523Y-88525000D01*
X145236904Y-88572619D01*
X145189285Y-88667857D01*
X145189285Y-88715476D01*
X145236904Y-88810714D01*
X145284523Y-88858333D01*
X145379761Y-88905952D01*
X145570238Y-88905952D01*
X145665476Y-88953571D01*
X145713095Y-89001190D01*
X145760714Y-89096428D01*
X145760714Y-89286904D01*
X145713095Y-89382142D01*
X145665476Y-89429761D01*
X145570238Y-89477380D01*
X145379761Y-89477380D01*
X145284523Y-89429761D01*
X145236904Y-89382142D01*
X145189285Y-89286904D01*
X145189285Y-89096428D01*
X145236904Y-89001190D01*
X145284523Y-88953571D01*
X145379761Y-88905952D01*
X126333333Y-105204761D02*
X126190476Y-105252380D01*
X125952380Y-105252380D01*
X125857142Y-105204761D01*
X125809523Y-105157142D01*
X125761904Y-105061904D01*
X125761904Y-104966666D01*
X125809523Y-104871428D01*
X125857142Y-104823809D01*
X125952380Y-104776190D01*
X126142857Y-104728571D01*
X126238095Y-104680952D01*
X126285714Y-104633333D01*
X126333333Y-104538095D01*
X126333333Y-104442857D01*
X126285714Y-104347619D01*
X126238095Y-104300000D01*
X126142857Y-104252380D01*
X125904761Y-104252380D01*
X125761904Y-104300000D01*
X125428571Y-104252380D02*
X125190476Y-105252380D01*
X125000000Y-104538095D01*
X124809523Y-105252380D01*
X124571428Y-104252380D01*
X123761904Y-104585714D02*
X123761904Y-105252380D01*
X124000000Y-104204761D02*
X124238095Y-104919047D01*
X123619047Y-104919047D01*
X122952380Y-99238095D02*
X123761904Y-99238095D01*
X123857142Y-99285714D01*
X123904761Y-99333333D01*
X123952380Y-99428571D01*
X123952380Y-99619047D01*
X123904761Y-99714285D01*
X123857142Y-99761904D01*
X123761904Y-99809523D01*
X122952380Y-99809523D01*
X123952380Y-100809523D02*
X123952380Y-100238095D01*
X123952380Y-100523809D02*
X122952380Y-100523809D01*
X123095238Y-100428571D01*
X123190476Y-100333333D01*
X123238095Y-100238095D01*
X149394163Y-99316667D02*
X149966583Y-99889087D01*
X150000255Y-99990102D01*
X150000255Y-100057446D01*
X149966583Y-100158461D01*
X149831896Y-100293148D01*
X149730881Y-100326820D01*
X149663537Y-100326820D01*
X149562522Y-100293148D01*
X148990102Y-99720728D01*
X148720728Y-99990102D02*
X148282996Y-100427835D01*
X148788072Y-100461507D01*
X148687057Y-100562522D01*
X148653385Y-100663537D01*
X148653385Y-100730881D01*
X148687057Y-100831896D01*
X148855415Y-101000255D01*
X148956431Y-101033927D01*
X149023774Y-101033927D01*
X149124789Y-101000255D01*
X149326820Y-100798224D01*
X149360492Y-100697209D01*
X149360492Y-100629866D01*
X162061904Y-102547380D02*
X162061904Y-103356904D01*
X162014285Y-103452142D01*
X161966666Y-103499761D01*
X161871428Y-103547380D01*
X161680952Y-103547380D01*
X161585714Y-103499761D01*
X161538095Y-103452142D01*
X161490476Y-103356904D01*
X161490476Y-102547380D01*
X160538095Y-102547380D02*
X161014285Y-102547380D01*
X161061904Y-103023571D01*
X161014285Y-102975952D01*
X160919047Y-102928333D01*
X160680952Y-102928333D01*
X160585714Y-102975952D01*
X160538095Y-103023571D01*
X160490476Y-103118809D01*
X160490476Y-103356904D01*
X160538095Y-103452142D01*
X160585714Y-103499761D01*
X160680952Y-103547380D01*
X160919047Y-103547380D01*
X161014285Y-103499761D01*
X161061904Y-103452142D01*
X155933333Y-109704761D02*
X155790476Y-109752380D01*
X155552380Y-109752380D01*
X155457142Y-109704761D01*
X155409523Y-109657142D01*
X155361904Y-109561904D01*
X155361904Y-109466666D01*
X155409523Y-109371428D01*
X155457142Y-109323809D01*
X155552380Y-109276190D01*
X155742857Y-109228571D01*
X155838095Y-109180952D01*
X155885714Y-109133333D01*
X155933333Y-109038095D01*
X155933333Y-108942857D01*
X155885714Y-108847619D01*
X155838095Y-108800000D01*
X155742857Y-108752380D01*
X155504761Y-108752380D01*
X155361904Y-108800000D01*
X155028571Y-108752380D02*
X154790476Y-109752380D01*
X154600000Y-109038095D01*
X154409523Y-109752380D01*
X154171428Y-108752380D01*
X153838095Y-108847619D02*
X153790476Y-108800000D01*
X153695238Y-108752380D01*
X153457142Y-108752380D01*
X153361904Y-108800000D01*
X153314285Y-108847619D01*
X153266666Y-108942857D01*
X153266666Y-109038095D01*
X153314285Y-109180952D01*
X153885714Y-109752380D01*
X153266666Y-109752380D01*
X156033333Y-102579761D02*
X155890476Y-102627380D01*
X155652380Y-102627380D01*
X155557142Y-102579761D01*
X155509523Y-102532142D01*
X155461904Y-102436904D01*
X155461904Y-102341666D01*
X155509523Y-102246428D01*
X155557142Y-102198809D01*
X155652380Y-102151190D01*
X155842857Y-102103571D01*
X155938095Y-102055952D01*
X155985714Y-102008333D01*
X156033333Y-101913095D01*
X156033333Y-101817857D01*
X155985714Y-101722619D01*
X155938095Y-101675000D01*
X155842857Y-101627380D01*
X155604761Y-101627380D01*
X155461904Y-101675000D01*
X155128571Y-101627380D02*
X154890476Y-102627380D01*
X154700000Y-101913095D01*
X154509523Y-102627380D01*
X154271428Y-101627380D01*
X153985714Y-101627380D02*
X153366666Y-101627380D01*
X153700000Y-102008333D01*
X153557142Y-102008333D01*
X153461904Y-102055952D01*
X153414285Y-102103571D01*
X153366666Y-102198809D01*
X153366666Y-102436904D01*
X153414285Y-102532142D01*
X153461904Y-102579761D01*
X153557142Y-102627380D01*
X153842857Y-102627380D01*
X153938095Y-102579761D01*
X153985714Y-102532142D01*
X117895238Y-93852380D02*
X118228571Y-93376190D01*
X118466666Y-93852380D02*
X118466666Y-92852380D01*
X118085714Y-92852380D01*
X117990476Y-92900000D01*
X117942857Y-92947619D01*
X117895238Y-93042857D01*
X117895238Y-93185714D01*
X117942857Y-93280952D01*
X117990476Y-93328571D01*
X118085714Y-93376190D01*
X118466666Y-93376190D01*
X117609523Y-92852380D02*
X117276190Y-93852380D01*
X116942857Y-92852380D01*
X116085714Y-93852380D02*
X116657142Y-93852380D01*
X116371428Y-93852380D02*
X116371428Y-92852380D01*
X116466666Y-92995238D01*
X116561904Y-93090476D01*
X116657142Y-93138095D01*
X123952380Y-86304761D02*
X123476190Y-85971428D01*
X123952380Y-85733333D02*
X122952380Y-85733333D01*
X122952380Y-86114285D01*
X123000000Y-86209523D01*
X123047619Y-86257142D01*
X123142857Y-86304761D01*
X123285714Y-86304761D01*
X123380952Y-86257142D01*
X123428571Y-86209523D01*
X123476190Y-86114285D01*
X123476190Y-85733333D01*
X122952380Y-86590476D02*
X123952380Y-86923809D01*
X122952380Y-87257142D01*
X123047619Y-87542857D02*
X123000000Y-87590476D01*
X122952380Y-87685714D01*
X122952380Y-87923809D01*
X123000000Y-88019047D01*
X123047619Y-88066666D01*
X123142857Y-88114285D01*
X123238095Y-88114285D01*
X123380952Y-88066666D01*
X123952380Y-87495238D01*
X123952380Y-88114285D01*
X137195238Y-87452380D02*
X137528571Y-86976190D01*
X137766666Y-87452380D02*
X137766666Y-86452380D01*
X137385714Y-86452380D01*
X137290476Y-86500000D01*
X137242857Y-86547619D01*
X137195238Y-86642857D01*
X137195238Y-86785714D01*
X137242857Y-86880952D01*
X137290476Y-86928571D01*
X137385714Y-86976190D01*
X137766666Y-86976190D01*
X136909523Y-86452380D02*
X136576190Y-87452380D01*
X136242857Y-86452380D01*
X136004761Y-86452380D02*
X135385714Y-86452380D01*
X135719047Y-86833333D01*
X135576190Y-86833333D01*
X135480952Y-86880952D01*
X135433333Y-86928571D01*
X135385714Y-87023809D01*
X135385714Y-87261904D01*
X135433333Y-87357142D01*
X135480952Y-87404761D01*
X135576190Y-87452380D01*
X135861904Y-87452380D01*
X135957142Y-87404761D01*
X136004761Y-87357142D01*
X123752380Y-92204761D02*
X123276190Y-91871428D01*
X123752380Y-91633333D02*
X122752380Y-91633333D01*
X122752380Y-92014285D01*
X122800000Y-92109523D01*
X122847619Y-92157142D01*
X122942857Y-92204761D01*
X123085714Y-92204761D01*
X123180952Y-92157142D01*
X123228571Y-92109523D01*
X123276190Y-92014285D01*
X123276190Y-91633333D01*
X122752380Y-92490476D02*
X123752380Y-92823809D01*
X122752380Y-93157142D01*
X123085714Y-93919047D02*
X123752380Y-93919047D01*
X122704761Y-93680952D02*
X123419047Y-93442857D01*
X123419047Y-94061904D01*
X137095238Y-92452380D02*
X137428571Y-91976190D01*
X137666666Y-92452380D02*
X137666666Y-91452380D01*
X137285714Y-91452380D01*
X137190476Y-91500000D01*
X137142857Y-91547619D01*
X137095238Y-91642857D01*
X137095238Y-91785714D01*
X137142857Y-91880952D01*
X137190476Y-91928571D01*
X137285714Y-91976190D01*
X137666666Y-91976190D01*
X136809523Y-91452380D02*
X136476190Y-92452380D01*
X136142857Y-91452380D01*
X135333333Y-91452380D02*
X135809523Y-91452380D01*
X135857142Y-91928571D01*
X135809523Y-91880952D01*
X135714285Y-91833333D01*
X135476190Y-91833333D01*
X135380952Y-91880952D01*
X135333333Y-91928571D01*
X135285714Y-92023809D01*
X135285714Y-92261904D01*
X135333333Y-92357142D01*
X135380952Y-92404761D01*
X135476190Y-92452380D01*
X135714285Y-92452380D01*
X135809523Y-92404761D01*
X135857142Y-92357142D01*
X110252380Y-87738095D02*
X111061904Y-87738095D01*
X111157142Y-87785714D01*
X111204761Y-87833333D01*
X111252380Y-87928571D01*
X111252380Y-88119047D01*
X111204761Y-88214285D01*
X111157142Y-88261904D01*
X111061904Y-88309523D01*
X110252380Y-88309523D01*
X110252380Y-89214285D02*
X110252380Y-89023809D01*
X110300000Y-88928571D01*
X110347619Y-88880952D01*
X110490476Y-88785714D01*
X110680952Y-88738095D01*
X111061904Y-88738095D01*
X111157142Y-88785714D01*
X111204761Y-88833333D01*
X111252380Y-88928571D01*
X111252380Y-89119047D01*
X111204761Y-89214285D01*
X111157142Y-89261904D01*
X111061904Y-89309523D01*
X110823809Y-89309523D01*
X110728571Y-89261904D01*
X110680952Y-89214285D01*
X110633333Y-89119047D01*
X110633333Y-88928571D01*
X110680952Y-88833333D01*
X110728571Y-88785714D01*
X110823809Y-88738095D01*
X121261904Y-92752380D02*
X121261904Y-93561904D01*
X121214285Y-93657142D01*
X121166666Y-93704761D01*
X121071428Y-93752380D01*
X120880952Y-93752380D01*
X120785714Y-93704761D01*
X120738095Y-93657142D01*
X120690476Y-93561904D01*
X120690476Y-92752380D01*
X120309523Y-92752380D02*
X119642857Y-92752380D01*
X120071428Y-93752380D01*
M02*
